<svg width="29" height="28" viewBox="0 0 29 28" fill="none" xmlns="http://www.w3.org/2000/svg">
<g clip-path="url(#clip0_133_1507)">
<path d="M14.1167 17.7177C16.1699 17.7177 17.8344 16.0532 17.8344 14C17.8344 11.9467 16.1699 10.2822 14.1167 10.2822C12.0634 10.2822 10.3989 11.9467 10.3989 14C10.3989 16.0532 12.0634 17.7177 14.1167 17.7177Z" fill="#9C9CA3"/>
<path d="M10.6314 2.38184L8.50527 4.70543H4.82237C3.5444 4.70543 2.49878 5.75104 2.49878 7.02902V20.9706C2.49878 22.2485 3.5444 23.2942 4.82237 23.2942H23.4111C24.6891 23.2942 25.7347 22.2485 25.7347 20.9706V7.02902C25.7347 5.75104 24.6891 4.70543 23.4111 4.70543H19.7282L17.6021 2.38184H10.6314ZM14.1167 19.8088C10.9102 19.8088 8.30776 17.2064 8.30776 13.9998C8.30776 10.7932 10.9102 8.19082 14.1167 8.19082C17.3233 8.19082 19.9257 10.7932 19.9257 13.9998C19.9257 17.2064 17.3233 19.8088 14.1167 19.8088Z" fill="#9C9CA3"/>
</g>
<defs>
<clipPath id="clip0_133_1507">
<rect width="27.8831" height="27.8831" fill="white" transform="translate(0.175293 0.0583496)"/>
</clipPath>
</defs>
</svg>
