<svg width="26" height="26" viewBox="0 0 26 26" fill="none" xmlns="http://www.w3.org/2000/svg">
<path fill-rule="evenodd" clip-rule="evenodd" d="M0 2.03903V11.2241C0 12.0731 0.690361 12.7637 1.53918 12.7637H3.0267C3.26251 12.7637 3.45376 12.9548 3.45376 13.191V16.5954L7.0108 12.8945C7.09141 12.8106 7.20256 12.7637 7.31896 12.7637H8.07781V10.8438C8.07781 9.51675 9.15719 8.43743 10.4839 8.43743H16.5894V2.03903C16.5894 1.19036 15.8988 0.5 15.0502 0.5H1.53918C0.690361 0.50005 0 1.19036 0 2.03903ZM10.4839 9.29186H24.0818C24.938 9.29186 25.6338 9.98777 25.6338 10.8438V20.0881C25.6338 20.9436 24.938 21.6394 24.0818 21.6394H22.585C22.3489 21.6394 22.1577 21.8307 22.1577 22.0666V25.5L18.5735 21.7708C18.4926 21.6869 18.3815 21.6394 18.2651 21.6394H10.4839C9.62826 21.6394 8.93239 20.9436 8.93239 20.088V10.8438C8.93234 9.98772 9.62826 9.29186 10.4839 9.29186ZM13.1094 12.4208H21.4565C21.6925 12.4208 21.8838 12.612 21.8838 12.8481C21.8838 13.084 21.6926 13.2753 21.4565 13.2753H13.1094C12.8733 13.2753 12.6821 13.084 12.6821 12.8481C12.6821 12.612 12.8733 12.4208 13.1094 12.4208ZM13.1094 15.0387H21.4565C21.6925 15.0387 21.8838 15.2299 21.8838 15.4659C21.8838 15.7014 21.6926 15.8931 21.4565 15.8931H13.1094C12.8733 15.8931 12.6821 15.7014 12.6821 15.4659C12.6821 15.2298 12.8733 15.0387 13.1094 15.0387ZM13.1094 17.656C12.8733 17.656 12.6821 17.8472 12.6821 18.0833C12.6821 18.3193 12.8733 18.5105 13.1094 18.5105H21.4565C21.6925 18.5105 21.8838 18.3192 21.8838 18.0833C21.8838 17.8471 21.6926 17.656 21.4565 17.656H13.1094ZM5.67139 10.7055C5.67139 11.09 5.35722 11.404 4.97221 11.404C4.58746 11.404 4.27329 11.09 4.27329 10.7055C4.27329 10.3204 4.58746 10.0064 4.97221 10.0064C5.35722 10.0064 5.67139 10.3204 5.67139 10.7055ZM7.70337 4.8203C7.70337 5.87289 7.08736 6.84327 6.13425 7.29237C5.67419 7.5087 5.39958 7.94122 5.39958 8.44969V8.91165C5.39958 9.14716 5.20832 9.33887 4.97226 9.33887C4.73645 9.33887 4.5452 9.14716 4.5452 8.91165V8.44969C4.5452 7.60162 5.00325 6.88012 5.77042 6.51915C6.42548 6.21054 6.84879 5.54406 6.84879 4.82035C6.84879 3.78539 6.00703 2.94373 4.97226 2.94373C3.93775 2.94373 3.09599 3.78539 3.09599 4.82035C3.09599 5.05586 2.90478 5.24757 2.66867 5.24757C2.43286 5.24757 2.24161 5.05586 2.24161 4.82035C2.24161 3.31436 3.46663 2.0893 4.97226 2.0893C6.4781 2.08925 7.70337 3.31436 7.70337 4.8203ZM10.3816 6.08547C10.3816 5.84946 10.5728 5.65826 10.8089 5.65826H14.0451C14.281 5.65826 14.4725 5.84951 14.4725 6.08547C14.4725 6.32158 14.281 6.51269 14.0451 6.51269H10.8089C10.5728 6.51269 10.3816 6.32158 10.3816 6.08547ZM10.3816 3.46817C10.3816 3.23206 10.5728 3.04095 10.8089 3.04095H14.0451C14.281 3.04095 14.4725 3.23206 14.4725 3.46817C14.4725 3.70368 14.281 3.89538 14.0451 3.89538H10.8089C10.5728 3.89538 10.3816 3.70368 10.3816 3.46817Z" fill="url(#paint0_linear_133_1430)"/>
<defs>
<linearGradient id="paint0_linear_133_1430" x1="24.3395" y1="1.77084" x2="-0.439477" y2="29.2098" gradientUnits="userSpaceOnUse">
<stop stop-color="#56CCF2"/>
<stop offset="1" stop-color="#2F80ED"/>
</linearGradient>
</defs>
</svg>
