<svg width="28" height="26" viewBox="0 0 28 26" fill="none" xmlns="http://www.w3.org/2000/svg">
<path d="M27.3527 12.88H24.633C24.5788 12.88 24.5348 12.9239 24.5348 12.978V25.402C24.5348 25.4561 24.5788 25.5 24.633 25.5H27.3527C27.407 25.5 27.451 25.4561 27.451 25.402V12.978C27.451 12.9239 27.407 12.88 27.3527 12.88ZM2.81791 21.106H0.0982822C0.0439976 21.106 0 21.1499 0 21.204V25.402C0 25.4561 0.0439976 25.5 0.0982822 25.5H2.81791C2.8722 25.5 2.9162 25.4561 2.9162 25.402V21.204C2.9162 21.1499 2.8722 21.106 2.81791 21.106ZM7.75431 19.7955H5.03465C4.98039 19.7955 4.93637 19.8394 4.93637 19.8935V25.402C4.93637 25.4561 4.98039 25.5 5.03465 25.5H7.75431C7.8086 25.5 7.85259 25.4561 7.85259 25.402V19.8935C7.85259 19.8394 7.8086 19.7955 7.75431 19.7955ZM12.6907 18.2618H9.97105C9.91676 18.2618 9.87276 18.3057 9.87276 18.3598V25.402C9.87276 25.4561 9.91676 25.5 9.97105 25.5H12.6907C12.745 25.5 12.789 25.4561 12.789 25.402V18.3598C12.789 18.3057 12.745 18.2618 12.6907 18.2618ZM17.6271 16.15H14.9074C14.8532 16.15 14.8091 16.1938 14.8091 16.248V25.402C14.8091 25.4561 14.8532 25.5 14.9074 25.5H17.6271C17.6814 25.5 17.7254 25.4561 17.7254 25.402V16.248C17.7254 16.1938 17.6814 16.15 17.6271 16.15ZM22.5634 14.1062H19.8438C19.7895 14.1062 19.7455 14.1501 19.7455 14.2043V25.402C19.7455 25.4561 19.7895 25.5 19.8438 25.5H22.5634C22.6177 25.5 22.6617 25.4561 22.6617 25.402V14.2043C22.6617 14.1501 22.6177 14.1062 22.5634 14.1062ZM1.56811 10.4322H8.30466C8.42075 10.4322 8.5149 10.3483 8.5149 10.2449V8.03072C8.5149 6.27004 6.91275 4.84271 4.9364 4.84271C2.96004 4.84271 1.35787 6.27004 1.35787 8.03072V10.2449C1.35787 10.3483 1.45201 10.4322 1.56811 10.4322ZM4.9364 4.13303C5.94147 4.13303 6.75625 3.31976 6.75625 2.31651C6.75625 1.31326 5.94147 0.5 4.9364 0.5C3.93129 0.5 3.11651 1.31326 3.11651 2.31651C3.11651 3.31976 3.93129 4.13303 4.9364 4.13303ZM27.0994 6.39193C26.8383 6.08029 26.3734 6.03816 26.0614 6.29954L22.5671 9.21438H17.8937C17.6883 9.21438 17.4911 9.28954 17.3442 9.42023L13.0398 13.1704H7.43958C7.25459 13.1704 7.072 13.2331 6.92037 13.3509L0.524972 18.4132C0.205862 18.6655 0.152597 19.1279 0.405726 19.4463C0.551124 19.6291 0.766344 19.7244 0.983482 19.7244C1.144 19.7244 1.30571 19.6722 1.44103 19.565L7.66176 14.641H13.2795C13.4828 14.641 13.6788 14.5673 13.8292 14.4352L18.1336 10.685H22.7988C22.9898 10.685 23.177 10.6189 23.3344 10.4911L27.0068 7.42737C27.3192 7.16695 27.3604 6.70309 27.0994 6.39193Z" fill="url(#paint0_linear_133_1449)"/>
<defs>
<linearGradient id="paint0_linear_133_1449" x1="26.0649" y1="1.77084" x2="1.51451" y2="30.8838" gradientUnits="userSpaceOnUse">
<stop stop-color="#56CCF2"/>
<stop offset="1" stop-color="#2F80ED"/>
</linearGradient>
</defs>
</svg>
