<svg width="30" height="26" viewBox="0 0 30 26" fill="none" xmlns="http://www.w3.org/2000/svg">
<path d="M20.8428 21.9061C20.6753 21.9501 20.4992 21.9495 20.332 21.9044C20.1648 21.8593 20.0123 21.7712 19.8896 21.649L19.126 20.886C18.972 20.7392 18.866 20.5492 18.8222 20.3409C18.7913 20.1814 18.8001 20.0168 18.8478 19.8614C18.8954 19.7061 18.9805 19.5649 19.0955 19.4501L19.2578 19.2878L18.5978 18.6297C17.2732 19.5715 15.6568 20.0114 14.0376 19.8707C12.4184 19.73 10.9021 19.018 9.75975 17.8619C9.72079 17.8232 9.688 17.7807 9.65034 17.7411C8.57855 17.5699 7.42776 17.4453 6.19796 17.3674C6.07731 17.3603 5.96437 17.3058 5.88378 17.2157C5.8032 17.1256 5.7615 17.0073 5.7678 16.8866V16.8804C5.77524 16.7587 5.8307 16.6448 5.92201 16.5639C6.01332 16.483 6.133 16.4417 6.25478 16.449C7.15147 16.5087 8.00921 16.5925 8.82799 16.7003C8.36271 15.9733 8.03888 15.1651 7.87351 14.3179C7.31444 14.2581 6.75418 14.2101 6.19309 14.1738C6.13346 14.1704 6.07508 14.1552 6.02131 14.1292C5.96754 14.1032 5.91942 14.0668 5.87971 14.0222C5.84 13.9776 5.80947 13.9255 5.78988 13.8691C5.77029 13.8127 5.76201 13.7529 5.76553 13.6933V13.6871C5.77305 13.5654 5.82854 13.4516 5.91983 13.3707C6.01112 13.2899 6.13075 13.2485 6.25251 13.2557C6.76968 13.2901 7.26997 13.3355 7.76183 13.3855C7.7175 12.6273 7.79756 11.8668 7.99882 11.1344C7.41444 11.0695 6.81448 11.0117 6.18887 10.9691C6.06949 10.9615 5.95792 10.9071 5.87836 10.8178C5.7988 10.7285 5.75768 10.6114 5.7639 10.4919V10.488C5.76729 10.4282 5.78249 10.3696 5.80861 10.3156C5.83473 10.2617 5.87126 10.2134 5.91609 10.1737C5.96093 10.1339 6.0132 10.1034 6.06987 10.0839C6.12655 10.0644 6.18652 10.0563 6.24634 10.0601C6.96058 10.1049 7.64495 10.1718 8.31114 10.2494C8.64441 9.47375 9.11763 8.76611 9.70715 8.16185C8.55182 7.9767 7.38819 7.84766 6.22037 7.77519C6.09849 7.76638 5.98431 7.71235 5.90022 7.6237C5.81613 7.53504 5.7682 7.41817 5.76585 7.296C5.76928 7.23604 5.78455 7.17736 5.81079 7.12334C5.83703 7.06932 5.87372 7.02104 5.91873 6.98128C5.96374 6.94152 6.01618 6.91108 6.07302 6.89171C6.12987 6.87234 6.18999 6.86443 6.24991 6.86843C7.71165 6.95746 9.16688 7.13243 10.6081 7.39242C11.7806 6.55149 13.1869 6.09842 14.6298 6.09668C16.0727 6.09493 17.48 6.54459 18.6546 7.38268C20.0808 7.12764 21.5206 6.9556 22.9667 6.86745C23.0266 6.86345 23.0867 6.87137 23.1436 6.89074C23.2004 6.91011 23.2529 6.94055 23.2979 6.98031C23.3429 7.02006 23.3796 7.06835 23.4058 7.12236C23.432 7.17638 23.4473 7.23507 23.4507 7.29502C23.4484 7.41719 23.4005 7.53407 23.3164 7.62273C23.2323 7.71138 23.1181 7.76541 22.9962 7.77421C21.846 7.84556 20.6999 7.97178 19.5617 8.15244C20.1529 8.75701 20.629 9.46431 20.9665 10.2396C21.6126 10.1656 22.2749 10.1013 22.9683 10.0582C23.089 10.051 23.2076 10.092 23.2981 10.1722C23.3886 10.2525 23.4435 10.3653 23.4507 10.4861V10.4896C23.4571 10.6091 23.416 10.7263 23.3364 10.8157C23.2568 10.9052 23.1452 10.9596 23.0258 10.9672C22.4232 11.0078 21.8466 11.063 21.2821 11.1246C21.4867 11.8565 21.5684 12.6172 21.5236 13.3758C22.0029 13.327 22.4831 13.2863 22.9638 13.2537C23.0241 13.25 23.0846 13.2581 23.1418 13.2778C23.1989 13.2974 23.2516 13.3282 23.2969 13.3683C23.3421 13.4084 23.379 13.457 23.4054 13.5114C23.4318 13.5658 23.4472 13.6248 23.4507 13.6852V13.6914C23.4572 13.8121 23.4156 13.9305 23.335 14.0206C23.2543 14.1107 23.1413 14.1652 23.0206 14.1722C22.4641 14.2069 21.9301 14.255 21.4061 14.3089C21.2193 15.2592 20.8354 16.1599 20.2792 16.9528L20.9363 17.6093L21.0986 17.447C21.2853 17.2612 21.538 17.157 21.8013 17.157C22.0647 17.157 22.3174 17.2612 22.5041 17.447L23.2982 18.2407C23.4204 18.3637 23.5085 18.5164 23.5536 18.6838C23.5987 18.8512 23.5993 19.0275 23.5553 19.1952L25.1607 20.7984C25.4104 21.0439 25.5725 21.3647 25.622 21.7114C25.6714 22.0582 25.6055 22.4115 25.4344 22.7171C25.5444 22.7151 25.6551 22.7135 25.7672 22.7122C25.8528 22.7115 25.9347 22.677 25.995 22.6162C26.0554 22.5554 26.0892 22.4732 26.0892 22.3876V0.759731C26.0885 0.690272 26.0603 0.62392 26.0108 0.57523C25.9612 0.52654 25.8944 0.499488 25.8249 0.500007C17.0145 0.5776 14.7542 3.04497 14.7315 3.0703L14.6081 3.2112L14.4861 3.0703C14.464 3.04497 12.2031 0.5776 3.39263 0.500007C3.32316 0.499488 3.25633 0.52654 3.20679 0.57523C3.15725 0.62392 3.12904 0.690272 3.12836 0.759731V22.4531C3.12836 22.522 3.15572 22.5881 3.20443 22.6368C3.25314 22.6855 3.3192 22.7129 3.38808 22.7129C10.7814 22.7755 13.6209 24.4738 14.45 25.1374C14.4952 25.1733 14.5512 25.1929 14.6089 25.1929C14.6667 25.1929 14.7227 25.1733 14.7679 25.1374C15.4292 24.6088 17.3683 23.4245 21.8658 22.9326L20.8428 21.9061ZM17.1826 4.50462C19.0808 4.0564 21.0144 3.77461 22.9615 3.66247C23.0219 3.65864 23.0825 3.66677 23.1398 3.68639C23.1971 3.70601 23.25 3.73674 23.2954 3.77681C23.3408 3.81689 23.3779 3.86552 23.4045 3.91994C23.4311 3.97435 23.4467 4.03348 23.4504 4.09393V4.09977C23.4569 4.22046 23.4153 4.3388 23.3348 4.42891C23.2542 4.51902 23.1412 4.57355 23.0206 4.58059C21.128 4.68074 19.2483 4.95075 17.4041 5.38735C17.287 5.41693 17.163 5.3988 17.0593 5.33694C16.9556 5.27508 16.8807 5.17456 16.8512 5.05751C16.8216 4.94045 16.8397 4.81643 16.9016 4.71275C16.9635 4.60906 17.064 4.5342 17.181 4.50462H17.1826ZM5.76845 4.09263C5.77703 3.9705 5.83349 3.8567 5.92553 3.77596C6.01757 3.69523 6.13776 3.65409 6.25997 3.66149C8.19949 3.773 10.1256 4.05337 12.0164 4.49942C12.1358 4.53084 12.2381 4.60759 12.3017 4.71334C12.3653 4.81909 12.3852 4.94548 12.357 5.06562C12.326 5.18057 12.251 5.27867 12.1481 5.33861C12.0453 5.39855 11.9229 5.41548 11.8077 5.38573C9.96471 4.94932 8.0863 4.67921 6.19504 4.57864C6.13543 4.57516 6.07709 4.55997 6.02336 4.53394C5.96962 4.50791 5.92154 4.47154 5.88187 4.42692C5.84219 4.3823 5.81169 4.33029 5.79212 4.27388C5.77255 4.21747 5.76428 4.15776 5.7678 4.09815L5.76845 4.09263ZM12.357 21.0451V21.048C12.3262 21.1626 12.2515 21.2605 12.1492 21.3206C12.0469 21.3806 11.925 21.3981 11.8099 21.3691C9.96592 20.9355 8.0874 20.6646 6.19602 20.5594C6.07617 20.5524 5.96397 20.4982 5.88392 20.4087C5.80387 20.3193 5.76248 20.2018 5.76877 20.0819V20.0799C5.77605 19.9593 5.8309 19.8464 5.9213 19.7662C6.01169 19.686 6.13023 19.6449 6.25088 19.652C8.19892 19.7554 10.1337 20.0336 12.032 20.4831C12.0906 20.4982 12.1455 20.5247 12.1937 20.5612C12.2419 20.5978 12.2823 20.6435 12.3125 20.6959C12.3428 20.7482 12.3623 20.806 12.3699 20.866C12.3776 20.926 12.3732 20.9869 12.357 21.0451Z" fill="url(#paint0_linear_133_1441)"/>
<path d="M13.4553 24.8886C12.046 24.1279 8.97507 23.0342 2.96669 23.0342H2.80436V3.61171C2.80436 3.4395 2.73596 3.27435 2.61419 3.15258C2.49242 3.03081 2.32726 2.9624 2.15506 2.9624H1.82618C1.34259 2.96462 0.879429 3.15769 0.537443 3.49962C0.195457 3.84154 0.0023055 4.30467 0 4.78826V23.6737C0.00222018 24.1574 0.195334 24.6206 0.537329 24.9626C0.879324 25.3046 1.34253 25.4977 1.82618 25.4999H13.3014C13.374 25.5002 13.4446 25.4763 13.5019 25.4318C13.5593 25.3873 13.6 25.3249 13.6178 25.2545C13.6355 25.1841 13.6291 25.1099 13.5997 25.0435C13.5702 24.9772 13.5194 24.9226 13.4553 24.8886ZM27.3927 2.9624H27.0638C26.8916 2.9624 26.7265 3.03081 26.6047 3.15258C26.4829 3.27435 26.4145 3.4395 26.4145 3.61171V23.0342H26.2522C25.8892 23.0342 25.5406 23.0394 25.1987 23.0471C25.1851 23.0614 25.1753 23.0796 25.1614 23.0919L24.7484 23.5117C24.4416 23.8131 24.0287 23.9819 23.5986 23.9819C23.1686 23.9819 22.7557 23.8131 22.4489 23.5117L22.1645 23.2273C18.7673 23.576 16.8077 24.3243 15.761 24.8889C15.6976 24.9236 15.6477 24.9785 15.619 25.0448C15.5903 25.1111 15.5846 25.1851 15.6027 25.255C15.6208 25.325 15.6617 25.3869 15.719 25.4309C15.7762 25.475 15.8465 25.4987 15.9188 25.4983H27.3927C27.8761 25.4961 28.3391 25.3032 28.681 24.9615C29.0229 24.6199 29.2162 24.1571 29.2189 23.6737V4.78826C29.2166 4.30467 29.0234 3.84154 28.6815 3.49962C28.3395 3.15769 27.8763 2.96462 27.3927 2.9624Z" fill="url(#paint1_linear_133_1441)"/>
<path d="M25.0455 22.726C25.0835 22.676 25.1178 22.6232 25.148 22.5682C25.1552 22.5555 25.1621 22.5427 25.1688 22.5299C25.1936 22.4825 25.2153 22.4336 25.2338 22.3834C25.2451 22.3533 25.2532 22.3221 25.262 22.2909C25.2727 22.2526 25.2847 22.215 25.2919 22.1757C25.3312 21.97 25.3192 21.7578 25.2569 21.5579C25.1946 21.358 25.0839 21.1766 24.9347 21.0296L23.1839 19.2791L23.2215 19.1817C23.2677 19.0612 23.2781 18.9299 23.2514 18.8036C23.2247 18.6773 23.1622 18.5613 23.0712 18.4697L22.2755 17.6743C22.1481 17.5526 21.9786 17.4846 21.8023 17.4846C21.6261 17.4846 21.4566 17.5526 21.3291 17.6743L20.9363 18.0668L19.8536 16.9874L19.936 16.875C20.0425 16.7296 20.1396 16.5802 20.2325 16.4293C20.2529 16.3968 20.274 16.3621 20.2941 16.3283C20.3747 16.192 20.4496 16.0538 20.5191 15.9137C20.5474 15.8569 20.5737 15.7998 20.6003 15.7426C20.6436 15.6468 20.6852 15.5502 20.7253 15.453C20.7717 15.3391 20.8139 15.2258 20.8551 15.1092C20.874 15.0537 20.8928 14.9979 20.9103 14.942C21.0665 14.4451 21.1627 13.9314 21.197 13.4116C21.222 13.0335 21.2142 12.654 21.1736 12.2773C21.1531 12.0892 21.1246 11.9022 21.0882 11.7163C21.0517 11.5301 21.007 11.3462 20.9542 11.1644C20.7612 10.4878 20.4605 9.84673 20.0636 9.26579L20.0588 9.25767C19.9541 9.10673 19.8431 8.96019 19.7263 8.81841C19.7166 8.8064 19.7081 8.79341 19.6981 8.7814C19.5702 8.62687 19.4341 8.47709 19.29 8.33208C19.2494 8.2915 19.2049 8.25709 19.1637 8.21813C18.8714 7.93908 18.5541 7.6875 18.2157 7.46655C18.0696 7.37208 17.9199 7.28507 17.7683 7.20326C17.6914 7.1617 17.6131 7.12469 17.5349 7.08638C17.4414 7.0405 17.3471 6.99721 17.2521 6.95652C17.1703 6.92146 17.0898 6.88704 17.006 6.85523C16.9001 6.81529 16.7931 6.77806 16.6853 6.74355C16.4535 6.66707 16.2177 6.60366 15.9788 6.55362C15.8973 6.53674 15.8165 6.52376 15.7334 6.51012C15.6286 6.49259 15.5237 6.47744 15.4185 6.46467C15.3357 6.45493 15.2532 6.44519 15.1701 6.4387C14.9509 6.42182 14.7309 6.41575 14.5111 6.42052C14.3731 6.42311 14.2354 6.42896 14.0978 6.44032C14.0186 6.44681 13.94 6.45623 13.8614 6.46564C13.7504 6.47863 13.6399 6.49454 13.53 6.51337C13.4527 6.52635 13.3758 6.53902 13.2988 6.55492C12.9428 6.62866 12.5934 6.73171 12.2544 6.86302C12.1813 6.89127 12.1096 6.92211 12.0375 6.95295C11.9293 6.99905 11.823 7.04829 11.7187 7.10067C11.6505 7.13313 11.582 7.1656 11.5145 7.20358C11.3564 7.28864 11.2006 7.37922 11.0483 7.47824C10.6674 7.72617 10.3132 8.01297 9.99156 8.33403C9.84189 8.48434 9.70261 8.6405 9.57145 8.80121C9.47958 8.91256 9.39776 9.02846 9.31465 9.14502C9.28219 9.19014 9.2468 9.23397 9.21726 9.27975C9.11337 9.43266 9.01889 9.58947 8.92929 9.74855L8.91598 9.77095C8.66795 10.2133 8.47186 10.6828 8.3316 11.1702V11.1744C8.1259 11.904 8.04662 12.6634 8.0972 13.4197C8.11708 13.7341 8.15928 14.0467 8.22349 14.3551C8.26807 14.5661 8.32305 14.7748 8.38841 14.9813L8.39328 14.995C8.45821 15.1988 8.53397 15.3997 8.62054 15.5975V15.5991C8.94582 16.3575 9.4123 17.0471 9.99513 17.6312C10.0666 17.7029 10.1432 17.7669 10.2175 17.835C10.7782 18.3512 11.4244 18.7659 12.1271 19.0606L12.1359 19.0642C12.3034 19.1341 12.4729 19.1966 12.6443 19.2518L12.6703 19.2599C12.8365 19.3125 13.004 19.3586 13.1728 19.3983L13.2215 19.4083C13.3839 19.4444 13.5462 19.4755 13.7085 19.4989C13.7345 19.5028 13.7601 19.5047 13.7858 19.5083C13.941 19.5288 14.0965 19.5453 14.2526 19.5544C14.289 19.5564 14.325 19.5564 14.3614 19.558C14.5078 19.5638 14.6536 19.5674 14.801 19.5638C14.8484 19.5638 14.8961 19.558 14.9435 19.5557C15.0795 19.5492 15.2156 19.5417 15.3513 19.5265C15.41 19.52 15.4688 19.5093 15.5276 19.5012C15.6519 19.484 15.7766 19.4668 15.9003 19.4421C15.971 19.4281 16.0412 19.4096 16.1116 19.3924C16.2233 19.3661 16.335 19.3418 16.4457 19.3096C16.5272 19.2859 16.608 19.2561 16.6885 19.2291C16.7859 19.1966 16.8866 19.1658 16.984 19.1281C17.0814 19.0905 17.1684 19.0489 17.2606 19.0083C17.3443 18.9713 17.4291 18.9382 17.5119 18.8973C17.6213 18.8437 17.7277 18.7817 17.8349 18.7217C17.8998 18.686 17.9647 18.6545 18.0261 18.6165C18.1949 18.5143 18.3606 18.4038 18.5231 18.285L18.6355 18.2029L19.7218 19.2859L19.328 19.6794C19.2025 19.805 19.132 19.9753 19.132 20.1529C19.132 20.3305 19.2025 20.5008 19.328 20.6264L20.1217 21.4192C20.2132 21.51 20.329 21.5725 20.4551 21.5992C20.5812 21.6259 20.7123 21.6156 20.8327 21.5695L20.9301 21.5322L22.2856 22.888L22.5868 23.1892L22.681 23.2831C22.9267 23.524 23.2571 23.6589 23.6012 23.6589C23.9453 23.6589 24.2757 23.524 24.5215 23.2831L24.7416 23.0594L24.9344 22.8646C24.9746 22.821 25.0117 22.7747 25.0455 22.726ZM10.5318 13.771C10.5036 13.6165 10.4839 13.4605 10.4727 13.3038C10.468 13.2358 10.4647 13.1678 10.463 13.0996C10.463 13.0461 10.4594 12.9925 10.4604 12.9389C10.4604 12.862 10.4662 12.7854 10.4714 12.7084C10.4779 12.6145 10.4875 12.5207 10.5003 12.4269C10.5048 12.3945 10.5091 12.362 10.5143 12.3296C10.557 12.061 10.6257 11.7972 10.7194 11.5419C10.8273 11.2448 10.9689 10.961 11.1415 10.6962C11.2172 10.5811 11.2992 10.4691 11.3872 10.3602L11.3908 10.3557C11.4811 10.2443 11.5773 10.1378 11.6788 10.0365C12.0654 9.64559 12.526 9.33547 13.0336 9.12423C13.5413 8.91299 14.0859 8.80484 14.6357 8.80608C15.2561 8.80933 15.8682 8.94933 16.4283 9.2161C16.9885 9.48286 17.4829 9.86984 17.8764 10.3495L17.8807 10.3553C17.9677 10.4618 18.0495 10.5722 18.1251 10.6858C18.2994 10.9499 18.4426 11.2331 18.552 11.5299C18.5953 11.6442 18.6331 11.7604 18.6653 11.8786L18.6673 11.887C18.6987 12.0002 18.7252 12.1152 18.7468 12.2318C18.7524 12.261 18.7553 12.2909 18.7601 12.3205C18.7754 12.4127 18.7897 12.5052 18.7985 12.599C18.8105 12.7273 18.8176 12.8565 18.8176 12.9886C18.8167 13.247 18.7924 13.5047 18.7449 13.7587C18.6806 14.1008 18.5733 14.4334 18.4254 14.7486C18.375 14.8568 18.3201 14.9627 18.2608 15.0664L18.2517 15.081C18.1955 15.1784 18.1354 15.2735 18.0716 15.3664C18.0518 15.3946 18.0303 15.4216 18.0099 15.4495C17.9586 15.5199 17.907 15.5901 17.8508 15.6576C17.769 15.755 17.6833 15.8524 17.5911 15.9423C16.8047 16.7222 15.742 17.1598 14.6344 17.1598C13.5269 17.1598 12.4642 16.7222 11.6778 15.9423C11.586 15.85 11.4985 15.7533 11.4158 15.6527C11.3665 15.5927 11.3213 15.53 11.2759 15.468C11.2489 15.4316 11.2213 15.3959 11.196 15.3592C11.1384 15.2749 11.0843 15.1882 11.0337 15.0995L11.0123 15.0628C10.956 14.9637 10.9038 14.8632 10.8558 14.7612C10.7064 14.4455 10.5973 14.1123 10.5311 13.7694L10.5318 13.771Z" fill="url(#paint2_linear_133_1441)"/>
<path d="M16.4623 11.4253H12.8161C12.5636 11.4253 12.3589 11.6299 12.3589 11.8824V11.8886C12.3589 12.141 12.5636 12.3457 12.8161 12.3457H16.4623C16.7147 12.3457 16.9194 12.141 16.9194 11.8886V11.8824C16.9194 11.6299 16.7147 11.4253 16.4623 11.4253Z" fill="url(#paint3_linear_133_1441)"/>
<path d="M12.8122 14.6186H15.0987C15.1609 14.623 15.2234 14.6145 15.2823 14.5938C15.3411 14.573 15.395 14.5403 15.4407 14.4978C15.4863 14.4552 15.5227 14.4038 15.5476 14.3465C15.5725 14.2893 15.5853 14.2276 15.5853 14.1652C15.5853 14.1028 15.5725 14.0411 15.5476 13.9839C15.5227 13.9267 15.4863 13.8752 15.4407 13.8327C15.395 13.7901 15.3411 13.7574 15.2823 13.7367C15.2234 13.7159 15.1609 13.7074 15.0987 13.7118H12.8122C12.6975 13.72 12.5901 13.7713 12.5117 13.8554C12.4334 13.9395 12.3898 14.0502 12.3898 14.1652C12.3898 14.2802 12.4334 14.3909 12.5117 14.475C12.5901 14.5592 12.6975 14.6105 12.8122 14.6186Z" fill="url(#paint4_linear_133_1441)"/>
<defs>
<linearGradient id="paint0_linear_133_1441" x1="24.9298" y1="1.75523" x2="0.328124" y2="26.4606" gradientUnits="userSpaceOnUse">
<stop stop-color="#56CCF2"/>
<stop offset="1" stop-color="#2F80ED"/>
</linearGradient>
<linearGradient id="paint1_linear_133_1441" x1="27.7435" y1="4.10806" x2="6.50344" y2="33.8469" gradientUnits="userSpaceOnUse">
<stop stop-color="#56CCF2"/>
<stop offset="1" stop-color="#2F80ED"/>
</linearGradient>
<linearGradient id="paint2_linear_133_1441" x1="24.4444" y1="7.29531" x2="7.31807" y2="25.7828" gradientUnits="userSpaceOnUse">
<stop stop-color="#56CCF2"/>
<stop offset="1" stop-color="#2F80ED"/>
</linearGradient>
<linearGradient id="paint3_linear_133_1441" x1="16.6891" y1="11.4721" x2="16.3579" y2="13.2442" gradientUnits="userSpaceOnUse">
<stop stop-color="#56CCF2"/>
<stop offset="1" stop-color="#2F80ED"/>
</linearGradient>
<linearGradient id="paint4_linear_133_1441" x1="15.424" y1="13.7569" x2="14.9778" y2="15.4507" gradientUnits="userSpaceOnUse">
<stop stop-color="#56CCF2"/>
<stop offset="1" stop-color="#2F80ED"/>
</linearGradient>
</defs>
</svg>
