<svg width="19" height="26" viewBox="0 0 19 26" fill="none" xmlns="http://www.w3.org/2000/svg">
<path d="M10.9375 10.4758H10.036V14.5624H10.9375V10.4758Z" fill="url(#paint0_linear_133_1433)"/>
<path d="M7.21154 11.9785H6.25V14.5627H7.21154V11.9785Z" fill="url(#paint1_linear_133_1433)"/>
<path d="M14.6034 4.34605H17.7002L14.6034 1.12231V4.34605Z" fill="url(#paint2_linear_133_1433)"/>
<path d="M3.42549 13.4807H2.52405V14.5624H3.42549V13.4807Z" fill="url(#paint3_linear_133_1433)"/>
<path d="M0 0.5V25.5H18.2692V5.1875H14.1745C14.1201 5.18815 14.0661 5.17789 14.0157 5.15732C13.9653 5.13676 13.9195 5.1063 13.881 5.06776C13.8426 5.02922 13.8122 4.98337 13.7918 4.93291C13.7714 4.88245 13.7612 4.82841 13.762 4.77398V0.5H0ZM1.36094 9.45661C1.32267 9.41674 1.29264 9.36972 1.27255 9.31824C1.25246 9.26676 1.24271 9.21182 1.24386 9.15657C1.24501 9.10132 1.25704 9.04684 1.27925 8.99623C1.30146 8.94563 1.33343 8.8999 1.37332 8.86166L4.26683 6.08618C4.34289 6.01322 4.44356 5.97148 4.54892 5.96919C4.65429 5.96691 4.75667 6.00426 4.83582 6.07386L7.27091 8.21538L10.657 5.56929L8.94099 5.44669C8.88565 5.44306 8.83159 5.42852 8.7819 5.40391C8.73221 5.3793 8.68787 5.34511 8.65144 5.30331C8.61501 5.26151 8.5872 5.21291 8.56962 5.16032C8.55203 5.10773 8.54502 5.05219 8.54898 4.99688C8.55294 4.94157 8.5678 4.88759 8.5927 4.83804C8.61759 4.7885 8.65204 4.74436 8.69406 4.70817C8.73607 4.67199 8.78483 4.64447 8.83752 4.62719C8.89021 4.60992 8.9458 4.60323 9.00108 4.60751L11.8272 4.80937C11.8825 4.81332 11.9365 4.82816 11.9861 4.85304C12.0356 4.87792 12.0797 4.91235 12.1159 4.95435C12.1521 4.99635 12.1797 5.04509 12.197 5.09776C12.2143 5.15044 12.221 5.20602 12.2167 5.2613L12.0146 7.88582C12.0065 7.99141 11.9588 8.09006 11.8812 8.16206C11.8035 8.23405 11.7015 8.27411 11.5956 8.27422C11.5848 8.27422 11.5739 8.2738 11.5629 8.27296C11.5078 8.26872 11.4541 8.25367 11.4048 8.22867C11.3555 8.20367 11.3117 8.16922 11.2757 8.12727C11.2398 8.08532 11.2124 8.0367 11.1953 7.98419C11.1781 7.93167 11.1715 7.8763 11.1757 7.82121L11.3058 6.13017L7.51376 9.09339C7.43649 9.15377 7.34055 9.18525 7.24252 9.18239C7.1445 9.17954 7.05055 9.14253 6.97692 9.07776L4.57007 6.96106L1.95547 9.46923C1.9156 9.5075 1.86858 9.53753 1.8171 9.55762C1.76561 9.57771 1.71068 9.58746 1.65543 9.58631C1.60018 9.58516 1.54569 9.57313 1.49509 9.55092C1.44449 9.52871 1.39876 9.49674 1.36052 9.45685L1.36094 9.45661ZM9.9476 18.2284C10.0592 18.2284 10.1662 18.2727 10.2451 18.3516C10.3239 18.4305 10.3683 18.5375 10.3683 18.649C10.3683 18.7606 10.3239 18.8676 10.2451 18.9465C10.1662 19.0254 10.0592 19.0697 9.9476 19.0697H2.73353C2.62196 19.0697 2.51496 19.0254 2.43607 18.9465C2.35718 18.8676 2.31286 18.7606 2.31286 18.649C2.31286 18.5375 2.35718 18.4305 2.43607 18.3516C2.51496 18.2727 2.62196 18.2284 2.73353 18.2284H9.9476ZM5.40865 14.9832V11.5577C5.40865 11.4461 5.45297 11.3391 5.53187 11.2602C5.61076 11.1813 5.71776 11.137 5.82933 11.137H7.57211C7.68368 11.137 7.79068 11.1813 7.86958 11.2602C7.94847 11.3391 7.99279 11.4461 7.99279 11.5577V14.9832C7.99279 15.0947 7.94847 15.2017 7.86958 15.2806C7.79068 15.3595 7.68368 15.4038 7.57211 15.4038H5.82933C5.71776 15.4038 5.61076 15.3595 5.53187 15.2806C5.45297 15.2017 5.40865 15.0947 5.40865 14.9832ZM9.61538 15.4038C9.50381 15.4038 9.39682 15.3595 9.31792 15.2806C9.23903 15.2017 9.19471 15.0947 9.19471 14.9832V10.0553C9.19471 9.94372 9.23903 9.83672 9.31792 9.75783C9.39682 9.67894 9.50381 9.63461 9.61538 9.63461H11.3582C11.4697 9.63461 11.5767 9.67894 11.6556 9.75783C11.7345 9.83672 11.7788 9.94372 11.7788 10.0553V14.9832C11.7788 15.0947 11.7345 15.2017 11.6556 15.2806C11.5767 15.3595 11.4697 15.4038 11.3582 15.4038H9.61538ZM1.68269 14.9832V13.0601C1.68269 12.9485 1.72701 12.8415 1.8059 12.7626C1.8848 12.6837 1.9918 12.6394 2.10337 12.6394H3.84615C3.95772 12.6394 4.06472 12.6837 4.14361 12.7626C4.22251 12.8415 4.26683 12.9485 4.26683 13.0601V14.9832C4.26683 15.0947 4.22251 15.2017 4.14361 15.2806C4.06472 15.3595 3.95772 15.4038 3.84615 15.4038H2.10337C1.9918 15.4038 1.8848 15.3595 1.8059 15.2806C1.72701 15.2017 1.68269 15.0947 1.68269 14.9832ZM15.1863 21.2933C15.2979 21.2933 15.4049 21.3376 15.4838 21.4165C15.5626 21.4954 15.607 21.6024 15.607 21.7139C15.607 21.8255 15.5626 21.9325 15.4838 22.0114C15.4049 22.0903 15.2979 22.1346 15.1863 22.1346H2.73353C2.62196 22.1346 2.51496 22.0903 2.43607 22.0114C2.35718 21.9325 2.31286 21.8255 2.31286 21.7139C2.31286 21.6024 2.35718 21.4954 2.43607 21.4165C2.51496 21.3376 2.62196 21.2933 2.73353 21.2933H15.1863Z" fill="url(#paint4_linear_133_1433)"/>
<defs>
<linearGradient id="paint0_linear_133_1433" x1="10.892" y1="10.6836" x2="9.05626" y2="11.1209" gradientUnits="userSpaceOnUse">
<stop stop-color="#56CCF2"/>
<stop offset="1" stop-color="#2F80ED"/>
</linearGradient>
<linearGradient id="paint1_linear_133_1433" x1="7.16299" y1="12.1099" x2="5.38146" y2="12.8258" gradientUnits="userSpaceOnUse">
<stop stop-color="#56CCF2"/>
<stop offset="1" stop-color="#2F80ED"/>
</linearGradient>
<linearGradient id="paint2_linear_133_1433" x1="17.5439" y1="1.28619" x2="14.3342" y2="4.61614" gradientUnits="userSpaceOnUse">
<stop stop-color="#56CCF2"/>
<stop offset="1" stop-color="#2F80ED"/>
</linearGradient>
<linearGradient id="paint3_linear_133_1433" x1="3.37997" y1="13.5357" x2="2.30819" y2="14.5003" gradientUnits="userSpaceOnUse">
<stop stop-color="#56CCF2"/>
<stop offset="1" stop-color="#2F80ED"/>
</linearGradient>
<linearGradient id="paint4_linear_133_1433" x1="17.3467" y1="1.77084" x2="-6.87916" y2="20.8901" gradientUnits="userSpaceOnUse">
<stop stop-color="#56CCF2"/>
<stop offset="1" stop-color="#2F80ED"/>
</linearGradient>
</defs>
</svg>
