<svg width="20" height="20" viewBox="0 0 20 20" fill="none" xmlns="http://www.w3.org/2000/svg">
<path d="M17.1413 15.896L16.6747 15.4213L16.4013 15.688L16.4947 16.0573L17.1413 15.8973V15.896ZM18 19.3333L17.8387 19.98C17.9503 20.0078 18.0672 20.0062 18.178 19.9755C18.2888 19.9447 18.3898 19.8858 18.4712 19.8045C18.5525 19.7232 18.6114 19.6222 18.6421 19.5113C18.6729 19.4005 18.6745 19.2836 18.6467 19.172L18 19.332V19.3333ZM12.6667 18L12.1947 17.528L11.3627 18.3613L12.5053 18.6467L12.6667 18ZM12.7 17.9667L13.1707 18.4387C13.268 18.3417 13.3329 18.2171 13.3567 18.0819C13.3805 17.9467 13.362 17.8074 13.3036 17.683C13.2453 17.5587 13.1499 17.4555 13.0307 17.3874C12.9114 17.3193 12.774 17.2897 12.6373 17.3027L12.7 17.9667ZM9.33333 0V3.33333H10.6667V0H9.33333ZM12 2.66667H8V4H12V2.66667ZM20 10.6667C20 8.54493 19.1571 6.5101 17.6569 5.00981C16.1566 3.50952 14.1217 2.66667 12 2.66667V4C12.8755 4 13.7424 4.17244 14.5512 4.50747C15.3601 4.8425 16.095 5.33356 16.714 5.95262C17.3331 6.57168 17.8242 7.30661 18.1592 8.11544C18.4942 8.92428 18.6667 9.79119 18.6667 10.6667H20ZM17.608 16.372C18.3667 15.628 18.9691 14.74 19.3798 13.76C19.7906 12.7801 20.0014 11.7292 20 10.6667H18.6667C18.6681 11.5523 18.4926 12.4279 18.1502 13.2446C17.8079 14.0614 17.3071 14.8014 16.6747 15.4213L17.608 16.372ZM18.648 19.172L17.7867 15.7333L16.4933 16.056L17.352 19.4933L18.6453 19.1707L18.648 19.172ZM12.5053 18.6467L17.8387 19.98L18.1613 18.6867L12.828 17.3533L12.5053 18.6467ZM12.228 17.496L12.1947 17.528L13.1387 18.4707L13.1707 18.4387L12.228 17.496ZM12 18.6667C12.2573 18.6667 12.512 18.6533 12.7627 18.6307L12.6373 17.3027C12.4255 17.3229 12.2128 17.3332 12 17.3333V18.6667ZM8 18.6667H12V17.3333H8V18.6667ZM0 10.6667C0 12.7884 0.842855 14.8232 2.34315 16.3235C3.84344 17.8238 5.87827 18.6667 8 18.6667V17.3333C7.12452 17.3333 6.25761 17.1609 5.44878 16.8259C4.63994 16.4908 3.90501 15.9998 3.28595 15.3807C2.03571 14.1305 1.33333 12.4348 1.33333 10.6667H0ZM8 2.66667C5.87827 2.66667 3.84344 3.50952 2.34315 5.00981C0.842855 6.5101 0 8.54493 0 10.6667H1.33333C1.33333 8.89856 2.03571 7.20286 3.28595 5.95262C4.5362 4.70238 6.23189 4 8 4V2.66667ZM10 10.6667C9.46957 10.6667 8.96086 10.456 8.58579 10.0809C8.21071 9.70581 8 9.1971 8 8.66667H6.66667C6.66667 9.55072 7.01786 10.3986 7.64298 11.0237C8.2681 11.6488 9.11594 12 10 12V10.6667ZM12 8.66667C12 9.1971 11.7893 9.70581 11.4142 10.0809C11.0391 10.456 10.5304 10.6667 10 10.6667V12C10.8841 12 11.7319 11.6488 12.357 11.0237C12.9821 10.3986 13.3333 9.55072 13.3333 8.66667H12ZM10 6.66667C10.5304 6.66667 11.0391 6.87738 11.4142 7.25245C11.7893 7.62753 12 8.13623 12 8.66667H13.3333C13.3333 7.78261 12.9821 6.93476 12.357 6.30964C11.7319 5.68452 10.8841 5.33333 10 5.33333V6.66667ZM10 5.33333C9.11594 5.33333 8.2681 5.68452 7.64298 6.30964C7.01786 6.93476 6.66667 7.78261 6.66667 8.66667H8C8 8.13623 8.21071 7.62753 8.58579 7.25245C8.96086 6.87738 9.46957 6.66667 10 6.66667V5.33333ZM10 16C11.4187 16 12.7227 15.5067 13.7507 14.684L12.916 13.644C12.116 14.284 11.104 14.6667 10 14.6667V16ZM6.24933 14.684C7.276 15.5067 8.58267 16 10 16V14.6667C8.93976 14.6686 7.91076 14.3078 7.084 13.644L6.24933 14.684Z" fill="black"/>
</svg>
