<svg width="20" height="27" viewBox="0 0 20 27" fill="none" xmlns="http://www.w3.org/2000/svg">
<path d="M9.81895 16.8149C12.0524 16.8149 13.8418 15.0121 13.8418 12.7786L13.8553 4.706C13.8553 2.47257 12.0524 0.669678 9.81895 0.669678C7.58552 0.669678 5.78264 2.47257 5.78264 4.706V12.7786C5.78264 15.0121 7.58552 16.8149 9.81895 16.8149ZM16.9498 12.7786C16.9498 16.8149 13.5324 19.6404 9.81895 19.6404C6.10554 19.6404 2.68813 16.8149 2.68813 12.7786H0.400879C0.400879 17.3666 4.06047 21.1607 8.47351 21.82V26.233H11.1644V21.82C15.5774 21.1742 19.237 17.38 19.237 12.7786H16.9498Z" fill="white"/>
</svg>
