<svg width="19" height="19" viewBox="0 0 19 19" fill="none" xmlns="http://www.w3.org/2000/svg">
<path fill-rule="evenodd" clip-rule="evenodd" d="M0 1.90119C0 0.849198 0.849933 0 1.9 0H17.1C18.1501 0 19 0.849198 19 1.90119V13.2995C19 14.3514 18.1501 15.2006 17.1 15.2006H12.3728L10.0269 18.7178C9.9691 18.8046 9.89074 18.8758 9.79882 18.925C9.7069 18.9742 9.60425 19 9.5 19C9.39575 19 9.2931 18.9742 9.20118 18.925C9.10926 18.8758 9.0309 18.8046 8.97307 18.7178L6.62847 15.2006H1.9C0.849933 15.2006 0 14.3514 0 13.2995V1.90119ZM11.5849 11.2221L9.5 9.13458L7.41507 11.2221L6.51827 10.3247L8.60447 8.23849L6.51827 6.15225L7.41507 5.25489L9.5 7.3424L11.5849 5.25489L12.4817 6.15225L10.3955 8.23849L12.4817 10.3247L11.5849 11.2221Z" fill="#919191"/>
</svg>
