<svg width="28" height="20" viewBox="0 0 28 20" fill="none" xmlns="http://www.w3.org/2000/svg">
<path d="M9.5 0C8.57288 0.00368642 7.68478 0.373619 7.0292 1.0292C6.37362 1.68478 6.00369 2.57288 6 3.5C6 5.422 7.578 7 9.5 7C11.422 7 13 5.422 13 3.5C13 1.578 11.422 0 9.5 0ZM18.5 0C17.5729 0.00368642 16.6848 0.373619 16.0292 1.0292C15.3736 1.68478 15.0037 2.57288 15 3.5C15 5.422 16.578 7 18.5 7C20.422 7 22 5.422 22 3.5C22 1.578 20.422 0 18.5 0ZM9.5 2C10.34 2 11 2.66 11 3.5C11 4.34 10.34 5 9.5 5C8.66 5 8 4.34 8 3.5C8 2.66 8.66 2 9.5 2ZM18.5 2C19.34 2 20 2.66 20 3.5C20 4.34 19.34 5 18.5 5C17.66 5 17 4.34 17 3.5C17 2.66 17.66 2 18.5 2ZM5 6C2.8 6 1 7.8 1 10C1 10.2467 1.02344 10.4881 1.06801 10.7223C1.3047 11.9659 1.18979 13.5298 0.593532 14.6465C0.364755 15.075 0.200008 15.5327 0.102967 16.0051C-0.00824599 16.5465 0.44913 17 1.00183 17C1.5531 17 1.98336 16.5411 2.16133 16.0193C2.56389 14.8391 3.67611 14 5 14C5.96415 14 6.81604 14.445 7.36331 15.1428C8.045 16.0119 8.89543 17 10 17C9.99699 16.1788 9.79323 15.3709 9.40647 14.6465C8.81021 13.5298 8.69553 11.966 8.93205 10.7223C8.97658 10.4882 9 10.2468 9 10C9 7.8 7.2 6 5 6ZM10 17C9.56495 17.5819 9.25103 18.268 9.1004 19.0067C8.99005 19.5479 9.44771 20 10 20C10.5523 20 10.9833 19.5402 11.1619 19.0176C11.565 17.8383 12.6768 17 14 17C15.3235 17 16.4355 17.8386 16.8383 19.0183C17.0167 19.5406 17.4474 20 17.9992 20C18.5517 20 19.0093 19.5473 18.8991 19.006C18.7519 18.2831 18.4465 17.5974 18 17C17.4769 16.303 17.3902 15.2615 17.7167 14.4535C17.8987 14.0034 18 13.5135 18 13C18 10.8 16.2 9 14 9C11.8 9 10 10.8 10 13C10 13.5131 10.1014 14.0031 10.2834 14.4535C10.6098 15.261 10.5233 16.3038 10 17ZM18 17C19.1046 17 19.955 16.0119 20.6367 15.1428C21.184 14.445 22.0358 14 23 14C24.3239 14 25.4361 14.8391 25.8387 16.0193C26.0166 16.5411 26.4469 17 26.9982 17C27.5509 17 28.0082 16.5465 27.897 16.0051C27.8 15.5327 27.6352 15.075 27.4065 14.6465C26.8102 13.5298 26.6955 11.966 26.9321 10.7223C26.9766 10.4882 27 10.2468 27 10C27 7.8 25.2 6 23 6C20.8 6 19 7.8 19 10C19 10.2467 19.0234 10.4881 19.068 10.7223C19.3047 11.9659 19.1898 13.5298 18.5935 14.6465C18.2068 15.3709 18.003 16.1788 18 17ZM5 8C6.117 8 7 8.883 7 10C7 11.117 6.117 12 5 12C3.883 12 3 11.117 3 10C3 8.883 3.883 8 5 8ZM23 8C24.117 8 25 8.883 25 10C25 11.117 24.117 12 23 12C21.883 12 21 11.117 21 10C21 8.883 21.883 8 23 8ZM14 11C15.117 11 16 11.883 16 13C16 14.117 15.117 15 14 15C12.883 15 12 14.117 12 13C12 11.883 12.883 11 14 11Z" fill="#919191"/>
</svg>
