<svg width="10" height="19" viewBox="0 0 10 19" fill="none" xmlns="http://www.w3.org/2000/svg">
<path d="M5 0.912109C4.8102 0.912109 4.62817 0.987508 4.49396 1.12172C4.35975 1.25593 4.28436 1.43795 4.28436 1.62775L4.28436 15.6444L1.21281 12.5728C1.07784 12.4425 0.897064 12.3703 0.709425 12.372C0.521786 12.3736 0.342293 12.4488 0.209606 12.5815C0.0769205 12.7142 0.00165749 12.8937 2.67029e-05 13.0814C-0.00160408 13.269 0.070529 13.4498 0.20089 13.5847L4.49475 17.8786C4.56059 17.9448 4.63887 17.9974 4.72509 18.0332C4.8113 18.0691 4.90376 18.0876 4.99714 18.0876H5C5.09303 18.0876 5.18607 18.069 5.27338 18.0318C5.36014 17.9961 5.43895 17.9435 5.50524 17.8772L9.79911 13.5833C9.92947 13.4483 10.0016 13.2676 9.99997 13.0799C9.99834 12.8923 9.92308 12.7128 9.79039 12.5801C9.65771 12.4474 9.47821 12.3722 9.29057 12.3705C9.10293 12.3689 8.92216 12.441 8.78719 12.5714L5.71564 15.6444L5.71564 1.62775C5.71564 1.43795 5.64025 1.25593 5.50604 1.12172C5.37183 0.987508 5.1898 0.912109 5 0.912109Z" fill="white"/>
</svg>
