<svg width="21" height="21" viewBox="0 0 21 21" fill="none" xmlns="http://www.w3.org/2000/svg">
<path d="M20.3055 8.5415H19.5V8.5H10.5V12.5H16.1515C15.327 14.8285 13.1115 16.5 10.5 16.5C7.1865 16.5 4.5 13.8135 4.5 10.5C4.5 7.1865 7.1865 4.5 10.5 4.5C12.0295 4.5 13.421 5.077 14.4805 6.0195L17.309 3.191C15.523 1.5265 13.134 0.5 10.5 0.5C4.9775 0.5 0.5 4.9775 0.5 10.5C0.5 16.0225 4.9775 20.5 10.5 20.5C16.0225 20.5 20.5 16.0225 20.5 10.5C20.5 9.8295 20.431 9.175 20.3055 8.5415Z" fill="#FFC107"/>
<path d="M1.65302 5.8455L4.93851 8.255C5.82752 6.054 7.98052 4.5 10.5 4.5C12.0295 4.5 13.421 5.077 14.4805 6.0195L17.309 3.191C15.523 1.5265 13.134 0.5 10.5 0.5C6.65902 0.5 3.32802 2.6685 1.65302 5.8455Z" fill="#FF3D00"/>
<path d="M10.5 20.4999C13.083 20.4999 15.43 19.5114 17.2045 17.9039L14.1095 15.2849C13.0718 16.074 11.8038 16.5009 10.5 16.4999C7.89903 16.4999 5.69053 14.8414 4.85853 12.5269L1.59753 15.0394C3.25253 18.2779 6.61353 20.4999 10.5 20.4999Z" fill="#4CAF50"/>
<path d="M20.3055 8.5415H19.5V8.5H10.5V12.5H16.1515C15.7571 13.6082 15.0467 14.5766 14.108 15.2855L14.1095 15.2845L17.2045 17.9035C16.9855 18.1025 20.5 15.5 20.5 10.5C20.5 9.8295 20.431 9.175 20.3055 8.5415Z" fill="#1976D2"/>
</svg>
