<svg width="27" height="21" viewBox="0 0 27 21" fill="none" xmlns="http://www.w3.org/2000/svg">
<path d="M8.24817 10.5L0 16.7731V4.22692L8.24817 10.5ZM18.7518 10.5L27 16.7731V4.22692L18.7518 10.5ZM17.5467 11.4192L13.8589 14.2231C13.7502 14.3038 13.6251 14.3462 13.5 14.3462C13.3749 14.3462 13.2498 14.3038 13.1411 14.2231L9.45329 11.4192L0.546585 18.1923L0.0296342 18.5846C0.190976 19.6692 1.00098 20.5 1.97561 20.5H25.0244C25.999 20.5 26.809 19.6731 26.9704 18.5846L26.4501 18.1923L17.5467 11.4192ZM13.5 12.6577L26.4501 2.80769L26.9704 2.41538C26.809 1.32692 25.999 0.5 25.0244 0.5H1.97561C1.00098 0.5 0.190976 1.33077 0.0296342 2.41538L0.546585 2.80769L13.5 12.6577Z" fill="#888888"/>
</svg>
