<svg width="51" height="50" viewBox="0 0 51 50" fill="none" xmlns="http://www.w3.org/2000/svg">
<path d="M47.375 28.9062V32.0312C47.375 33.2745 46.8811 34.4667 46.0021 35.3458C45.123 36.2249 43.9307 36.7188 42.6875 36.7188H8.3125C7.0693 36.7188 5.87701 36.2249 4.99794 35.3458C4.11886 34.4667 3.625 33.2745 3.625 32.0312V28.9062H47.375Z" fill="#54A5FF"/>
<path d="M33.54 46.0938H17.4619L20.6807 36.7188H30.3213L33.54 46.0938Z" fill="#4795EA"/>
<path d="M26.2812 33.5938H24.7188C24.5115 33.5938 24.3128 33.5114 24.1663 33.3649C24.0198 33.2184 23.9375 33.0197 23.9375 32.8125C23.9375 32.6053 24.0198 32.4066 24.1663 32.2601C24.3128 32.1136 24.5115 32.0312 24.7188 32.0312H26.2812C26.4885 32.0312 26.6872 32.1136 26.8337 32.2601C26.9802 32.4066 27.0625 32.6053 27.0625 32.8125C27.0625 33.0197 26.9802 33.2184 26.8337 33.3649C26.6872 33.5114 26.4885 33.5938 26.2812 33.5938Z" fill="url(#paint0_linear_193_4330)"/>
<path d="M47.375 8.59375V28.9062H3.625V8.59375C3.625 7.35055 4.11886 6.15826 4.99794 5.27919C5.87701 4.40011 7.0693 3.90625 8.3125 3.90625H42.6875C43.9307 3.90625 45.123 4.40011 46.0021 5.27919C46.8811 6.15826 47.375 7.35055 47.375 8.59375Z" fill="url(#paint1_linear_193_4330)"/>
<path d="M26.2812 33.5938H24.7188C24.5115 33.5938 24.3128 33.5114 24.1663 33.3649C24.0198 33.2184 23.9375 33.0197 23.9375 32.8125C23.9375 32.6053 24.0198 32.4066 24.1663 32.2601C24.3128 32.1136 24.5115 32.0312 24.7188 32.0312H26.2812C26.4885 32.0312 26.6872 32.1136 26.8337 32.2601C26.9802 32.4066 27.0625 32.6053 27.0625 32.8125C27.0625 33.0197 26.9802 33.2184 26.8337 33.3649C26.6872 33.5114 26.4885 33.5938 26.2812 33.5938Z" fill="url(#paint2_linear_193_4330)"/>
<path d="M47.375 8.59375V28.9062H3.625V8.59375C3.625 7.35055 4.11886 6.15826 4.99794 5.27919C5.87701 4.40011 7.0693 3.90625 8.3125 3.90625H42.6875C43.9307 3.90625 45.123 4.40011 46.0021 5.27919C46.8811 6.15826 47.375 7.35055 47.375 8.59375Z" fill="url(#paint3_linear_193_4330)"/>
<path d="M34.875 46.875H16.125C15.9178 46.875 15.7191 46.7927 15.5726 46.6462C15.4261 46.4997 15.3438 46.301 15.3438 46.0938C15.3438 45.8865 15.4261 45.6878 15.5726 45.5413C15.7191 45.3948 15.9178 45.3125 16.125 45.3125H34.875C35.0822 45.3125 35.2809 45.3948 35.4274 45.5413C35.5739 45.6878 35.6562 45.8865 35.6562 46.0938C35.6562 46.301 35.5739 46.4997 35.4274 46.6462C35.2809 46.7927 35.0822 46.875 34.875 46.875Z" fill="#0668CB"/>
<path d="M40.3438 7.8125V12.5H10.6562V7.8125C10.6562 7.3981 10.8209 7.00067 11.1139 6.70765C11.4069 6.41462 11.8043 6.25 12.2188 6.25H38.7812C39.1957 6.25 39.5931 6.41462 39.8861 6.70765C40.1791 7.00067 40.3438 7.3981 40.3438 7.8125Z" fill="url(#paint4_linear_193_4330)"/>
<path d="M40.3438 12.5V25C40.3438 25.4144 40.1791 25.8118 39.8861 26.1049C39.5931 26.3979 39.1957 26.5625 38.7812 26.5625H12.2188C11.8043 26.5625 11.4069 26.3979 11.1139 26.1049C10.8209 25.8118 10.6562 25.4144 10.6562 25V12.5H40.3438Z" fill="#F0F7FC"/>
<path d="M14.5625 10.1562H13.7812C13.574 10.1562 13.3753 10.0739 13.2288 9.92743C13.0823 9.78091 13 9.5822 13 9.375C13 9.1678 13.0823 8.96909 13.2288 8.82257C13.3753 8.67606 13.574 8.59375 13.7812 8.59375H14.5625C14.7697 8.59375 14.9684 8.67606 15.1149 8.82257C15.2614 8.96909 15.3438 9.1678 15.3438 9.375C15.3438 9.5822 15.2614 9.78091 15.1149 9.92743C14.9684 10.0739 14.7697 10.1562 14.5625 10.1562Z" fill="#FE9661"/>
<path d="M18.4688 10.1562H17.6875C17.4803 10.1562 17.2816 10.0739 17.1351 9.92743C16.9886 9.78091 16.9062 9.5822 16.9062 9.375C16.9062 9.1678 16.9886 8.96909 17.1351 8.82257C17.2816 8.67606 17.4803 8.59375 17.6875 8.59375H18.4688C18.676 8.59375 18.8747 8.67606 19.0212 8.82257C19.1677 8.96909 19.25 9.1678 19.25 9.375C19.25 9.5822 19.1677 9.78091 19.0212 9.92743C18.8747 10.0739 18.676 10.1562 18.4688 10.1562Z" fill="#54A5FF"/>
<path d="M22.375 10.1562H21.5938C21.3865 10.1562 21.1878 10.0739 21.0413 9.92743C20.8948 9.78091 20.8125 9.5822 20.8125 9.375C20.8125 9.1678 20.8948 8.96909 21.0413 8.82257C21.1878 8.67606 21.3865 8.59375 21.5938 8.59375H22.375C22.5822 8.59375 22.7809 8.67606 22.9274 8.82257C23.0739 8.96909 23.1562 9.1678 23.1562 9.375C23.1562 9.5822 23.0739 9.78091 22.9274 9.92743C22.7809 10.0739 22.5822 10.1562 22.375 10.1562Z" fill="#D7E9F7"/>
<path d="M35.6562 19.5312H34.0938V17.9688C34.0938 17.7615 34.0114 17.5628 33.8649 17.4163C33.7184 17.2698 33.5197 17.1875 33.3125 17.1875C33.1053 17.1875 32.9066 17.2698 32.7601 17.4163C32.6136 17.5628 32.5312 17.7615 32.5312 17.9688V19.5312H30.9688C30.7615 19.5312 30.5628 19.6136 30.4163 19.7601C30.2698 19.9066 30.1875 20.1053 30.1875 20.3125C30.1875 20.5197 30.2698 20.7184 30.4163 20.8649C30.5628 21.0114 30.7615 21.0938 30.9688 21.0938H32.5312V22.6562C32.5312 22.8635 32.6136 23.0622 32.7601 23.2087C32.9066 23.3552 33.1053 23.4375 33.3125 23.4375C33.5197 23.4375 33.7184 23.3552 33.8649 23.2087C34.0114 23.0622 34.0938 22.8635 34.0938 22.6562V21.0938H35.6562C35.8635 21.0938 36.0622 21.0114 36.2087 20.8649C36.3552 20.7184 36.4375 20.5197 36.4375 20.3125C36.4375 20.1053 36.3552 19.9066 36.2087 19.7601C36.0622 19.6136 35.8635 19.5312 35.6562 19.5312ZM27.8438 19.5312H26.2812V17.9688C26.2812 17.7615 26.1989 17.5628 26.0524 17.4163C25.9059 17.2698 25.7072 17.1875 25.5 17.1875C25.2928 17.1875 25.0941 17.2698 24.9476 17.4163C24.8011 17.5628 24.7188 17.7615 24.7188 17.9688V19.5312H23.1562C22.949 19.5312 22.7503 19.6136 22.6038 19.7601C22.4573 19.9066 22.375 20.1053 22.375 20.3125C22.375 20.5197 22.4573 20.7184 22.6038 20.8649C22.7503 21.0114 22.949 21.0938 23.1562 21.0938H24.7188V22.6562C24.7188 22.8635 24.8011 23.0622 24.9476 23.2087C25.0941 23.3552 25.2928 23.4375 25.5 23.4375C25.7072 23.4375 25.9059 23.3552 26.0524 23.2087C26.1989 23.0622 26.2812 22.8635 26.2812 22.6562V21.0938H27.8438C28.051 21.0938 28.2497 21.0114 28.3962 20.8649C28.5427 20.7184 28.625 20.5197 28.625 20.3125C28.625 20.1053 28.5427 19.9066 28.3962 19.7601C28.2497 19.6136 28.051 19.5312 27.8438 19.5312Z" fill="#B4CDE1"/>
<path d="M21.2891 23.1797C20.8914 23.3494 20.4636 23.4371 20.0312 23.4375C19.2024 23.4375 18.4076 23.1083 17.8215 22.5222C17.2355 21.9362 16.9062 21.1413 16.9062 20.3125C16.9062 19.4837 17.2355 18.6888 17.8215 18.1028C18.4076 17.5167 19.2024 17.1875 20.0312 17.1875C20.4636 17.1879 20.8914 17.2756 21.2891 17.4453C21.4779 17.5169 21.6872 17.5125 21.8729 17.4332C22.0586 17.3538 22.2064 17.2056 22.2852 17.0197C22.364 16.8337 22.3678 16.6245 22.2957 16.4358C22.2235 16.2472 22.0812 16.0938 21.8984 16.0078C21.3078 15.757 20.6729 15.6268 20.0312 15.625C18.788 15.625 17.5958 16.1189 16.7167 16.9979C15.8376 17.877 15.3438 19.0693 15.3438 20.3125C15.3438 21.5557 15.8376 22.748 16.7167 23.6271C17.5958 24.5061 18.788 25 20.0312 25C20.6729 24.9982 21.3078 24.868 21.8984 24.6172C22.0812 24.5312 22.2235 24.3778 22.2957 24.1892C22.3678 24.0005 22.364 23.7913 22.2852 23.6053C22.2064 23.4194 22.0586 23.2712 21.8729 23.1918C21.6872 23.1125 21.4779 23.1081 21.2891 23.1797Z" fill="#B4CDE1"/>
<defs>
<linearGradient id="paint0_linear_193_4330" x1="23.9375" y1="32.8125" x2="27.0625" y2="32.8125" gradientUnits="userSpaceOnUse">
<stop stop-color="#D3E6F5"/>
<stop offset="1" stop-color="#F0F7FC"/>
</linearGradient>
<linearGradient id="paint1_linear_193_4330" x1="25.5" y1="28.9062" x2="25.5" y2="3.90625" gradientUnits="userSpaceOnUse">
<stop stop-color="#D3E6F5"/>
<stop offset="1" stop-color="#F0F7FC"/>
</linearGradient>
<linearGradient id="paint2_linear_193_4330" x1="23.9375" y1="32.8125" x2="27.0625" y2="32.8125" gradientUnits="userSpaceOnUse">
<stop stop-color="#D3E6F5"/>
<stop offset="1" stop-color="#F0F7FC"/>
</linearGradient>
<linearGradient id="paint3_linear_193_4330" x1="25.5" y1="28.9062" x2="25.5" y2="3.90625" gradientUnits="userSpaceOnUse">
<stop stop-color="#D3E6F5"/>
<stop offset="1" stop-color="#F0F7FC"/>
</linearGradient>
<linearGradient id="paint4_linear_193_4330" x1="0.5" y1="12.5" x2="1.28125" y2="6.25" gradientUnits="userSpaceOnUse">
<stop stop-color="#54A5FF"/>
<stop offset="1" stop-color="#8AD3FE"/>
</linearGradient>
</defs>
</svg>
