<svg width="26" height="15" viewBox="0 0 26 15" fill="none" xmlns="http://www.w3.org/2000/svg">
<path d="M0 7.5C0 7.7847 0.113097 8.05774 0.314411 8.25906C0.515725 8.46037 0.788765 8.57347 1.07347 8.57347H22.0984L17.4911 13.1808C17.2955 13.3832 17.1873 13.6544 17.1898 13.9359C17.1922 14.2173 17.3051 14.4866 17.5041 14.6856C17.7032 14.8846 17.9724 14.9975 18.2539 15C18.5353 15.0024 18.8065 14.8942 19.0089 14.6987L25.4497 8.25787C25.5491 8.15911 25.6279 8.0417 25.6817 7.91237C25.7355 7.78305 25.7632 7.64436 25.7632 7.50429V7.5C25.7632 7.36045 25.7353 7.2209 25.6795 7.08994C25.626 6.9598 25.5471 6.84157 25.4476 6.74213L19.0068 0.301335C18.8043 0.105794 18.5332 -0.00240523 18.2517 4.05799e-05C17.9703 0.00248639 17.701 0.115381 17.502 0.314411C17.303 0.51344 17.1901 0.782679 17.1876 1.06414C17.1852 1.3456 17.2934 1.61676 17.4889 1.81922L22.0984 6.42653H1.07347C0.788765 6.42653 0.515725 6.53963 0.314411 6.74095C0.113097 6.94226 0 7.2153 0 7.5Z" fill="url(#paint0_linear_193_3691)"/>
<defs>
<linearGradient id="paint0_linear_193_3691" x1="24.4623" y1="0.762502" x2="11.9772" y2="23.9211" gradientUnits="userSpaceOnUse">
<stop stop-color="#56CCF2"/>
<stop offset="1" stop-color="#2F80ED"/>
</linearGradient>
</defs>
</svg>
