<svg width="240" height="245" viewBox="0 0 240 245" fill="none" xmlns="http://www.w3.org/2000/svg">
<path d="M212.178 210.534C207.246 215.804 202.585 219.201 198.899 221.894C155.597 253.469 104.352 244.267 93.4606 242.011C77.3824 238.694 46.2878 232.274 23.8204 205.424C-10.1791 164.789 -4.88693 100.783 21.4859 58.5341C26.3129 50.803 51.7906 7.91211 103.588 1.02816C134.938 -3.1361 171.473 5.26375 197.934 27.7882C253.479 75.0663 249.53 170.586 212.178 210.534Z" fill="#EAF2FD"/>
<path d="M214.827 132.019C212.755 179.213 169.78 215.663 118.836 213.422C67.8927 211.188 28.2717 171.12 30.3443 123.919C32.4169 76.7257 75.3921 40.2832 126.336 42.5169C177.279 44.7506 216.9 84.8257 214.827 132.019Z" fill="url(#paint0_linear_133_1330)"/>
<path opacity="0.26" d="M117.584 190.243C157.598 190.243 190.037 159.601 190.037 121.803C190.037 84.0048 157.598 53.3633 117.584 53.3633C77.5691 53.3633 45.1307 84.0048 45.1307 121.803C45.1307 159.601 77.5691 190.243 117.584 190.243Z" fill="white"/>
<g opacity="0.68">
<path d="M146.329 128.387C146.322 135.937 146.044 143.488 145.458 151.017C144.857 158.546 143.927 166.052 142.587 173.486C141.217 180.912 139.482 188.302 136.845 195.413C135.512 198.958 133.96 202.451 131.858 205.644C130.796 207.233 129.595 208.749 128.108 210.009C127.368 210.632 126.548 211.188 125.647 211.591C124.746 211.994 123.765 212.25 122.769 212.265C121.773 212.294 120.77 212.104 119.854 211.73C118.931 211.364 118.096 210.837 117.335 210.236C115.812 209.02 114.581 207.519 113.505 205.944C111.366 202.773 109.799 199.287 108.444 195.75C107.104 192.205 106.012 188.573 105.068 184.918C104.123 181.256 103.332 177.558 102.651 173.845C101.289 166.411 100.351 158.904 99.7214 151.383C99.0916 143.854 98.7766 136.304 98.7254 128.753C98.7034 124.974 98.8206 121.202 98.9597 117.431C99.1062 113.659 99.3186 109.887 99.6042 106.123C100.175 98.5941 101.018 91.0873 102.27 83.6318C102.9 79.9114 103.632 76.1983 104.511 72.5218C105.39 68.8453 106.415 65.2055 107.682 61.6389C108.964 58.0869 110.458 54.5715 112.53 51.3784C113.578 49.7965 114.779 48.2805 116.273 47.0648C117.02 46.4642 117.847 45.9369 118.748 45.5854C119.649 45.2265 120.63 45.0434 121.597 45.08C122.571 45.1093 123.531 45.351 124.417 45.7392C125.303 46.1273 126.116 46.662 126.863 47.2625C128.357 48.4709 129.587 49.9503 130.686 51.4956C132.861 54.6155 134.502 58.0576 135.922 61.5656C138.727 68.5963 140.631 75.942 142.133 83.3462C143.605 90.7578 144.637 98.2499 145.319 105.771C145.985 113.278 146.307 120.836 146.329 128.387ZM144.894 128.387C144.916 120.873 144.63 113.359 144.008 105.874C143.4 98.389 142.477 90.9189 141.1 83.5366C139.716 76.1617 137.922 68.8307 135.241 61.8293C133.879 58.3432 132.304 54.9157 130.21 51.8178C129.155 50.2798 127.969 48.8224 126.548 47.636C125.142 46.4569 123.428 45.5561 121.59 45.4975C120.674 45.4682 119.766 45.6513 118.924 46.0028C118.075 46.347 117.298 46.8524 116.588 47.4456C115.167 48.632 114.017 50.1187 113.014 51.686C111.022 54.8425 109.594 58.3359 108.378 61.8805C107.17 65.4325 106.21 69.0651 105.383 72.7269C104.562 76.3887 103.889 80.0872 103.31 83.8003C101.04 98.66 100.315 113.725 100.373 128.746C100.344 136.26 100.586 143.774 101.135 151.266C101.691 158.758 102.541 166.228 103.823 173.632C104.467 177.331 105.214 181.007 106.115 184.654C107.016 188.294 108.063 191.898 109.352 195.413C110.648 198.921 112.164 202.363 114.215 205.468C115.248 207.006 116.419 208.464 117.833 209.614C119.232 210.763 120.953 211.576 122.74 211.51C124.527 211.459 126.204 210.573 127.573 209.387C128.957 208.193 130.107 206.721 131.118 205.168C133.132 202.041 134.626 198.584 135.908 195.076C138.434 188.023 140.089 180.67 141.371 173.281C142.645 165.884 143.488 158.406 144.052 150.914C144.637 143.415 144.901 135.901 144.894 128.387Z" fill="white"/>
<path d="M184.412 128.387C184.354 138.12 183.101 147.853 180.494 157.235C177.836 166.594 173.822 175.595 168.388 183.673C162.961 191.737 156.055 198.884 147.794 204.077C143.671 206.662 139.211 208.727 134.545 210.126C129.888 211.532 125.017 212.265 120.147 212.265C115.277 212.265 110.407 211.54 105.741 210.141C101.076 208.742 96.6161 206.684 92.4856 204.106C84.2172 198.928 77.289 191.78 71.8475 183.717C66.406 175.632 62.3853 166.631 59.7122 157.264C58.3939 152.57 57.4199 147.787 56.7681 142.961C56.1236 138.135 55.8013 133.264 55.7794 128.387C55.8087 123.517 56.1309 118.646 56.7827 113.82C57.4345 108.994 58.4159 104.211 59.7341 99.5169C62.4146 90.1572 66.4499 81.1564 71.8988 73.0858C77.3402 65.0297 84.2684 57.8965 92.5295 52.7333C96.6601 50.1627 101.12 48.1194 105.778 46.7279C110.429 45.329 115.291 44.5967 120.154 44.5967C125.017 44.604 129.873 45.3364 134.523 46.7498C139.174 48.1487 143.634 50.1993 147.757 52.7699C156.011 57.9404 162.917 65.081 168.344 73.137C173.786 81.2077 177.799 90.2012 180.465 99.5535C183.087 108.92 184.346 118.654 184.412 128.387ZM182.764 128.387C182.757 118.8 181.571 109.199 179.044 99.9416C176.51 90.6992 172.694 81.7643 167.436 73.7302C164.807 69.7169 161.819 65.9379 158.472 62.4957C155.125 59.0609 151.419 55.9484 147.369 53.3704C143.312 50.7998 138.932 48.7346 134.34 47.3357C129.748 45.9369 124.951 45.2045 120.154 45.1826C115.35 45.2045 110.56 45.9442 105.968 47.3504C101.377 48.7565 97.0043 50.8291 92.9543 53.3997C88.9116 55.985 85.2205 59.0975 81.8736 62.5323C78.534 65.9745 75.5533 69.7608 72.9314 73.7742C67.6803 81.8082 63.8793 90.7285 61.36 99.9709C60.1003 104.592 59.1995 109.309 58.5843 114.062C57.9691 118.815 57.6615 123.604 57.6542 128.394C57.6689 133.184 57.9765 137.973 58.599 142.727C59.2215 147.472 60.1296 152.189 61.3893 156.81C63.916 166.045 67.7243 174.965 72.9827 182.985C75.6045 186.991 78.5853 190.77 81.9248 194.205C85.2644 197.632 88.9556 200.745 92.9982 203.323C97.0482 205.886 101.42 207.936 105.998 209.343C110.575 210.749 115.357 211.496 120.154 211.518C124.951 211.496 129.734 210.756 134.318 209.357C138.903 207.958 143.283 205.908 147.333 203.352C151.383 200.781 155.081 197.676 158.428 194.249C161.775 190.814 164.763 187.035 167.392 183.029C172.658 175.009 176.481 166.082 179.022 156.847C181.556 147.575 182.75 137.973 182.764 128.387Z" fill="white"/>
<path d="M45.3798 95.2033C51.7953 95.1081 58.2108 95.0715 64.6264 95.0056L83.873 94.8957C90.2885 94.8445 96.704 94.8518 103.12 94.8372L122.366 94.8005L160.852 94.9031L180.099 95.0276C186.514 95.1008 192.93 95.1447 199.345 95.24C199.382 95.24 199.418 95.2766 199.418 95.3132C199.418 95.3498 199.389 95.3864 199.345 95.3864C192.93 95.489 186.514 95.5256 180.099 95.5988L160.852 95.7233L122.366 95.8259L103.12 95.7892C96.704 95.7746 90.2885 95.7819 83.873 95.7306L64.6264 95.6208C58.2108 95.5549 51.7953 95.5109 45.3798 95.423C45.3212 95.423 45.2699 95.3718 45.2699 95.3132C45.2699 95.2473 45.3212 95.2033 45.3798 95.2033Z" fill="white"/>
<path d="M67.7023 62.9719C72.2576 62.8767 76.813 62.8401 81.361 62.7742L95.0196 62.6643C99.5749 62.613 104.13 62.6204 108.678 62.6057L122.337 62.5691L135.996 62.6057C140.551 62.6277 145.106 62.613 149.654 62.6716L163.313 62.7961C167.868 62.8694 172.423 62.9133 176.971 63.0085C177.008 63.0085 177.045 63.0451 177.045 63.0817C177.045 63.1184 177.015 63.155 176.971 63.155C172.416 63.2575 167.861 63.2941 163.313 63.3674L149.654 63.4919C145.099 63.5431 140.544 63.5285 135.996 63.5578L122.337 63.5944L108.678 63.5578C104.123 63.5431 99.5676 63.5505 95.0196 63.4992L81.361 63.3893C76.8056 63.3234 72.2503 63.2795 67.7023 63.1916C67.6437 63.1916 67.5925 63.1403 67.5998 63.0817C67.5998 63.0232 67.6437 62.9719 67.7023 62.9719Z" fill="white"/>
<path d="M38.6933 127.435L59.6097 127.237L80.5261 127.127C87.4982 127.076 94.4703 127.083 101.442 127.069L122.359 127.032L164.192 127.135L185.108 127.259C192.08 127.332 199.052 127.376 206.024 127.471C206.061 127.471 206.098 127.508 206.098 127.545C206.098 127.581 206.068 127.618 206.024 127.618C199.052 127.72 192.08 127.757 185.108 127.83L164.184 127.955L122.352 128.057L101.435 128.021C94.463 128.006 87.4909 128.013 80.5188 127.962L59.6024 127.852L38.686 127.654C38.6274 127.654 38.5761 127.603 38.5761 127.545C38.5834 127.479 38.6347 127.435 38.6933 127.435Z" fill="white"/>
<path d="M45.3798 159.666C51.7953 159.571 58.2108 159.534 64.6264 159.468L83.873 159.358C90.2885 159.307 96.704 159.314 103.12 159.3L122.366 159.263L160.852 159.366L180.099 159.49C186.514 159.563 192.93 159.607 199.345 159.703C199.382 159.703 199.418 159.739 199.418 159.776C199.418 159.812 199.389 159.849 199.345 159.849C192.93 159.952 186.514 159.988 180.099 160.061L160.852 160.186L122.366 160.288L103.105 160.252C96.6894 160.237 90.2739 160.245 83.8583 160.193L64.6117 160.083C58.1962 160.018 51.7807 159.974 45.3651 159.886C45.3065 159.886 45.2553 159.834 45.2553 159.776C45.2699 159.71 45.3212 159.666 45.3798 159.666Z" fill="white"/>
<path d="M179.754 192.381H70.456C70.2436 192.381 70.0752 192.213 70.0752 192C70.0752 191.788 70.2436 191.619 70.456 191.619H179.754C179.967 191.619 180.135 191.788 180.135 192C180.135 192.213 179.967 192.381 179.754 192.381Z" fill="white"/>
</g>
<path d="M127.214 134.714C110.392 118.763 81.9395 104.966 56.9731 104.929L54.8273 131.082C55.4938 131.06 56.1675 131.052 56.8413 131.052C77.6259 131.052 97.8026 142.77 110.092 157.623C113.497 150.468 120.55 145.758 123.868 138.479L127.214 134.714Z" fill="#5785C2"/>
<path d="M66.677 95.1155L26.265 114.75L32.0067 119.049H68.5006L70.229 96.1994L66.677 95.1155Z" fill="#5785C2"/>
<path d="M119.129 139.856C119.063 139.856 118.997 139.827 118.953 139.775C114.222 134.041 107.074 128.372 98.2787 123.378C98.1688 123.312 98.1322 123.172 98.1908 123.063C98.2567 122.953 98.3959 122.916 98.5057 122.975C107.345 127.991 114.545 133.697 119.312 139.475C119.393 139.57 119.378 139.717 119.283 139.797C119.232 139.841 119.18 139.856 119.129 139.856Z" fill="white"/>
<path d="M95.503 121.832C95.4664 121.832 95.4298 121.825 95.3932 121.803C90.0029 118.947 84.3784 116.523 78.6806 114.582C78.5634 114.538 78.4975 114.406 78.5341 114.289C78.578 114.172 78.7025 114.106 78.827 114.142C84.5468 116.091 90.186 118.529 95.6055 121.393C95.7154 121.451 95.7593 121.591 95.7008 121.708C95.6641 121.788 95.5909 121.832 95.503 121.832Z" fill="white"/>
<path d="M75.3848 113.505C75.3628 113.505 75.3409 113.505 75.3189 113.498C71.8841 112.458 68.5445 111.645 65.3953 111.081C65.2708 111.059 65.1829 110.942 65.2049 110.81C65.2269 110.686 65.3441 110.598 65.4759 110.62C68.6397 111.184 72.0013 111.997 75.4507 113.044C75.5752 113.081 75.6411 113.212 75.6045 113.33C75.5752 113.439 75.48 113.505 75.3848 113.505Z" fill="white"/>
<path d="M66.677 95.1155L62.8027 146.22L23.0938 116.852C22.8228 116.654 22.8668 116.244 23.1671 116.098L66.677 95.1155Z" fill="url(#paint1_linear_133_1330)"/>
<path d="M107.66 170.85C111.417 162.318 118.397 145.107 124.402 138.128C107.309 119.965 80.1086 106.533 53.2088 106.497L51.0629 132.649C51.7294 132.627 52.4032 132.62 53.0769 132.62C75.004 132.62 103.837 148.3 107.66 170.85Z" fill="url(#paint2_linear_133_1330)"/>
<path d="M129.082 31.6411L124.388 31.165L125.501 33.4647L103.837 70.8666H142.66L151.17 73.364L154.876 71.2987L129.082 31.6411Z" fill="#5785C2"/>
<path d="M116.441 67.4758V115.585C120.682 119.049 121.202 132.627 125.061 136.853C129.346 132.678 137.497 123.868 142.865 120.668V67.4758H116.441Z" fill="#5785C2"/>
<path d="M100.754 73.4081H151.17L124.614 31.1651C124.563 31.0773 124.431 31.0846 124.387 31.1725L100.337 72.6903C100.146 73.0053 100.38 73.4081 100.754 73.4081Z" fill="url(#paint3_linear_133_1330)"/>
<path d="M111.637 70.0171V126.834C116.441 130.298 120.089 135.256 123.948 139.475C128.232 135.3 133.256 126.746 138.486 123.451V70.0171H111.637Z" fill="url(#paint4_linear_133_1330)"/>
<path d="M111.923 72.368H103.464C103.266 72.368 103.098 72.2655 102.995 72.097C102.9 71.9286 102.893 71.7308 102.988 71.5551L123.553 34.8928C123.619 34.7829 123.758 34.739 123.868 34.8049C123.977 34.8708 124.021 35.01 123.955 35.1198L103.391 71.7821C103.369 71.8187 103.383 71.848 103.391 71.8627C103.398 71.8773 103.42 71.8993 103.456 71.8993H111.915C112.04 71.8993 112.142 72.0018 112.142 72.1263C112.15 72.2655 112.047 72.368 111.923 72.368Z" fill="white"/>
<path d="M202.48 105.757C163.73 105.808 130.561 127.53 116.214 161.863V161.871C116.2 161.9 116.185 161.937 116.178 161.966H116.192C108.664 178.503 113.175 206.494 113.768 235.195H139.569H140.668C141.847 235.195 142.792 234.199 142.726 233.02C141.554 211.262 140.543 189.378 143.627 171.106C144.601 165.32 147.12 159.893 150.921 155.375C163.21 140.757 181.798 131.441 202.612 131.441C203.285 131.441 203.959 131.434 204.626 131.456L202.48 105.757Z" fill="#5785C2"/>
<path d="M196.994 103.941C196.965 103.611 196.687 103.355 196.357 103.355C157.864 103.633 124.951 125.582 110.678 160.516C110.663 160.545 110.648 160.575 110.641 160.604H110.656C103.244 177.185 107.506 205.08 108.202 233.833C108.224 234.588 108.832 235.188 109.594 235.188H136.852C137.219 235.188 137.504 234.881 137.482 234.522C136.245 210.749 134.824 189.833 138.068 170.073C139.049 164.075 141.613 158.436 145.494 153.756C157.783 138.94 176.327 129.5 197.082 129.5C197.522 129.5 197.961 129.5 198.4 129.5C198.774 129.508 199.067 129.185 199.038 128.812L196.994 103.941Z" fill="url(#paint5_linear_133_1330)"/>
<path d="M228.618 118.786L228.72 118.712L227.761 113.425L227.673 113.381L227.659 113.285L227.563 113.329L188.499 94.4929L191.194 130.02L190.513 130.328L187.356 143.093L191.377 146.315L192.373 145.583V145.597L228.589 118.815L228.618 118.786Z" fill="#5785C2"/>
<path d="M183.482 91.981L187.356 143.093L227.658 113.286L183.482 91.981Z" fill="url(#paint6_linear_133_1330)"/>
<g opacity="0.3">
<path d="M68.374 70.0174C67.9008 70.0174 67.4953 69.6625 67.4446 69.1809C67.3347 68.1333 67.2671 67.0687 67.2503 66.0041C67.2418 65.4887 67.6474 65.0662 68.1628 65.0578C68.1712 65.0578 68.1712 65.0578 68.1797 65.0578C68.6866 65.0578 69.1006 65.4633 69.1091 65.9703C69.126 66.9757 69.1935 67.9896 69.2949 68.9866C69.3456 69.502 68.9739 69.9583 68.4669 70.009C68.4416 70.0174 68.4078 70.0174 68.374 70.0174ZM68.4416 61.8894C68.4078 61.8894 68.3655 61.8894 68.3317 61.8809C67.8163 61.8218 67.453 61.3571 67.5122 60.8417C67.6389 59.794 67.8079 58.7378 68.0191 57.7071C68.1205 57.2001 68.6106 56.879 69.1175 56.9804C69.6245 57.0818 69.9455 57.5803 69.8441 58.0788C69.6413 59.0589 69.4808 60.0644 69.3625 61.0614C69.3034 61.543 68.9063 61.8894 68.4416 61.8894ZM70.2835 53.981C70.1821 53.981 70.0723 53.9641 69.9709 53.9303C69.4893 53.7613 69.2358 53.2206 69.4048 52.739C69.7596 51.742 70.1567 50.7534 70.5961 49.7902C70.8073 49.3255 71.365 49.1143 71.8297 49.3255C72.2944 49.5368 72.5056 50.0944 72.2944 50.5591C71.8804 51.4716 71.5002 52.4095 71.1622 53.3558C71.027 53.7444 70.6721 53.981 70.2835 53.981ZM73.8575 46.681C73.6885 46.681 73.511 46.6303 73.359 46.5373C72.9281 46.2585 72.8013 45.684 73.0717 45.2531C73.6378 44.3659 74.2546 43.4872 74.8967 42.6507C75.2093 42.2452 75.7923 42.1607 76.2063 42.4733C76.6119 42.7859 76.6964 43.3689 76.3837 43.7829C75.7754 44.5771 75.1924 45.4136 74.6517 46.2585C74.4658 46.5289 74.1616 46.681 73.8575 46.681ZM78.9607 40.361C78.7241 40.361 78.4791 40.2681 78.2932 40.0822C77.9299 39.7189 77.9384 39.1275 78.3017 38.7642C79.0537 38.0206 79.8479 37.3025 80.659 36.6265C81.0561 36.297 81.6391 36.3477 81.9686 36.7448C82.2981 37.1419 82.2474 37.7249 81.8503 38.0544C81.0814 38.6966 80.321 39.3809 79.6113 40.0822C79.4423 40.2681 79.1973 40.361 78.9607 40.361ZM85.3398 35.3338C85.0272 35.3338 84.723 35.1817 84.5456 34.8945C84.2752 34.4551 84.4104 33.8806 84.8413 33.6102C85.7369 33.0526 86.6663 32.5287 87.6126 32.0471C88.0688 31.8105 88.6349 31.9964 88.8631 32.4527C89.0996 32.9089 88.9138 33.475 88.4575 33.7031C87.5619 34.1594 86.6747 34.6579 85.8298 35.1902C85.6778 35.2831 85.5088 35.3338 85.3398 35.3338ZM119.516 33.1117C119.39 33.1117 119.254 33.0864 119.128 33.0272C118.215 32.6132 117.269 32.233 116.323 31.895C115.841 31.7261 115.579 31.1938 115.757 30.7037C115.926 30.2221 116.458 29.9602 116.948 30.1376C117.945 30.4925 118.942 30.8896 119.897 31.3289C120.37 31.5402 120.573 32.0978 120.361 32.5625C120.209 32.9089 119.871 33.1117 119.516 33.1117ZM92.6736 31.8359C92.285 31.8359 91.9216 31.5909 91.7949 31.2107C91.6259 30.7206 91.8878 30.1968 92.3694 30.0278C93.3664 29.6814 94.3888 29.3772 95.4196 29.1237C95.9181 28.997 96.425 29.3012 96.5518 29.7997C96.6785 30.2982 96.3743 30.8051 95.8758 30.9318C94.9042 31.1769 93.9325 31.4641 92.9862 31.7936C92.8764 31.819 92.775 31.8359 92.6736 31.8359ZM111.794 30.6023C111.735 30.6023 111.667 30.5939 111.608 30.5854C110.628 30.3826 109.623 30.2221 108.626 30.1123C108.11 30.0531 107.747 29.5884 107.806 29.0815C107.865 28.5661 108.33 28.2028 108.837 28.2619C109.884 28.3802 110.941 28.5492 111.98 28.7604C112.487 28.8618 112.808 29.3519 112.706 29.8588C112.613 30.2982 112.225 30.6023 111.794 30.6023ZM100.599 30.07C100.126 30.07 99.7202 29.7152 99.6695 29.2336C99.6188 28.7182 99.9821 28.2619 100.497 28.2028C101.545 28.0929 102.61 28.0253 103.674 28C103.683 28 103.691 28 103.691 28C104.198 28 104.612 28.4056 104.621 28.9125C104.629 29.4279 104.224 29.8504 103.708 29.8673C102.703 29.8842 101.689 29.9517 100.692 30.0616C100.666 30.07 100.633 30.07 100.599 30.07Z" fill="#263238"/>
<path d="M125.211 36.3478C125.025 36.3478 124.839 36.2971 124.679 36.1788C124.282 35.9 123.876 35.6297 123.471 35.3762C123.04 35.0974 122.904 34.5228 123.183 34.0919C123.462 33.661 124.037 33.5258 124.468 33.8046C124.898 34.075 125.321 34.3623 125.743 34.6496C126.166 34.9453 126.267 35.5283 125.98 35.9507C125.794 36.2042 125.507 36.3478 125.211 36.3478Z" fill="url(#paint7_linear_133_1330)"/>
</g>
<g opacity="0.3">
<path d="M140.36 60.4107C139.913 60.4107 139.515 60.0812 139.439 59.625C139.363 59.1518 139.279 58.6702 139.177 58.197C139.076 57.6901 139.397 57.2001 139.904 57.0987C140.411 56.9973 140.901 57.3268 141.002 57.8253C141.104 58.3238 141.197 58.8307 141.273 59.3292C141.357 59.8362 141.011 60.3178 140.496 60.3938C140.462 60.4023 140.411 60.4107 140.36 60.4107Z" fill="url(#paint8_linear_133_1330)"/>
<path d="M104.536 102.504C104.105 102.504 103.674 102.496 103.243 102.479C102.728 102.462 102.322 102.031 102.339 101.516C102.356 101 102.787 100.595 103.303 100.611C104.3 100.645 105.297 100.637 106.277 100.586C106.792 100.561 107.231 100.958 107.257 101.473C107.282 101.989 106.885 102.428 106.37 102.453C105.77 102.496 105.153 102.504 104.536 102.504ZM98.3514 101.98C98.3007 101.98 98.25 101.972 98.1909 101.963C97.1685 101.786 96.1377 101.566 95.1323 101.304C94.6338 101.178 94.3381 100.671 94.4648 100.172C94.5916 99.6736 95.107 99.3695 95.6054 99.5046C96.5602 99.7497 97.5403 99.9609 98.5119 100.13C99.0189 100.214 99.3568 100.696 99.2724 101.203C99.1879 101.659 98.7908 101.98 98.3514 101.98ZM111.245 101.879C110.805 101.879 110.417 101.566 110.332 101.118C110.239 100.611 110.569 100.121 111.076 100.028C112.047 99.8426 113.019 99.6229 113.974 99.3526C114.472 99.2174 114.988 99.5046 115.123 100.003C115.258 100.502 114.971 101.017 114.472 101.152C113.467 101.431 112.445 101.668 111.422 101.862C111.363 101.879 111.304 101.879 111.245 101.879ZM90.6627 99.775C90.5444 99.775 90.4261 99.7497 90.3079 99.7074C89.3447 99.3103 88.3899 98.871 87.469 98.3978C87.0127 98.1612 86.8268 97.6036 87.0634 97.1389C87.3 96.6826 87.8576 96.4968 88.3223 96.7333C89.201 97.1811 90.1051 97.6036 91.0176 97.9838C91.4907 98.1781 91.7189 98.7273 91.5245 99.2005C91.3724 99.5553 91.026 99.775 90.6627 99.775ZM118.891 99.5469C118.528 99.5469 118.19 99.3357 118.038 98.9808C117.835 98.5076 118.055 97.9585 118.528 97.7557C119.432 97.367 120.336 96.9277 121.206 96.463C121.662 96.2179 122.229 96.3869 122.465 96.8432C122.71 97.2994 122.541 97.8655 122.085 98.1021C121.164 98.5921 120.218 99.0484 119.271 99.4624C119.136 99.5215 119.009 99.5469 118.891 99.5469ZM125.828 95.5843C125.541 95.5843 125.253 95.4491 125.076 95.204C124.772 94.79 124.865 94.2071 125.279 93.9029C126.081 93.3199 126.859 92.7031 127.611 92.061C127.999 91.723 128.591 91.7653 128.929 92.1539C129.267 92.5426 129.224 93.134 128.836 93.472C128.05 94.1479 127.222 94.8069 126.386 95.4153C126.217 95.5251 126.022 95.5843 125.828 95.5843ZM131.742 90.2022C131.523 90.2022 131.303 90.1261 131.125 89.9656C130.737 89.6276 130.703 89.0362 131.041 88.6475C131.692 87.904 132.325 87.1267 132.917 86.3409C133.221 85.9269 133.804 85.8424 134.218 86.1466C134.632 86.4508 134.716 87.0422 134.412 87.4478C133.795 88.2842 133.128 89.0953 132.444 89.8811C132.258 90.1008 132.004 90.2022 131.742 90.2022ZM136.347 83.6626C136.195 83.6626 136.043 83.6288 135.899 83.5443C135.451 83.2993 135.282 82.7332 135.527 82.2769C136.001 81.4151 136.448 80.511 136.846 79.6154C137.057 79.1423 137.606 78.9311 138.079 79.1423C138.552 79.3535 138.763 79.9027 138.552 80.3759C138.13 81.3222 137.665 82.2685 137.158 83.181C136.998 83.4936 136.677 83.6626 136.347 83.6626ZM139.397 76.2696C139.313 76.2696 139.228 76.2611 139.135 76.2358C138.637 76.0922 138.358 75.5768 138.493 75.0783C138.763 74.132 139 73.1603 139.194 72.1887C139.296 71.6817 139.786 71.3522 140.293 71.4536C140.8 71.555 141.129 72.045 141.028 72.552C140.825 73.5743 140.58 74.5967 140.293 75.5937C140.174 76.0077 139.803 76.2696 139.397 76.2696ZM140.757 68.395C140.741 68.395 140.715 68.395 140.698 68.395C140.183 68.3612 139.794 67.9219 139.828 67.4065C139.87 66.6799 139.896 65.9448 139.896 65.2182C139.896 64.9562 139.896 64.6943 139.887 64.4324C139.879 63.917 140.284 63.4945 140.8 63.4776C141.324 63.4523 141.738 63.8748 141.754 64.3901C141.763 64.669 141.763 64.9393 141.763 65.2182C141.763 65.9786 141.738 66.7559 141.695 67.5163C141.653 68.0148 141.239 68.395 140.757 68.395Z" fill="#263238"/>
<path d="M83.6331 95.9136C83.4472 95.9136 83.2613 95.8545 83.1008 95.7446C82.6868 95.4574 82.2728 95.1532 81.8672 94.8406C81.4617 94.528 81.3772 93.945 81.6982 93.531C82.0109 93.1254 82.5938 93.0409 83.0079 93.362C83.3965 93.6577 83.7852 93.945 84.1823 94.2238C84.6047 94.5195 84.7061 95.1025 84.4104 95.525C84.2161 95.7784 83.9204 95.9136 83.6331 95.9136Z" fill="#263238"/>
</g>
<path d="M84.892 85.0989C85.0102 85.2425 85.2046 85.2932 85.382 85.2341L90.3585 83.4006C92.3187 84.913 94.5408 86.1213 96.9488 86.9493L98.1655 92.1117C98.2078 92.2891 98.3598 92.4243 98.5457 92.4496L104.874 93.0918C105.06 93.1087 105.237 93.0073 105.313 92.8383L107.536 88.0223C110.062 87.6928 112.478 86.9577 114.709 85.8678L119.221 88.6644C119.381 88.7658 119.584 88.7489 119.728 88.6306L124.662 84.6089C124.806 84.4906 124.856 84.2962 124.797 84.1188L122.964 79.1423C124.476 77.1821 125.684 74.96 126.512 72.552L131.675 71.3353C131.852 71.2931 131.987 71.141 132.013 70.9551L132.655 64.6267C132.672 64.4409 132.57 64.2634 132.401 64.1874L127.585 61.9653C127.256 59.439 126.521 57.0225 125.431 54.792L128.227 50.2801C128.329 50.1196 128.312 49.9168 128.194 49.7732L124.172 44.8389C124.054 44.6953 123.859 44.6446 123.682 44.7037L118.705 46.5372C116.745 45.0248 114.523 43.8166 112.115 42.9886L110.898 37.8262C110.856 37.6487 110.704 37.5135 110.518 37.4882L104.19 36.8461C104.004 36.8292 103.826 36.9306 103.75 37.0995L101.528 41.9155C99.002 42.245 96.5855 42.9801 94.355 44.0701L89.8431 41.2734C89.6826 41.172 89.4798 41.1889 89.3362 41.3072L84.4019 45.329C84.2583 45.4473 84.2076 45.6416 84.2667 45.819L86.1002 50.7955C84.5878 52.7557 83.3796 54.9779 82.5516 57.3858L77.3892 58.6025C77.2117 58.6448 77.0765 58.7968 77.0512 58.9827L76.4091 65.3111C76.3922 65.497 76.4935 65.6744 76.6625 65.7505L81.4785 67.9726C81.808 70.4989 82.5431 72.9153 83.633 75.1459L80.8364 79.6577C80.735 79.8182 80.7519 80.021 80.8702 80.1646L84.892 85.0989Z" fill="#C1D9FA"/>
<path d="M104.519 71.3691C101.402 71.3691 98.6641 69.0794 98.1909 65.9026C97.6755 62.4131 100.1 59.1517 103.59 58.6448C105.28 58.3913 106.97 58.8222 108.338 59.8361C109.707 60.8585 110.603 62.3455 110.848 64.0353C111.363 67.5248 108.938 70.7862 105.449 71.2931C105.145 71.3438 104.832 71.3691 104.519 71.3691ZM104.536 60.0642C104.291 60.0642 104.055 60.0811 103.81 60.1149C101.131 60.512 99.2808 63.0045 99.6695 65.6829C100.067 68.3613 102.559 70.2116 105.237 69.823C107.916 69.4259 109.766 66.9334 109.378 64.255C109.183 62.9623 108.499 61.8132 107.451 61.0359C106.598 60.3938 105.584 60.0642 104.536 60.0642Z" fill="white"/>
<path d="M104.654 80.6039C104.122 80.6039 103.581 80.5785 103.041 80.5194C102.872 80.5025 102.703 80.4856 102.534 80.4603C101.697 80.3504 100.878 80.173 100.075 79.928C100.067 79.928 100.05 79.9195 100.041 79.9195C100.007 79.9111 99.9821 79.9026 99.9483 79.8942C99.8892 79.8773 99.83 79.8604 99.7709 79.835C99.6103 79.7843 99.509 79.6407 99.509 79.4802C99.509 79.4379 99.5174 79.4041 99.5259 79.3619C99.5934 79.1675 99.7962 79.0577 99.999 79.1253C101.004 79.4548 102.061 79.6745 103.125 79.7759C108.406 80.3082 113.332 78.0185 116.407 74.1319C118.114 71.9689 119.246 69.3159 119.542 66.3756C119.592 65.8602 119.618 65.3448 119.618 64.8379C119.618 61.3991 118.443 58.0955 116.238 55.3918C113.712 52.2909 110.121 50.3645 106.142 49.959C97.9205 49.131 90.5614 55.1383 89.7249 63.3593C89.6742 63.8662 89.6489 64.3732 89.6489 64.8801C89.6489 67.0769 90.1305 69.2398 91.0599 71.2254C91.0852 71.2761 91.0936 71.3268 91.0936 71.3859C91.0936 71.5296 91.0176 71.6563 90.8824 71.7239C90.6965 71.8084 90.4769 71.7323 90.3839 71.5464C89.4038 69.4595 88.8969 67.1867 88.8969 64.8801C88.8969 64.3478 88.9222 63.8155 88.9814 63.2832C89.8516 54.6567 97.591 48.3452 106.218 49.2155C110.4 49.6379 114.16 51.6657 116.821 54.9186C119.136 57.7491 120.361 61.2216 120.37 64.8294C120.37 65.3617 120.344 65.9025 120.285 66.4432C119.863 70.6255 117.835 74.3854 114.582 77.0468C111.735 79.3703 108.262 80.6039 104.654 80.6039Z" fill="white"/>
<g opacity="0.3">
<path d="M36.5461 94.5959C36.3011 94.5959 36.0645 94.4354 35.9969 94.1819C35.8617 93.7088 35.735 93.2356 35.6252 92.754C35.5576 92.4414 35.7435 92.1372 36.0561 92.0612C36.3687 91.9852 36.6729 92.1879 36.7489 92.4921C36.8503 92.9484 36.9686 93.4046 37.1038 93.8524C37.1967 94.1566 37.0193 94.4776 36.7151 94.5706C36.656 94.5875 36.6053 94.5959 36.5461 94.5959Z" fill="url(#paint9_linear_133_1330)"/>
<path d="M35.7013 90.2446C35.4056 90.2446 35.1605 90.025 35.1267 89.7292C35.0422 88.8928 35 88.0394 35 87.1945C35 87.0171 35 86.8397 35.0084 86.6622C35.0169 86.3412 35.2957 86.1046 35.5999 86.0961C35.921 86.1046 36.1744 86.3665 36.166 86.6876C36.166 86.8566 36.1575 87.0255 36.1575 87.1945C36.1575 87.9972 36.1998 88.8083 36.2843 89.611C36.3181 89.9236 36.0899 90.2108 35.7689 90.2446C35.7351 90.2446 35.7182 90.2446 35.7013 90.2446ZM35.828 84.2627C35.8027 84.2627 35.7689 84.2627 35.7435 84.2542C35.4309 84.212 35.2112 83.9163 35.2535 83.6036C35.3971 82.5898 35.6083 81.5843 35.8787 80.6042C35.9632 80.3 36.2843 80.1142 36.5884 80.1987C36.8926 80.2832 37.0785 80.5958 36.994 80.9084C36.7405 81.8462 36.5377 82.8094 36.4026 83.7726C36.3519 84.0599 36.1068 84.2627 35.828 84.2627ZM37.3995 78.4919C37.3235 78.4919 37.2559 78.475 37.1799 78.4497C36.8842 78.3314 36.749 77.9934 36.8673 77.6977C37.2559 76.7514 37.7037 75.8305 38.2107 74.9349C38.3712 74.656 38.7176 74.5631 38.9964 74.7152C39.2752 74.8757 39.3682 75.2221 39.2161 75.501C38.7345 76.3459 38.3036 77.233 37.9403 78.1286C37.8389 78.3568 37.6277 78.4919 37.3995 78.4919ZM40.3398 73.2873C40.2215 73.2873 40.1033 73.2535 39.9934 73.1775C39.7399 72.9916 39.6808 72.6283 39.8751 72.3748C40.4835 71.5552 41.151 70.7695 41.8522 70.0259C42.0719 69.7978 42.4352 69.7894 42.6633 70.009C42.8915 70.2287 42.8999 70.592 42.6802 70.8202C42.0128 71.5214 41.3791 72.2734 40.7961 73.0592C40.6947 73.2113 40.5173 73.2873 40.3398 73.2873ZM44.463 68.9613C44.294 68.9613 44.1335 68.8853 44.0152 68.7501C43.8124 68.5051 43.8462 68.1418 44.0912 67.939C44.877 67.2884 45.7135 66.6885 46.5753 66.1478C46.8456 65.9788 47.2005 66.0549 47.3695 66.3252C47.5385 66.5956 47.4624 66.9505 47.1921 67.1194C46.3725 67.6433 45.5698 68.2178 44.8179 68.8346C44.7249 68.9107 44.5982 68.9613 44.463 68.9613ZM49.5156 65.7591C49.2959 65.7591 49.0931 65.6409 48.9917 65.4296C48.8565 65.1424 48.9833 64.7959 49.2705 64.6608C50.1915 64.2214 51.1547 63.8412 52.1179 63.5286C52.4221 63.4272 52.7431 63.5962 52.8445 63.9003C52.9459 64.2045 52.7769 64.5256 52.4728 64.627C51.5518 64.9311 50.6393 65.2944 49.7606 65.7084C49.6845 65.7422 49.6001 65.7591 49.5156 65.7591ZM55.1934 63.8919C54.923 63.8919 54.6864 63.6976 54.6273 63.4272C54.5681 63.1146 54.7709 62.8104 55.0835 62.7513C56.0805 62.5569 57.1029 62.4217 58.1252 62.3457C58.4463 62.3288 58.7166 62.5654 58.742 62.878C58.7673 63.1991 58.5223 63.4694 58.2097 63.4948C57.238 63.5624 56.258 63.6891 55.3117 63.875C55.2694 63.8919 55.2356 63.8919 55.1934 63.8919ZM64.141 63.8243C64.1072 63.8243 64.0734 63.8243 64.0396 63.8158C63.2116 63.6722 62.3667 63.5624 61.5133 63.5032C61.3866 63.4948 61.2598 63.4863 61.1331 63.4779C60.812 63.461 60.567 63.1906 60.5839 62.8695C60.6008 62.5485 60.8712 62.295 61.1922 62.3204C61.3274 62.3288 61.4626 62.3372 61.5978 62.3457C62.4849 62.4048 63.3721 62.5147 64.2424 62.6668C64.555 62.7259 64.7662 63.0216 64.7071 63.3342C64.6564 63.6215 64.4113 63.8243 64.141 63.8243Z" fill="#263238"/>
</g>
<g opacity="0.3">
<path d="M60.212 112.052C59.8994 112.052 59.6375 111.798 59.6375 111.486C59.6375 111.165 59.891 110.903 60.2036 110.903C61.1583 110.894 62.13 110.818 63.0678 110.691C63.3805 110.649 63.6762 110.869 63.7184 111.181C63.7607 111.494 63.541 111.79 63.2284 111.832C62.2398 111.967 61.2259 112.035 60.212 112.052C60.2205 112.052 60.2205 112.052 60.212 112.052ZM57.2718 111.917C57.2549 111.917 57.2295 111.917 57.2126 111.917C56.2156 111.807 55.2186 111.638 54.2385 111.418C53.9259 111.342 53.7316 111.038 53.8076 110.725C53.8752 110.413 54.1878 110.227 54.5005 110.294C55.4299 110.506 56.3846 110.675 57.3394 110.776C57.652 110.81 57.8885 111.097 57.8463 111.41C57.8125 111.697 57.559 111.917 57.2718 111.917ZM66.0419 111.266C65.7885 111.266 65.5519 111.097 65.4843 110.835C65.3998 110.531 65.5857 110.21 65.8983 110.134C66.8277 109.889 67.7486 109.585 68.6358 109.238C68.9315 109.12 69.2695 109.264 69.3878 109.559C69.5061 109.855 69.3624 110.193 69.0667 110.311C68.1373 110.683 67.1741 110.996 66.2025 111.249C66.1433 111.258 66.0926 111.266 66.0419 111.266ZM51.5348 110.582C51.4672 110.582 51.3996 110.573 51.3405 110.548C50.3942 110.201 49.4648 109.796 48.5776 109.34C48.2904 109.196 48.1805 108.85 48.3242 108.562C48.4678 108.283 48.8142 108.165 49.1015 108.309C49.9548 108.74 50.842 109.128 51.7376 109.458C52.0333 109.568 52.1938 109.897 52.084 110.193C51.9911 110.438 51.7714 110.582 51.5348 110.582ZM71.5085 109.095C71.3057 109.095 71.1029 108.985 71.0016 108.799C70.8495 108.52 70.9509 108.174 71.2297 108.013C72.0661 107.557 72.8857 107.041 73.663 106.484C73.9249 106.298 74.2798 106.357 74.4657 106.619C74.6516 106.881 74.5924 107.236 74.3305 107.422C73.5109 108.005 72.6576 108.545 71.7789 109.027C71.6944 109.069 71.6014 109.095 71.5085 109.095ZM76.2907 105.673C76.1386 105.673 75.9781 105.614 75.8682 105.487C75.657 105.25 75.6655 104.887 75.902 104.676C76.6118 104.025 77.2792 103.332 77.9045 102.606C78.1157 102.361 78.479 102.335 78.7156 102.547C78.9606 102.758 78.986 103.121 78.7747 103.358C78.1242 104.118 77.4144 104.845 76.6794 105.529C76.5695 105.622 76.4343 105.673 76.2907 105.673ZM80.1181 101.203C80.0083 101.203 79.8985 101.169 79.7971 101.11C79.5351 100.933 79.4591 100.578 79.6365 100.307C80.1688 99.5133 80.6504 98.6768 81.0813 97.8234C81.225 97.5362 81.5714 97.4263 81.8587 97.57C82.1459 97.7136 82.2558 98.06 82.1121 98.3473C81.6643 99.2429 81.1489 100.122 80.5997 100.958C80.4899 101.11 80.304 101.203 80.1181 101.203Z" fill="#263238"/>
<path d="M46.2711 107.895C46.1612 107.895 46.0514 107.861 45.95 107.793C45.5444 107.514 45.1389 107.227 44.7587 106.931C44.5052 106.737 44.4545 106.374 44.6488 106.12C44.8432 105.867 45.2065 105.825 45.4599 106.011C45.8233 106.289 46.2119 106.568 46.6006 106.83C46.8625 107.008 46.9301 107.371 46.7527 107.633C46.6428 107.802 46.4569 107.895 46.2711 107.895Z" fill="url(#paint10_linear_133_1330)"/>
</g>
<path d="M46.7527 100.451C46.8287 100.544 46.9639 100.586 47.0822 100.544L50.4111 99.3191C51.7207 100.333 53.2078 101.144 54.8216 101.693L55.6327 105.149C55.658 105.267 55.7594 105.36 55.8861 105.369L60.1192 105.8C60.2459 105.808 60.3642 105.749 60.4149 105.631L61.9019 102.411C63.5917 102.192 65.214 101.693 66.701 100.967L69.7173 102.834C69.8272 102.901 69.9624 102.893 70.0553 102.809L73.3505 100.113C73.4434 100.037 73.4856 99.902 73.4434 99.7838L72.2183 96.4548C73.2322 95.1452 74.0433 93.6582 74.5925 92.0444L78.0482 91.2333C78.1664 91.2079 78.2594 91.1065 78.2678 90.9798L78.6987 86.7468C78.7072 86.6201 78.648 86.5018 78.5298 86.4511L75.3106 84.964C75.091 83.2742 74.5925 81.652 73.8658 80.1649L75.7331 77.1486C75.8007 77.0388 75.7922 76.9036 75.7078 76.8106L73.0294 73.507C72.9533 73.4141 72.8182 73.3719 72.6999 73.4141L69.3709 74.6392C68.0613 73.6253 66.5743 72.8142 64.9605 72.265L64.1494 68.8093C64.124 68.691 64.0226 68.5981 63.8959 68.5897L59.6629 68.1588C59.5362 68.1503 59.4179 68.2094 59.3672 68.3277L57.8801 71.5468C56.1903 71.7665 54.5681 72.265 53.081 72.9916L50.0647 71.1244C49.9549 71.0568 49.8197 71.0652 49.7268 71.1497L46.4316 73.845C46.3387 73.921 46.2964 74.0562 46.3387 74.1745L47.5638 77.5035C46.5499 78.8131 45.7388 80.3001 45.1896 81.9139L41.7339 82.725C41.6156 82.7504 41.5227 82.8517 41.5142 82.9785L41.0833 87.2115C41.0749 87.3382 41.134 87.4565 41.2523 87.5072L44.4714 88.9942C44.6911 90.6841 45.1896 92.3063 45.9162 93.7933L44.049 96.8097C43.9814 96.9195 43.9898 97.0547 44.0743 97.1476L46.7527 100.451Z" fill="#C1D9FA"/>
<path opacity="0.56" d="M59.8826 91.3432C58.9532 91.3432 58.0491 91.0475 57.2887 90.4814C56.3508 89.7886 55.751 88.7747 55.5735 87.6171C55.2271 85.243 56.8747 83.0208 59.2489 82.6744C61.6315 82.328 63.8452 83.9756 64.1916 86.3498C64.3606 87.4989 64.0733 88.6479 63.3805 89.5858C62.6877 90.5236 61.6738 91.132 60.5163 91.301C60.3135 91.3263 60.0938 91.3432 59.8826 91.3432ZM59.891 83.7728C59.7389 83.7728 59.5784 83.7813 59.4179 83.8066C57.6689 84.0685 56.4607 85.6992 56.7142 87.4482C56.8409 88.2931 57.2887 89.0451 57.9731 89.552C58.6575 90.0589 59.5024 90.2702 60.3557 90.1519C61.2006 90.0251 61.9526 89.5773 62.4596 88.893C62.9665 88.2086 63.1862 87.3637 63.0594 86.5103C62.8313 84.9219 61.4541 83.7728 59.891 83.7728Z" fill="white"/>
<path opacity="0.56" d="M59.967 97.7729C59.6037 97.7729 59.2319 97.756 58.8686 97.7137C58.1336 97.6377 57.4069 97.494 56.7057 97.2659C56.6719 97.2575 56.6465 97.249 56.6127 97.2321C56.3677 97.1561 56.2156 96.9279 56.2156 96.6829C56.2156 96.6238 56.2241 96.5646 56.241 96.5055C56.3423 96.2013 56.6634 96.0408 56.9676 96.1337C57.6182 96.345 58.3025 96.4886 58.9869 96.5562C59.0207 96.5562 59.063 96.5646 59.0968 96.5646C60.7274 96.7167 62.3243 96.4548 63.786 95.8211C64.5802 95.4831 65.3322 95.0269 66.025 94.4777C66.0335 94.4693 66.0335 94.4693 66.0419 94.4608C66.0588 94.4439 66.0757 94.4355 66.0926 94.4186C68.1035 92.7794 69.3455 90.4559 69.6074 87.879C69.6412 87.5494 69.6581 87.2115 69.6581 86.882C69.6581 84.6598 68.8977 82.5138 67.4698 80.7648C65.8307 78.7539 63.5072 77.5119 60.9302 77.25C58.3532 76.9881 55.827 77.7485 53.8161 79.3876C51.8052 81.0267 50.5632 83.3502 50.3012 85.9272C50.2674 86.2567 50.2505 86.5862 50.2505 86.9073C50.2505 88.3268 50.5632 89.7293 51.163 91.0136C51.1968 91.0896 51.2137 91.1741 51.2137 91.2586C51.2137 91.4783 51.0955 91.6811 50.8842 91.7824C50.597 91.9176 50.2505 91.7909 50.1154 91.5036C49.4394 90.0673 49.093 88.4957 49.093 86.9073C49.093 86.544 49.1099 86.1722 49.1522 85.8089C49.4479 82.9278 50.842 80.3255 53.0894 78.492C55.3369 76.6585 58.1589 75.8052 61.0401 76.1009C63.9212 76.3966 66.5235 77.7907 68.357 80.0382C69.9539 81.9899 70.7988 84.3895 70.7988 86.8735C70.7988 87.2453 70.7819 87.617 70.7396 87.9888C70.1904 93.599 65.4589 97.7729 59.967 97.7729Z" fill="white"/>
<path d="M90.435 230.662C88.1866 230.86 84.2757 231.175 81.1998 231.306C79.3469 231.387 78.285 231.204 77.6698 230.962C77.6698 231.028 77.6698 231.094 77.6771 231.16C77.6918 231.482 77.9554 231.746 78.285 231.76C84.1073 232.083 88.7285 231.87 90.3764 231.775C90.7206 231.753 90.9183 231.387 90.7425 231.094C90.662 230.947 90.5521 230.801 90.435 230.662Z" fill="#D9E4FF"/>
<path d="M81.1998 231.306C84.2758 231.167 88.1866 230.852 90.435 230.662C88.2232 227.945 81.1998 226.114 81.1998 226.114H79.2151C77.8529 228.084 77.6552 229.952 77.6698 230.962C78.285 231.211 79.3543 231.394 81.1998 231.306Z" fill="url(#paint11_linear_133_1330)"/>
<path d="M78.8855 222.877L79.0686 226.553C79.0906 226.949 79.3835 227.286 79.7863 227.344C80.1818 227.403 80.7164 227.41 81.273 227.22C81.6172 227.103 81.8736 226.81 81.9395 226.458L82.584 222.884H78.8855V222.877Z" fill="url(#paint12_linear_133_1330)"/>
<path d="M55.86 234.902C54.8859 234.726 54.4392 234.075 54.2561 233.372C54.2561 233.379 54.2561 233.386 54.2561 233.394C54.1096 234.133 54.4465 234.895 55.1129 235.261C55.9185 235.701 56.7974 235.774 57.4785 235.737C58.2109 235.701 58.8846 235.305 59.2508 234.683L59.2581 234.675C58.5184 235.137 57.4858 235.195 55.86 234.902Z" fill="#D9E4FF"/>
<path d="M60.4665 224.012H58.8333C56.3433 223.946 54.776 230.735 54.2634 233.372C54.4465 234.075 54.8932 234.726 55.8672 234.902C57.4931 235.195 58.5257 235.144 59.2654 234.668C60.613 232.376 61.2794 229.029 61.6017 227.066C61.9532 224.84 60.4665 224.012 60.4665 224.012Z" fill="url(#paint13_linear_133_1330)"/>
<path d="M59.0384 220.599L58.1303 224.21C58.0204 224.649 58.2328 225.111 58.6429 225.323C59.1483 225.587 59.866 225.858 60.5251 225.777C60.8327 225.741 61.089 225.521 61.1916 225.228L62.5245 221.427L59.0384 220.599Z" fill="url(#paint14_linear_133_1330)"/>
<path d="M90.9916 173.018C90.9916 173.018 82.877 223.763 83.0088 224.041C83.0088 224.041 80.7677 225.059 78.3216 224.173C78.3216 224.173 79.054 197.046 80.7751 186.647C80.7751 186.647 66.9187 210.896 62.5245 222.972C62.5245 222.972 60.2322 222.701 58.328 221.449C58.328 221.449 73.2463 177.807 77.2231 172L90.9916 173.018Z" fill="url(#paint15_linear_133_1330)"/>
<path d="M81.0973 186.376C81.0533 186.376 81.0094 186.361 80.9728 186.339C80.8629 186.266 80.8263 186.119 80.8995 186.009L83.9315 181.161C83.9681 181.103 84.0194 181.066 84.0853 181.051L86.319 180.605C86.4509 180.575 86.5754 180.663 86.6047 180.795C86.634 180.927 86.5461 181.051 86.4142 181.081L84.2831 181.513L81.3023 186.273C81.2584 186.339 81.1778 186.376 81.0973 186.376Z" fill="url(#paint16_linear_133_1330)"/>
<path d="M128.247 123.326C128.247 123.326 122.769 124.535 119.437 126.073C118.778 126.38 118.25 126.915 117.95 127.574C116.954 129.757 113.973 135.227 108.188 137.842C109.022 138.948 110.363 141.247 110.941 145.107C114.413 142.522 117.408 138.208 118.851 131.126C118.851 131.126 119.949 131.719 121.312 131.06C122.037 130.709 122.871 130.211 123.494 129.823C124.116 129.434 124.585 128.826 124.761 128.116C125.003 127.179 124.856 126.358 124.856 125.48L127.668 124.608C127.683 124.608 128.525 124.286 128.247 123.326Z" fill="url(#paint17_linear_133_1330)"/>
<path d="M110.941 145.107C110.355 141.24 109.015 138.948 108.188 137.842C104.599 139.468 99.9265 139.98 93.9723 137.922C93.4231 137.732 92.8518 137.622 92.2732 137.586C89.1094 137.402 78.6659 137.058 70.0313 139.914C68.215 140.515 66.7429 141.855 65.9813 143.598C63.645 148.959 59.866 161.168 70.3608 167.334C71.1664 165.335 72.0965 163.724 72.8948 162.537C71.2031 159.688 70.705 155.792 73.7004 150.717C75.8902 156.627 76.9155 165.247 77.1279 169.063C77.2011 170.322 76.9814 171.575 76.4834 172.732L76.4322 172.856C76.3296 173.105 76.4688 173.391 76.7398 173.45C82.65 174.775 88.8018 174.416 90.6327 174.262C90.9623 174.233 91.2333 173.999 91.3065 173.684C94.1774 161.571 94.1847 153.309 93.4817 148.088C96.1841 148.696 104.409 149.977 110.941 145.107Z" fill="url(#paint18_linear_133_1330)"/>
<path d="M93.5036 148.417C93.3864 148.417 93.2839 148.329 93.2692 148.212C92.5954 143.115 91.2186 140.888 91.2039 140.866C91.1307 140.757 91.1673 140.61 91.2772 140.537C91.387 140.464 91.5335 140.5 91.6067 140.61C91.6653 140.705 93.0495 142.932 93.7379 148.153C93.7526 148.285 93.6647 148.402 93.5329 148.424C93.5255 148.417 93.5182 148.417 93.5036 148.417Z" fill="url(#paint19_linear_133_1330)"/>
<path d="M78.9222 130.533C78.9222 130.533 78.3216 136.853 77.7943 138.728C77.7138 139.014 77.8383 139.314 78.0946 139.46C78.9881 139.973 81.1339 140.801 84.0634 139.365C84.5394 139.131 84.8251 138.64 84.8031 138.113L84.5468 132.005L78.9222 130.533Z" fill="url(#paint20_linear_133_1330)"/>
<path d="M84.6713 122.44C84.6713 122.44 86.5827 126.834 86.7146 129.141C86.8464 131.448 87.3371 132.942 84.6713 133.411C82.0055 133.872 79.7571 132.547 78.5414 130.247C78.5414 130.247 76.6372 126.71 77.062 125.26C77.4941 123.81 84.6713 122.44 84.6713 122.44Z" fill="url(#paint21_linear_133_1330)"/>
<path d="M79.4568 128.599L79.6106 128.533C79.801 128.446 79.8889 128.219 79.7863 128.028C79.4128 127.303 78.6805 125.633 79.6252 125.245C80.8483 124.747 85.6819 123.758 86.7219 122.045C87.7252 120.397 86.839 118.266 85.4988 117.665C85.4109 117.621 85.3011 117.658 85.2571 117.746L85.1473 117.958C85.074 118.105 84.8617 118.083 84.8104 117.921C84.7664 117.768 84.5687 117.746 84.4808 117.877C84.1586 118.39 83.2944 119.225 80.9801 119.65C77.6918 120.258 75.5167 121.591 75.4581 123.861C75.4581 124.007 75.3043 124.088 75.1798 124.007C74.9381 123.861 74.5499 123.788 74.0299 124.227C73.1291 124.989 73.4953 126.959 75.48 128.577C75.5752 128.658 75.5752 128.804 75.4727 128.87C75.1139 129.105 74.5792 129.661 75.9634 130.401C77.3988 131.17 78.4681 131.104 78.8782 131.038C78.9807 131.023 79.0467 130.921 79.0247 130.818L78.5853 128.819C78.5633 128.709 78.6439 128.599 78.761 128.599H79.4568Z" fill="url(#paint22_linear_133_1330)"/>
<path d="M79.5373 129.017C79.5373 129.017 78.805 126.212 77.5526 126.995C76.293 127.779 78.2044 130.137 79.2151 130.247L79.5373 129.017Z" fill="url(#paint23_linear_133_1330)"/>
<path d="M120.315 130.474C120.264 130.474 120.206 130.46 120.162 130.423C120.059 130.342 120.045 130.189 120.125 130.086C120.33 129.83 122.168 127.581 122.879 127.186C123.135 127.039 123.289 126.893 123.326 126.754C123.34 126.688 123.333 126.615 123.296 126.527L121.136 126.959L119.913 128.006C119.81 128.094 119.664 128.079 119.576 127.977C119.488 127.874 119.503 127.728 119.605 127.64L120.879 126.549C120.909 126.52 120.945 126.505 120.989 126.498L123.377 126.022C123.472 126 123.567 126.043 123.626 126.124C123.802 126.38 123.86 126.629 123.802 126.864C123.736 127.142 123.516 127.384 123.128 127.603C122.593 127.904 121.055 129.72 120.513 130.394C120.455 130.445 120.381 130.474 120.315 130.474Z" fill="#F8A570"/>
<path d="M79.4422 170.374L87.8937 170.476L84.9349 167.693C84.2025 166.997 83.0747 166.888 82.2252 167.437C81.7271 167.759 81.1925 168.199 80.7238 168.777C80.7238 168.777 75.4508 166.851 72.8948 162.537C72.0965 163.724 71.1664 165.328 70.3608 167.334C72.6604 168.682 75.6265 169.737 79.4422 170.374Z" fill="url(#paint24_linear_133_1330)"/>
<path d="M80.3576 171.465C80.3723 171.465 80.3869 171.465 80.4089 171.465L101.867 171.443C102.395 171.443 102.827 171.018 102.827 170.491C102.827 169.963 102.395 169.531 101.867 169.539L80.4089 169.561C79.8816 169.561 79.4495 169.985 79.4495 170.513C79.4422 171.025 79.845 171.435 80.3576 171.465Z" fill="url(#paint25_linear_133_1330)"/>
<path d="M121.158 152.189H103.288C101.97 152.189 100.769 152.943 100.205 154.122L91.9437 171.458H114.156C115.006 171.458 115.768 170.945 116.083 170.161L122.491 154.122C122.85 153.192 122.161 152.189 121.158 152.189Z" fill="url(#paint26_linear_133_1330)"/>
<path d="M108.568 161.073C108.18 162.266 108.466 163.416 109.206 163.658C109.945 163.9 110.861 163.123 111.249 161.929C111.637 160.736 111.351 159.586 110.612 159.344C109.865 159.11 108.949 159.886 108.568 161.073Z" fill="url(#paint27_linear_133_1330)"/>
<path d="M134.157 205.93L134.882 228.553C135.007 232.5 138.244 235.634 142.213 235.656L196.379 235.979C199.03 235.993 201.286 234.067 201.674 231.46C202.524 225.748 203.6 215.524 202.385 205.93H134.157Z" fill="url(#paint28_linear_133_1330)"/>
<path d="M195.259 234.682C195.171 234.682 195.097 234.616 195.097 234.529C195.097 234.441 195.163 234.367 195.251 234.36C195.566 234.346 195.874 234.309 196.181 234.236C196.269 234.214 196.357 234.272 196.372 234.36C196.394 234.448 196.335 234.536 196.255 234.558C195.932 234.624 195.595 234.675 195.259 234.682ZM192.996 234.675L192.021 234.668C191.934 234.668 191.86 234.595 191.86 234.507C191.86 234.419 191.934 234.346 192.021 234.346L192.988 234.353C193.076 234.353 193.149 234.426 193.149 234.514C193.157 234.602 193.083 234.675 192.996 234.675ZM189.758 234.66L188.784 234.653C188.697 234.653 188.623 234.58 188.623 234.492C188.623 234.404 188.697 234.331 188.784 234.331L189.751 234.338C189.839 234.338 189.912 234.411 189.912 234.499C189.92 234.587 189.854 234.66 189.758 234.66ZM186.529 234.638L185.555 234.631C185.467 234.631 185.394 234.558 185.394 234.47C185.394 234.382 185.467 234.309 185.555 234.309L186.521 234.316C186.609 234.316 186.683 234.389 186.683 234.477C186.69 234.565 186.617 234.638 186.529 234.638ZM183.299 234.616L182.325 234.609C182.237 234.609 182.164 234.536 182.164 234.448C182.164 234.36 182.252 234.287 182.325 234.287L183.292 234.294C183.38 234.294 183.453 234.367 183.453 234.455C183.46 234.551 183.387 234.616 183.299 234.616ZM180.062 234.602L179.088 234.595C179 234.595 178.927 234.521 178.927 234.433C178.927 234.346 179 234.272 179.088 234.272L180.055 234.28C180.142 234.28 180.216 234.353 180.216 234.441C180.223 234.529 180.15 234.602 180.062 234.602ZM176.832 234.58L175.858 234.573C175.77 234.573 175.697 234.499 175.697 234.411C175.697 234.324 175.77 234.25 175.858 234.25L176.825 234.258C176.913 234.258 176.986 234.331 176.986 234.419C176.993 234.507 176.92 234.58 176.832 234.58ZM173.595 234.565L172.621 234.558C172.533 234.558 172.46 234.485 172.46 234.397C172.46 234.309 172.533 234.236 172.621 234.236L173.588 234.243C173.676 234.243 173.749 234.316 173.749 234.404C173.756 234.492 173.69 234.565 173.595 234.565ZM170.365 234.543L169.391 234.536C169.303 234.536 169.23 234.463 169.23 234.375C169.23 234.287 169.303 234.214 169.391 234.214L170.358 234.221C170.446 234.221 170.519 234.294 170.519 234.382C170.527 234.47 170.453 234.543 170.365 234.543ZM167.136 234.521C167.128 234.521 167.128 234.521 167.136 234.521L166.162 234.514C166.074 234.514 166 234.441 166 234.353C166 234.265 166.074 234.192 166.162 234.192L167.128 234.199C167.216 234.199 167.289 234.272 167.289 234.36C167.297 234.455 167.224 234.521 167.136 234.521ZM163.899 234.507L162.925 234.499C162.837 234.499 162.763 234.426 162.763 234.338C162.763 234.25 162.837 234.177 162.925 234.177L163.891 234.184C163.979 234.184 164.052 234.258 164.052 234.346C164.06 234.433 163.986 234.507 163.899 234.507ZM160.669 234.485L159.695 234.477C159.607 234.477 159.534 234.404 159.534 234.316C159.534 234.228 159.607 234.155 159.695 234.155L160.662 234.162C160.749 234.162 160.823 234.236 160.823 234.324C160.83 234.411 160.757 234.485 160.669 234.485ZM157.432 234.47L156.458 234.463C156.37 234.463 156.297 234.389 156.297 234.302C156.297 234.214 156.37 234.14 156.458 234.14L157.424 234.148C157.512 234.148 157.586 234.221 157.586 234.309C157.593 234.397 157.52 234.47 157.432 234.47ZM154.202 234.448L153.228 234.441C153.14 234.441 153.067 234.367 153.067 234.28C153.067 234.192 153.14 234.118 153.228 234.118L154.195 234.126C154.283 234.126 154.356 234.199 154.356 234.287C154.363 234.375 154.29 234.448 154.202 234.448ZM150.965 234.426L149.991 234.419C149.903 234.419 149.83 234.346 149.83 234.258C149.83 234.17 149.918 234.111 149.991 234.097L150.958 234.104C151.046 234.104 151.119 234.177 151.119 234.265C151.126 234.36 151.06 234.426 150.965 234.426ZM147.735 234.411L146.761 234.404C146.673 234.404 146.6 234.331 146.6 234.243C146.6 234.155 146.673 234.082 146.761 234.082L147.728 234.089C147.816 234.089 147.889 234.162 147.889 234.25C147.896 234.338 147.823 234.411 147.735 234.411ZM144.506 234.389L143.531 234.382C143.444 234.382 143.37 234.309 143.37 234.221C143.37 234.133 143.444 234.06 143.531 234.06L144.498 234.067C144.586 234.067 144.659 234.14 144.659 234.228C144.667 234.316 144.593 234.389 144.506 234.389ZM141.305 234.031C141.29 234.031 141.268 234.031 141.254 234.023C140.939 233.921 140.631 233.796 140.338 233.65C140.258 233.613 140.229 233.511 140.265 233.43C140.302 233.349 140.404 233.32 140.485 233.357C140.77 233.496 141.063 233.62 141.364 233.716C141.452 233.745 141.496 233.833 141.466 233.921C141.437 233.987 141.378 234.031 141.305 234.031ZM198.239 233.577C198.195 233.577 198.144 233.555 198.115 233.518C198.056 233.445 198.071 233.349 198.137 233.291C198.378 233.093 198.605 232.873 198.811 232.639C198.869 232.573 198.972 232.566 199.038 232.617C199.103 232.676 199.111 232.778 199.06 232.844C198.847 233.1 198.605 233.335 198.342 233.54C198.305 233.562 198.269 233.577 198.239 233.577ZM138.581 232.353C138.537 232.353 138.5 232.339 138.464 232.31C138.229 232.075 138.009 231.826 137.812 231.563C137.76 231.489 137.768 231.387 137.841 231.335C137.914 231.284 138.017 231.292 138.068 231.365C138.258 231.614 138.471 231.855 138.691 232.075C138.756 232.141 138.756 232.244 138.691 232.302C138.661 232.339 138.617 232.353 138.581 232.353ZM199.968 230.911C199.953 230.911 199.938 230.911 199.924 230.903C199.836 230.881 199.785 230.794 199.807 230.706C199.85 230.537 199.887 230.369 199.909 230.2L199.975 229.768C199.99 229.68 200.07 229.614 200.158 229.629C200.246 229.644 200.305 229.724 200.297 229.812L200.231 230.244C200.202 230.427 200.165 230.61 200.121 230.786C200.099 230.867 200.041 230.911 199.968 230.911ZM136.874 229.644C136.808 229.644 136.742 229.6 136.72 229.534C136.611 229.226 136.53 228.897 136.464 228.574C136.449 228.487 136.508 228.399 136.596 228.384C136.684 228.369 136.772 228.428 136.786 228.516C136.845 228.823 136.926 229.131 137.028 229.431C137.057 229.519 137.013 229.607 136.926 229.636C136.911 229.636 136.889 229.644 136.874 229.644ZM200.436 227.718C200.429 227.718 200.422 227.718 200.414 227.718C200.327 227.703 200.261 227.622 200.275 227.534C200.312 227.22 200.356 226.905 200.392 226.575C200.4 226.487 200.48 226.421 200.568 226.436C200.656 226.443 200.722 226.524 200.707 226.612C200.671 226.941 200.634 227.264 200.59 227.578C200.583 227.652 200.517 227.718 200.436 227.718ZM136.471 226.451C136.384 226.451 136.31 226.385 136.31 226.297L136.281 225.33C136.281 225.242 136.347 225.169 136.435 225.162C136.515 225.154 136.596 225.228 136.603 225.315L136.633 226.282C136.633 226.37 136.567 226.451 136.471 226.451ZM200.788 224.503C200.781 224.503 200.781 224.503 200.773 224.503C200.685 224.495 200.619 224.415 200.627 224.327C200.656 224.012 200.685 223.69 200.715 223.36C200.722 223.272 200.803 223.214 200.89 223.214C200.978 223.221 201.044 223.301 201.037 223.389C201.008 223.719 200.978 224.041 200.949 224.356C200.942 224.437 200.868 224.503 200.788 224.503ZM136.369 223.221C136.281 223.221 136.208 223.155 136.208 223.067L136.179 222.1C136.179 222.012 136.244 221.939 136.332 221.932C136.42 221.932 136.493 221.998 136.501 222.086L136.53 223.052C136.53 223.14 136.464 223.214 136.369 223.221ZM201.052 221.28H201.044C200.956 221.273 200.89 221.2 200.89 221.112C200.912 220.789 200.934 220.467 200.949 220.145C200.956 220.057 201.03 219.984 201.117 219.991C201.205 219.998 201.271 220.072 201.271 220.16C201.249 220.489 201.235 220.811 201.213 221.126C201.205 221.214 201.132 221.28 201.052 221.28ZM136.259 219.991C136.171 219.991 136.098 219.925 136.098 219.837L136.069 218.871C136.069 218.783 136.135 218.709 136.222 218.702C136.31 218.695 136.384 218.768 136.391 218.856L136.42 219.823C136.428 219.911 136.354 219.984 136.259 219.991C136.266 219.991 136.266 219.991 136.259 219.991ZM201.213 218.05C201.117 218.05 201.044 217.97 201.052 217.882C201.059 217.56 201.074 217.237 201.081 216.915C201.081 216.827 201.169 216.761 201.249 216.754C201.337 216.754 201.41 216.827 201.41 216.923C201.403 217.245 201.396 217.574 201.381 217.897C201.374 217.977 201.301 218.05 201.213 218.05ZM136.157 216.754C136.069 216.754 135.995 216.688 135.995 216.6L135.966 215.634C135.966 215.546 136.032 215.472 136.12 215.465C136.208 215.472 136.281 215.531 136.288 215.619L136.318 216.586C136.325 216.681 136.252 216.754 136.157 216.754ZM201.264 214.813C201.176 214.813 201.103 214.74 201.103 214.652C201.103 214.33 201.103 214.008 201.096 213.685C201.096 213.598 201.169 213.524 201.257 213.524C201.337 213.524 201.418 213.598 201.418 213.685C201.425 214.008 201.425 214.337 201.425 214.659C201.425 214.74 201.359 214.813 201.264 214.813ZM136.054 213.524C135.966 213.524 135.893 213.458 135.893 213.371L135.864 212.404C135.864 212.316 135.93 212.243 136.017 212.235C136.091 212.235 136.179 212.301 136.186 212.389L136.215 213.356C136.222 213.451 136.149 213.524 136.054 213.524ZM201.198 211.584C201.11 211.584 201.037 211.518 201.037 211.43C201.022 211.108 201.008 210.785 200.993 210.463C200.986 210.375 201.059 210.295 201.147 210.295C201.235 210.287 201.315 210.36 201.315 210.448C201.33 210.771 201.352 211.093 201.359 211.422C201.366 211.503 201.293 211.584 201.198 211.584ZM135.951 210.295C135.864 210.295 135.79 210.229 135.79 210.141L135.761 209.174C135.761 209.086 135.827 209.013 135.915 209.006C135.988 208.998 136.076 209.072 136.083 209.159L136.113 210.126C136.113 210.214 136.047 210.295 135.951 210.295ZM200.993 208.361C200.912 208.361 200.839 208.295 200.832 208.215C200.803 207.892 200.773 207.57 200.737 207.255C200.729 207.167 200.795 207.087 200.883 207.079C200.971 207.072 201.052 207.138 201.059 207.226C201.096 207.548 201.125 207.87 201.154 208.193C201.161 208.281 201.096 208.361 201.008 208.368C201 208.361 200.993 208.361 200.993 208.361ZM135.849 207.065C135.761 207.065 135.688 206.999 135.688 206.911L135.659 205.944C135.659 205.856 135.724 205.783 135.812 205.776C135.886 205.776 135.973 205.842 135.981 205.93L136.01 206.896C136.01 206.984 135.944 207.058 135.849 207.065ZM199.792 206.091H198.825C198.737 206.091 198.664 206.018 198.664 205.93C198.664 205.842 198.737 205.769 198.825 205.769H199.792C199.88 205.769 199.953 205.842 199.953 205.93C199.953 206.025 199.88 206.091 199.792 206.091ZM196.562 206.091H195.595C195.508 206.091 195.434 206.018 195.434 205.93C195.434 205.842 195.508 205.769 195.595 205.769H196.562C196.65 205.769 196.723 205.842 196.723 205.93C196.723 206.025 196.65 206.091 196.562 206.091ZM193.325 206.091H192.358C192.27 206.091 192.197 206.018 192.197 205.93C192.197 205.842 192.27 205.769 192.358 205.769H193.325C193.413 205.769 193.486 205.842 193.486 205.93C193.486 206.025 193.413 206.091 193.325 206.091ZM190.095 206.091H189.129C189.041 206.091 188.968 206.018 188.968 205.93C188.968 205.842 189.041 205.769 189.129 205.769H190.095C190.183 205.769 190.256 205.842 190.256 205.93C190.256 206.025 190.183 206.091 190.095 206.091ZM186.858 206.091H185.892C185.804 206.091 185.73 206.018 185.73 205.93C185.73 205.842 185.804 205.769 185.892 205.769H186.858C186.946 205.769 187.019 205.842 187.019 205.93C187.019 206.025 186.954 206.091 186.858 206.091ZM183.629 206.091H182.662C182.574 206.091 182.501 206.018 182.501 205.93C182.501 205.842 182.574 205.769 182.662 205.769H183.629C183.716 205.769 183.79 205.842 183.79 205.93C183.79 206.025 183.716 206.091 183.629 206.091ZM180.399 206.091H179.432C179.344 206.091 179.271 206.018 179.271 205.93C179.271 205.842 179.344 205.769 179.432 205.769H180.399C180.487 205.769 180.56 205.842 180.56 205.93C180.56 206.025 180.487 206.091 180.399 206.091ZM177.162 206.091H176.195C176.107 206.091 176.034 206.018 176.034 205.93C176.034 205.842 176.107 205.769 176.195 205.769H177.162C177.25 205.769 177.323 205.842 177.323 205.93C177.323 206.025 177.25 206.091 177.162 206.091ZM173.932 206.091H172.965C172.877 206.091 172.804 206.018 172.804 205.93C172.804 205.842 172.877 205.769 172.965 205.769H173.932C174.02 205.769 174.093 205.842 174.093 205.93C174.093 206.025 174.02 206.091 173.932 206.091ZM170.695 206.091H169.728C169.64 206.091 169.567 206.018 169.567 205.93C169.567 205.842 169.64 205.769 169.728 205.769H170.695C170.783 205.769 170.856 205.842 170.856 205.93C170.856 206.025 170.783 206.091 170.695 206.091ZM167.465 206.091H166.499C166.411 206.091 166.337 206.018 166.337 205.93C166.337 205.842 166.411 205.769 166.499 205.769H167.465C167.553 205.769 167.626 205.842 167.626 205.93C167.626 206.025 167.553 206.091 167.465 206.091ZM164.228 206.091H163.261C163.174 206.091 163.1 206.018 163.1 205.93C163.1 205.842 163.174 205.769 163.261 205.769H164.228C164.316 205.769 164.389 205.842 164.389 205.93C164.389 206.025 164.323 206.091 164.228 206.091ZM160.998 206.091H160.032C159.944 206.091 159.871 206.018 159.871 205.93C159.871 205.842 159.944 205.769 160.032 205.769H160.998C161.086 205.769 161.16 205.842 161.16 205.93C161.16 206.025 161.086 206.091 160.998 206.091ZM157.769 206.091H156.802C156.714 206.091 156.641 206.018 156.641 205.93C156.641 205.842 156.714 205.769 156.802 205.769H157.769C157.857 205.769 157.93 205.842 157.93 205.93C157.93 206.025 157.857 206.091 157.769 206.091ZM154.532 206.091H153.565C153.477 206.091 153.404 206.018 153.404 205.93C153.404 205.842 153.477 205.769 153.565 205.769H154.532C154.62 205.769 154.693 205.842 154.693 205.93C154.693 206.025 154.62 206.091 154.532 206.091ZM151.302 206.091H150.335C150.247 206.091 150.174 206.018 150.174 205.93C150.174 205.842 150.247 205.769 150.335 205.769H151.302C151.39 205.769 151.463 205.842 151.463 205.93C151.463 206.025 151.39 206.091 151.302 206.091ZM148.065 206.091H147.098C147.01 206.091 146.937 206.018 146.937 205.93C146.937 205.842 147.01 205.769 147.098 205.769H148.065C148.153 205.769 148.226 205.842 148.226 205.93C148.226 206.025 148.153 206.091 148.065 206.091ZM144.835 206.091H143.868C143.78 206.091 143.707 206.018 143.707 205.93C143.707 205.842 143.78 205.769 143.868 205.769H144.835C144.923 205.769 144.996 205.842 144.996 205.93C144.996 206.025 144.923 206.091 144.835 206.091ZM141.598 206.091H140.631C140.543 206.091 140.47 206.018 140.47 205.93C140.47 205.842 140.543 205.769 140.631 205.769H141.598C141.686 205.769 141.759 205.842 141.759 205.93C141.759 206.025 141.693 206.091 141.598 206.091ZM138.368 206.091H137.402C137.314 206.091 137.24 206.018 137.24 205.93C137.24 205.842 137.314 205.769 137.402 205.769H138.368C138.456 205.769 138.529 205.842 138.529 205.93C138.529 206.025 138.456 206.091 138.368 206.091Z" fill="white"/>
<path d="M150.028 189.51L150.189 187.767C150.372 187.35 150.753 187.057 151.207 186.983C152.891 186.712 157.08 186.244 159.094 187.745L159.395 189.774L150.028 189.51Z" fill="url(#paint29_linear_133_1330)"/>
<path d="M155.301 187.833C154.913 187.928 154.524 187.928 154.136 187.833C153.668 187.716 153.331 187.298 153.331 186.808V181.344H156.114V186.8C156.106 187.291 155.777 187.716 155.301 187.833Z" fill="url(#paint30_linear_133_1330)"/>
<path d="M176.957 189.51L177.118 187.767C177.301 187.35 177.682 187.057 178.136 186.983C179.82 186.712 184.009 186.244 186.023 187.745L186.324 189.774L176.957 189.51Z" fill="url(#paint31_linear_133_1330)"/>
<path d="M182.23 187.833C181.842 187.928 181.453 187.928 181.065 187.833C180.597 187.716 180.26 187.298 180.26 186.808V180.773H183.043V186.808C183.035 187.291 182.698 187.716 182.23 187.833Z" fill="url(#paint32_linear_133_1330)"/>
<path d="M153.045 182.684L182.94 181.696C183.621 181.674 184.2 181.183 184.317 180.509C184.478 179.572 184.625 178.173 184.412 176.723C184.171 175.068 182.75 173.845 181.073 173.801C175.492 173.669 161.299 173.669 153.47 176.767C152.642 177.096 152.027 177.799 151.822 178.664C151.624 179.484 151.492 180.582 151.749 181.703C151.888 182.296 152.437 182.706 153.045 182.684Z" fill="url(#paint33_linear_133_1330)"/>
<path d="M152.525 181.322C152.364 181.322 152.217 181.198 152.203 181.029C152.195 180.978 152.086 179.821 152.386 178.708C152.627 177.822 153.323 177.111 154.217 176.848C155.894 176.357 159.094 175.522 161.716 175.449C161.899 175.441 162.046 175.588 162.046 175.764C162.053 175.939 161.907 176.093 161.731 176.093C159.182 176.166 156.04 176.987 154.4 177.47C153.726 177.668 153.191 178.21 153.016 178.876C152.745 179.88 152.847 180.956 152.847 180.963C152.862 181.139 152.737 181.3 152.562 181.315C152.547 181.322 152.54 181.322 152.525 181.322Z" fill="white"/>
<path d="M136.157 188.829C145.817 188.704 187.598 188.265 199.733 189.73C200.781 189.854 201.63 190.623 201.857 191.641C202.575 194.885 204.018 202.414 203.849 209.884C203.827 210.902 203.08 211.759 202.077 211.95L174.372 217.193H164.528L135.007 211.327C133.967 211.122 133.198 210.236 133.147 209.181C132.956 205.424 132.656 196.614 133.674 190.938C133.894 189.73 134.926 188.843 136.157 188.829Z" fill="url(#paint34_linear_133_1330)"/>
<path d="M164.77 214.967C164.763 214.967 164.748 214.967 164.741 214.967L163.789 214.777C163.701 214.762 163.642 214.674 163.664 214.586C163.679 214.498 163.767 214.44 163.855 214.462L164.799 214.652C164.807 214.652 164.814 214.652 164.821 214.652H165.788C165.876 214.652 165.949 214.725 165.949 214.813C165.949 214.901 165.876 214.974 165.788 214.974H164.821C164.814 214.974 164.807 214.974 164.799 214.974C164.785 214.967 164.777 214.967 164.77 214.967ZM172.248 214.967H171.281C171.193 214.967 171.12 214.894 171.12 214.806C171.12 214.718 171.193 214.645 171.281 214.645H172.248C172.335 214.645 172.409 214.718 172.409 214.806C172.409 214.894 172.335 214.967 172.248 214.967ZM169.018 214.967H168.051C167.963 214.967 167.89 214.894 167.89 214.806C167.89 214.718 167.963 214.645 168.051 214.645H169.018C169.106 214.645 169.179 214.718 169.179 214.806C169.179 214.894 169.106 214.967 169.018 214.967ZM174.503 214.901C174.43 214.901 174.357 214.85 174.342 214.769C174.327 214.681 174.386 214.593 174.474 214.579L175.426 214.396C175.514 214.381 175.602 214.44 175.616 214.528C175.631 214.615 175.573 214.703 175.485 214.718L174.533 214.901C174.525 214.901 174.511 214.901 174.503 214.901ZM161.599 214.337C161.592 214.337 161.577 214.337 161.57 214.337L160.618 214.147C160.53 214.132 160.471 214.044 160.493 213.956C160.508 213.868 160.596 213.81 160.684 213.832L161.636 214.022C161.723 214.037 161.782 214.125 161.76 214.213C161.738 214.278 161.672 214.337 161.599 214.337ZM177.682 214.3C177.609 214.3 177.535 214.249 177.521 214.169C177.506 214.081 177.565 213.993 177.652 213.978L178.605 213.795C178.692 213.78 178.78 213.839 178.795 213.927C178.81 214.015 178.751 214.103 178.663 214.117L177.711 214.3C177.704 214.293 177.689 214.3 177.682 214.3ZM158.428 213.707C158.42 213.707 158.406 213.707 158.399 213.707L157.446 213.517C157.359 213.502 157.3 213.414 157.322 213.326C157.337 213.239 157.424 213.18 157.512 213.202L158.464 213.392C158.552 213.407 158.611 213.495 158.589 213.583C158.567 213.649 158.501 213.707 158.428 213.707ZM180.86 213.7C180.787 213.7 180.714 213.649 180.699 213.568C180.684 213.48 180.743 213.392 180.831 213.378L181.783 213.195C181.871 213.18 181.959 213.239 181.973 213.326C181.988 213.414 181.929 213.502 181.842 213.517L180.89 213.7C180.875 213.693 180.868 213.7 180.86 213.7ZM184.031 213.092C183.958 213.092 183.885 213.041 183.87 212.96C183.856 212.872 183.914 212.784 184.002 212.77L184.954 212.587C185.042 212.572 185.13 212.631 185.145 212.719C185.159 212.806 185.101 212.894 185.013 212.909L184.061 213.092C184.053 213.092 184.046 213.092 184.031 213.092ZM155.257 213.077C155.249 213.077 155.235 213.077 155.227 213.077L154.275 212.887C154.187 212.872 154.129 212.784 154.151 212.697C154.165 212.609 154.253 212.55 154.341 212.572L155.293 212.762C155.381 212.777 155.44 212.865 155.418 212.953C155.396 213.019 155.33 213.077 155.257 213.077ZM187.21 212.492C187.137 212.492 187.063 212.44 187.049 212.36C187.034 212.272 187.093 212.184 187.181 212.169L188.133 211.986C188.22 211.972 188.308 212.03 188.323 212.118C188.338 212.206 188.279 212.294 188.191 212.308L187.239 212.492C187.232 212.492 187.217 212.492 187.21 212.492ZM152.086 212.448C152.078 212.448 152.064 212.448 152.056 212.448L151.104 212.257C151.016 212.243 150.958 212.155 150.98 212.067C150.994 211.979 151.082 211.92 151.17 211.942L152.122 212.133C152.21 212.147 152.269 212.235 152.247 212.323C152.225 212.389 152.159 212.448 152.086 212.448ZM190.388 211.891C190.315 211.891 190.242 211.84 190.227 211.759C190.213 211.671 190.271 211.583 190.359 211.569L191.311 211.386C191.399 211.371 191.487 211.43 191.501 211.517C191.516 211.605 191.458 211.693 191.37 211.708L190.418 211.891C190.403 211.891 190.396 211.891 190.388 211.891ZM148.914 211.818C148.907 211.818 148.892 211.818 148.885 211.818L147.933 211.627C147.845 211.613 147.787 211.525 147.808 211.437C147.823 211.349 147.911 211.29 147.999 211.312L148.951 211.503C149.039 211.517 149.097 211.605 149.075 211.693C149.054 211.759 148.988 211.818 148.914 211.818ZM193.559 211.29C193.486 211.29 193.413 211.239 193.398 211.159C193.384 211.071 193.442 210.983 193.53 210.968L194.482 210.785C194.57 210.77 194.658 210.829 194.673 210.917C194.687 211.005 194.629 211.093 194.541 211.107L193.589 211.29C193.581 211.29 193.574 211.29 193.559 211.29ZM145.743 211.181C145.736 211.181 145.721 211.181 145.714 211.181L144.762 210.99C144.674 210.976 144.615 210.888 144.637 210.8C144.652 210.712 144.74 210.653 144.828 210.675L145.78 210.866C145.868 210.88 145.926 210.968 145.904 211.056C145.882 211.129 145.816 211.181 145.743 211.181ZM196.738 210.69C196.665 210.69 196.591 210.639 196.577 210.558C196.562 210.47 196.621 210.382 196.709 210.368L197.661 210.185C197.749 210.17 197.836 210.229 197.851 210.316C197.866 210.404 197.807 210.492 197.719 210.507L196.767 210.69C196.76 210.69 196.753 210.69 196.738 210.69ZM142.572 210.551C142.565 210.551 142.55 210.551 142.543 210.551L141.591 210.36C141.503 210.346 141.444 210.258 141.466 210.17C141.481 210.082 141.569 210.023 141.657 210.045L142.609 210.236C142.697 210.25 142.755 210.338 142.733 210.426C142.711 210.499 142.645 210.551 142.572 210.551ZM199.916 210.089C199.843 210.089 199.77 210.038 199.755 209.958C199.741 209.87 199.799 209.782 199.887 209.767L200.839 209.584C200.927 209.569 201.015 209.628 201.03 209.716C201.044 209.804 200.986 209.892 200.898 209.906L199.946 210.089C199.938 210.089 199.924 210.089 199.916 210.089ZM139.401 209.921C139.394 209.921 139.379 209.921 139.372 209.921L138.42 209.731C138.332 209.716 138.273 209.628 138.295 209.54C138.31 209.452 138.398 209.394 138.485 209.416L139.438 209.606C139.525 209.621 139.584 209.709 139.562 209.796C139.54 209.87 139.474 209.921 139.401 209.921ZM136.23 209.291C136.222 209.291 136.208 209.291 136.2 209.291L135.38 209.13L135.358 208.749C135.351 208.661 135.424 208.581 135.512 208.581C135.6 208.566 135.681 208.647 135.681 208.734L135.688 208.866L136.259 208.983C136.347 208.998 136.406 209.086 136.384 209.174C136.376 209.24 136.303 209.291 136.23 209.291ZM201.469 208.141C201.381 208.141 201.308 208.068 201.308 207.98C201.301 207.658 201.301 207.336 201.286 207.013C201.286 206.926 201.352 206.852 201.44 206.845C201.528 206.845 201.601 206.911 201.608 206.999C201.615 207.321 201.623 207.643 201.63 207.973C201.637 208.068 201.564 208.141 201.469 208.141C201.476 208.141 201.476 208.141 201.469 208.141ZM135.424 206.633C135.336 206.633 135.263 206.567 135.263 206.479C135.256 206.164 135.241 205.842 135.234 205.505C135.234 205.417 135.3 205.344 135.388 205.336C135.475 205.344 135.549 205.402 135.556 205.49C135.563 205.827 135.578 206.149 135.585 206.457C135.593 206.559 135.519 206.633 135.424 206.633ZM201.344 204.912C201.257 204.912 201.191 204.846 201.183 204.758C201.161 204.435 201.139 204.113 201.117 203.791C201.11 203.703 201.176 203.623 201.264 203.615C201.352 203.608 201.432 203.674 201.44 203.762C201.462 204.084 201.491 204.406 201.506 204.728C201.513 204.816 201.447 204.897 201.352 204.897C201.352 204.912 201.352 204.912 201.344 204.912ZM135.351 203.403C135.263 203.403 135.19 203.33 135.19 203.242C135.19 202.919 135.182 202.597 135.182 202.268C135.182 202.18 135.256 202.107 135.344 202.107C135.431 202.107 135.505 202.18 135.505 202.268C135.505 202.597 135.512 202.919 135.512 203.234C135.512 203.33 135.446 203.403 135.351 203.403ZM201.066 201.689C200.986 201.689 200.912 201.631 200.905 201.543C200.868 201.22 200.832 200.898 200.795 200.583C200.788 200.495 200.847 200.415 200.934 200.4C201.022 200.385 201.103 200.451 201.117 200.539C201.154 200.854 201.191 201.176 201.227 201.506C201.235 201.594 201.176 201.674 201.081 201.682C201.074 201.689 201.074 201.689 201.066 201.689ZM135.358 200.166C135.263 200.166 135.197 200.093 135.197 200.005C135.204 199.682 135.212 199.36 135.219 199.031C135.219 198.943 135.292 198.877 135.388 198.869C135.475 198.869 135.549 198.943 135.549 199.038C135.541 199.36 135.534 199.682 135.527 200.005C135.519 200.1 135.446 200.166 135.358 200.166ZM200.656 198.481C200.576 198.481 200.51 198.423 200.495 198.342C200.444 198.013 200.4 197.698 200.348 197.383C200.334 197.295 200.392 197.214 200.48 197.2C200.568 197.185 200.649 197.244 200.663 197.332C200.715 197.646 200.759 197.961 200.81 198.291C200.825 198.379 200.759 198.459 200.671 198.474C200.671 198.481 200.663 198.481 200.656 198.481ZM135.461 196.936H135.453C135.366 196.929 135.292 196.855 135.3 196.768C135.314 196.445 135.336 196.116 135.358 195.794C135.366 195.706 135.439 195.632 135.527 195.64C135.615 195.647 135.681 195.72 135.681 195.808C135.659 196.13 135.637 196.453 135.622 196.775C135.615 196.87 135.549 196.936 135.461 196.936ZM200.129 195.296C200.056 195.296 199.982 195.244 199.968 195.164C199.909 194.827 199.843 194.512 199.785 194.212C199.77 194.124 199.821 194.036 199.909 194.021C199.997 194.007 200.085 194.065 200.099 194.146C200.158 194.446 200.217 194.768 200.283 195.098C200.297 195.186 200.239 195.266 200.151 195.288C200.151 195.288 200.136 195.296 200.129 195.296ZM135.717 193.714C135.71 193.714 135.702 193.714 135.702 193.714C135.615 193.706 135.549 193.626 135.556 193.538C135.593 193.208 135.629 192.886 135.673 192.571C135.688 192.483 135.768 192.417 135.856 192.432C135.944 192.447 136.01 192.527 135.995 192.615C135.951 192.93 135.915 193.245 135.878 193.574C135.864 193.655 135.798 193.714 135.717 193.714ZM199.352 192.249C199.345 192.249 199.338 192.249 199.33 192.249C199.03 192.212 198.708 192.176 198.371 192.146C198.283 192.139 198.217 192.058 198.225 191.971C198.232 191.883 198.313 191.824 198.4 191.824C198.745 191.861 199.067 191.89 199.367 191.927C199.455 191.934 199.521 192.015 199.506 192.102C199.499 192.19 199.433 192.249 199.352 192.249ZM196.13 191.963C196.123 191.963 196.123 191.963 196.115 191.963C195.808 191.941 195.486 191.919 195.149 191.897C195.061 191.89 194.995 191.817 194.995 191.729C195.002 191.641 195.075 191.575 195.163 191.575C195.5 191.597 195.822 191.619 196.13 191.641C196.218 191.648 196.284 191.722 196.277 191.817C196.284 191.897 196.211 191.963 196.13 191.963ZM192.9 191.766H192.893C192.578 191.751 192.256 191.736 191.926 191.722C191.838 191.714 191.765 191.641 191.772 191.553C191.78 191.465 191.853 191.392 191.941 191.399C192.27 191.414 192.593 191.429 192.908 191.443C192.996 191.451 193.069 191.524 193.061 191.612C193.061 191.7 192.988 191.766 192.9 191.766ZM189.671 191.626L188.697 191.59C188.609 191.59 188.535 191.509 188.543 191.421C188.543 191.333 188.623 191.268 188.711 191.268L189.678 191.304C189.766 191.304 189.839 191.385 189.832 191.473C189.832 191.56 189.758 191.626 189.671 191.626ZM186.441 191.517L185.467 191.487C185.379 191.487 185.306 191.414 185.313 191.319C185.313 191.231 185.379 191.165 185.481 191.165L186.448 191.194C186.536 191.194 186.609 191.275 186.602 191.363C186.602 191.451 186.529 191.517 186.441 191.517ZM183.211 191.436L182.237 191.414C182.149 191.414 182.076 191.341 182.076 191.246C182.076 191.158 182.149 191.084 182.237 191.084L183.204 191.106C183.292 191.106 183.365 191.18 183.365 191.275C183.372 191.363 183.299 191.436 183.211 191.436ZM179.974 191.37L179 191.355C178.912 191.355 178.839 191.282 178.839 191.194C178.839 191.106 178.912 191.033 179 191.033L179.967 191.048C180.055 191.048 180.128 191.121 180.128 191.216C180.135 191.297 180.062 191.37 179.974 191.37ZM136.969 191.37C136.882 191.37 136.808 191.297 136.808 191.209C136.808 191.121 136.882 191.048 136.969 191.048L137.944 191.033C138.031 191.033 138.105 191.106 138.105 191.194C138.105 191.282 138.031 191.355 137.944 191.355L136.969 191.37ZM140.207 191.333C140.119 191.333 140.045 191.26 140.045 191.172C140.045 191.084 140.119 191.011 140.207 191.011L141.173 191.004C141.261 191.004 141.334 191.077 141.334 191.165C141.334 191.253 141.261 191.326 141.173 191.326L140.207 191.333ZM176.744 191.319L175.77 191.304C175.682 191.304 175.609 191.231 175.609 191.143C175.609 191.055 175.682 190.982 175.77 190.982L176.737 190.997C176.825 190.997 176.898 191.07 176.898 191.158C176.905 191.246 176.832 191.319 176.744 191.319ZM143.444 191.304C143.356 191.304 143.282 191.231 143.282 191.143C143.282 191.055 143.356 190.982 143.444 190.982L144.41 190.975C144.498 190.975 144.571 191.048 144.571 191.136C144.571 191.224 144.498 191.297 144.41 191.297L143.444 191.304ZM173.515 191.282L172.541 191.275C172.453 191.275 172.379 191.202 172.379 191.114C172.379 191.026 172.453 190.953 172.541 190.953L173.507 190.96C173.595 190.96 173.668 191.033 173.668 191.121C173.676 191.209 173.602 191.282 173.515 191.282ZM146.673 191.275C146.585 191.275 146.512 191.202 146.512 191.114C146.512 191.026 146.585 190.953 146.673 190.953L147.64 190.945C147.728 190.945 147.801 191.019 147.801 191.106C147.801 191.194 147.728 191.268 147.64 191.268L146.673 191.275ZM170.278 191.253L169.303 191.246C169.216 191.246 169.142 191.172 169.142 191.084C169.142 190.997 169.216 190.923 169.303 190.923L170.27 190.931C170.358 190.931 170.431 191.004 170.431 191.092C170.439 191.18 170.365 191.253 170.278 191.253ZM149.91 191.253C149.823 191.253 149.749 191.18 149.749 191.092C149.749 191.004 149.823 190.931 149.91 190.931L150.877 190.923C150.965 190.923 151.038 190.997 151.038 191.084C151.038 191.172 150.965 191.246 150.877 191.246L149.91 191.253ZM153.14 191.238C153.052 191.238 152.979 191.165 152.979 191.077C152.979 190.989 153.052 190.916 153.14 190.916L154.107 190.909C154.195 190.909 154.268 190.982 154.268 191.07C154.268 191.158 154.195 191.231 154.107 191.231L153.14 191.238ZM167.048 191.238L166.074 191.231C165.986 191.231 165.913 191.158 165.913 191.07C165.913 190.982 165.986 190.909 166.074 190.909L167.04 190.916C167.128 190.916 167.202 190.989 167.202 191.077C167.209 191.165 167.136 191.238 167.048 191.238ZM156.377 191.224C156.289 191.224 156.216 191.15 156.216 191.062C156.216 190.975 156.289 190.901 156.377 190.901H157.344C157.424 190.894 157.505 190.975 157.505 191.062C157.505 191.15 157.432 191.224 157.344 191.224H156.377ZM163.811 191.224H162.844C162.756 191.224 162.683 191.15 162.683 191.062C162.683 190.975 162.756 190.901 162.844 190.901H163.811C163.899 190.901 163.972 190.975 163.972 191.062C163.972 191.15 163.899 191.224 163.811 191.224ZM159.607 191.224C159.519 191.224 159.446 191.15 159.446 191.062C159.446 190.975 159.519 190.901 159.607 190.901H160.574C160.662 190.901 160.735 190.975 160.735 191.062C160.735 191.15 160.662 191.224 160.574 191.224H159.607Z" fill="white"/>
<path d="M173.449 221.324H164.829C163.701 221.324 162.749 220.482 162.617 219.369L161.621 211.071C161.46 209.753 162.5 208.588 163.84 208.588H174.196C175.507 208.588 176.532 209.709 176.415 211.005L175.675 219.303C175.565 220.445 174.606 221.324 173.449 221.324Z" fill="url(#paint35_linear_133_1330)"/>
<path opacity="0.32" d="M172.387 219.801H165.825C164.968 219.801 164.243 219.164 164.14 218.314L163.379 212.001C163.261 210.998 164.045 210.112 165.063 210.112H172.943C173.939 210.112 174.723 210.961 174.635 211.95L174.071 218.263C173.998 219.127 173.266 219.801 172.387 219.801Z" fill="url(#paint36_linear_133_1330)"/>
<defs>
<linearGradient id="paint0_linear_133_1330" x1="35.0715" y1="58.0436" x2="424.067" y2="368.876" gradientUnits="userSpaceOnUse">
<stop stop-color="#ECECEC"/>
<stop offset="0.7786" stop-color="#82B3F4"/>
<stop offset="1" stop-color="#448DEF"/>
</linearGradient>
<linearGradient id="paint1_linear_133_1330" x1="139.931" y1="167.181" x2="-34.5349" y2="59.2686" gradientUnits="userSpaceOnUse">
<stop stop-color="#47AFF0"/>
<stop offset="1" stop-color="#46ADF0"/>
</linearGradient>
<linearGradient id="paint2_linear_133_1330" x1="32.9677" y1="106.613" x2="124.634" y2="150.376" gradientUnits="userSpaceOnUse">
<stop stop-color="#4FBEF1"/>
<stop offset="1" stop-color="#2F80ED"/>
</linearGradient>
<linearGradient id="paint3_linear_133_1330" x1="128.183" y1="76.4515" x2="129.946" y2="-89.1314" gradientUnits="userSpaceOnUse">
<stop stop-color="#3E9EEF"/>
<stop offset="1" stop-color="#40A2EF"/>
</linearGradient>
<linearGradient id="paint4_linear_133_1330" x1="104.527" y1="46.2901" x2="109.849" y2="150.968" gradientUnits="userSpaceOnUse">
<stop stop-color="#3F9FEF"/>
<stop offset="1" stop-color="#3892EE"/>
</linearGradient>
<linearGradient id="paint5_linear_133_1330" x1="208.021" y1="108.979" x2="32.3763" y2="256.828" gradientUnits="userSpaceOnUse">
<stop stop-color="#4BB7F1"/>
<stop offset="1" stop-color="#3790EE"/>
</linearGradient>
<linearGradient id="paint6_linear_133_1330" x1="191.462" y1="120.806" x2="232.647" y2="123.771" gradientUnits="userSpaceOnUse">
<stop stop-color="#49B3F1"/>
<stop offset="1" stop-color="#2F80ED"/>
</linearGradient>
<linearGradient id="paint7_linear_133_1330" x1="123.039" y1="35.0012" x2="126.146" y2="35.0012" gradientUnits="userSpaceOnUse">
<stop stop-color="#B37CFF"/>
<stop offset="1" stop-color="#F895E7"/>
</linearGradient>
<linearGradient id="paint8_linear_133_1330" x1="139.166" y1="58.742" x2="141.298" y2="58.742" gradientUnits="userSpaceOnUse">
<stop stop-color="#B37CFF"/>
<stop offset="1" stop-color="#F895E7"/>
</linearGradient>
<linearGradient id="paint9_linear_133_1330" x1="35.6104" y1="93.3214" x2="37.1268" y2="93.3214" gradientUnits="userSpaceOnUse">
<stop stop-color="#B37CFF"/>
<stop offset="1" stop-color="#F895E7"/>
</linearGradient>
<linearGradient id="paint10_linear_133_1330" x1="44.531" y1="106.898" x2="46.8508" y2="106.898" gradientUnits="userSpaceOnUse">
<stop stop-color="#B37CFF"/>
<stop offset="1" stop-color="#F895E7"/>
</linearGradient>
<linearGradient id="paint11_linear_133_1330" x1="91.5611" y1="226.459" x2="90.2851" y2="234.689" gradientUnits="userSpaceOnUse">
<stop stop-color="#13335F"/>
<stop offset="1" stop-color="#1C4D8E"/>
</linearGradient>
<linearGradient id="paint12_linear_133_1330" x1="78.8843" y1="225.129" x2="82.5849" y2="225.129" gradientUnits="userSpaceOnUse">
<stop stop-color="#F9B776"/>
<stop offset="1" stop-color="#F47960"/>
</linearGradient>
<linearGradient id="paint13_linear_133_1330" x1="62.3076" y1="224.743" x2="54.6197" y2="238.267" gradientUnits="userSpaceOnUse">
<stop stop-color="#13335F"/>
<stop offset="1" stop-color="#1C4D8E"/>
</linearGradient>
<linearGradient id="paint14_linear_133_1330" x1="58.0997" y1="223.199" x2="62.5224" y2="223.199" gradientUnits="userSpaceOnUse">
<stop stop-color="#F9B776"/>
<stop offset="1" stop-color="#F47960"/>
</linearGradient>
<linearGradient id="paint15_linear_133_1330" x1="93.873" y1="175.473" x2="56.1132" y2="237.327" gradientUnits="userSpaceOnUse">
<stop stop-color="#13335F"/>
<stop offset="1" stop-color="#1C4D8E"/>
</linearGradient>
<linearGradient id="paint16_linear_133_1330" x1="87.1174" y1="180.981" x2="84.009" y2="189.131" gradientUnits="userSpaceOnUse">
<stop stop-color="#13335F"/>
<stop offset="1" stop-color="#1C4D8E"/>
</linearGradient>
<linearGradient id="paint17_linear_133_1330" x1="118.932" y1="130.04" x2="101.415" y2="152.828" gradientUnits="userSpaceOnUse">
<stop stop-color="#F9B776"/>
<stop offset="1" stop-color="#F47960"/>
</linearGradient>
<linearGradient id="paint18_linear_133_1330" x1="98.1524" y1="135.378" x2="39.6719" y2="204.688" gradientUnits="userSpaceOnUse">
<stop stop-color="#C6C6C6"/>
<stop offset="1" stop-color="#4C246D"/>
</linearGradient>
<linearGradient id="paint19_linear_133_1330" x1="126.663" y1="103.313" x2="73.5546" y2="167.192" gradientUnits="userSpaceOnUse">
<stop stop-color="#CB236D"/>
<stop offset="1" stop-color="#4C246D"/>
</linearGradient>
<linearGradient id="paint20_linear_133_1330" x1="79.8883" y1="144.768" x2="81.8046" y2="134.707" gradientUnits="userSpaceOnUse">
<stop stop-color="#F9B776"/>
<stop offset="1" stop-color="#F47960"/>
</linearGradient>
<linearGradient id="paint21_linear_133_1330" x1="85.0736" y1="126.31" x2="74.1398" y2="134.676" gradientUnits="userSpaceOnUse">
<stop stop-color="#F9B776"/>
<stop offset="1" stop-color="#F47960"/>
</linearGradient>
<linearGradient id="paint22_linear_133_1330" x1="77.3767" y1="119.686" x2="87.5598" y2="132.797" gradientUnits="userSpaceOnUse">
<stop stop-color="#2B3582"/>
<stop offset="1" stop-color="#150E42"/>
</linearGradient>
<linearGradient id="paint23_linear_133_1330" x1="83.7174" y1="124.538" x2="72.7836" y2="132.904" gradientUnits="userSpaceOnUse">
<stop stop-color="#F9B776"/>
<stop offset="1" stop-color="#F47960"/>
</linearGradient>
<linearGradient id="paint24_linear_133_1330" x1="90.1278" y1="151.915" x2="82.475" y2="163.395" gradientUnits="userSpaceOnUse">
<stop stop-color="#F9B776"/>
<stop offset="1" stop-color="#F47960"/>
</linearGradient>
<linearGradient id="paint25_linear_133_1330" x1="104.889" y1="169.666" x2="104.792" y2="172.776" gradientUnits="userSpaceOnUse">
<stop stop-color="#13335F"/>
<stop offset="1" stop-color="#1C4D8E"/>
</linearGradient>
<linearGradient id="paint26_linear_133_1330" x1="125.29" y1="153.463" x2="118.259" y2="182.925" gradientUnits="userSpaceOnUse">
<stop stop-color="#13335F"/>
<stop offset="1" stop-color="#1C4D8E"/>
</linearGradient>
<linearGradient id="paint27_linear_133_1330" x1="111.269" y1="159.526" x2="107.072" y2="162.645" gradientUnits="userSpaceOnUse">
<stop stop-color="#56CCF2"/>
<stop offset="1" stop-color="#2F80ED"/>
</linearGradient>
<linearGradient id="paint28_linear_133_1330" x1="208.997" y1="207.916" x2="201.159" y2="255.18" gradientUnits="userSpaceOnUse">
<stop stop-color="#13335F"/>
<stop offset="1" stop-color="#1C4D8E"/>
</linearGradient>
<linearGradient id="paint29_linear_133_1330" x1="160.221" y1="186.898" x2="159.61" y2="191.798" gradientUnits="userSpaceOnUse">
<stop stop-color="#13335F"/>
<stop offset="1" stop-color="#1C4D8E"/>
</linearGradient>
<linearGradient id="paint30_linear_133_1330" x1="156.359" y1="181.778" x2="151.091" y2="187.667" gradientUnits="userSpaceOnUse">
<stop stop-color="#13335F"/>
<stop offset="1" stop-color="#1C4D8E"/>
</linearGradient>
<linearGradient id="paint31_linear_133_1330" x1="187.15" y1="186.898" x2="186.539" y2="191.798" gradientUnits="userSpaceOnUse">
<stop stop-color="#13335F"/>
<stop offset="1" stop-color="#1C4D8E"/>
</linearGradient>
<linearGradient id="paint32_linear_133_1330" x1="183.288" y1="181.244" x2="177.528" y2="187.167" gradientUnits="userSpaceOnUse">
<stop stop-color="#13335F"/>
<stop offset="1" stop-color="#1C4D8E"/>
</linearGradient>
<linearGradient id="paint33_linear_133_1330" x1="187.421" y1="174.35" x2="185.952" y2="188.623" gradientUnits="userSpaceOnUse">
<stop stop-color="#13335F"/>
<stop offset="1" stop-color="#1C4D8E"/>
</linearGradient>
<linearGradient id="paint34_linear_133_1330" x1="210.118" y1="190.555" x2="203.24" y2="235.603" gradientUnits="userSpaceOnUse">
<stop stop-color="#13335F"/>
<stop offset="1" stop-color="#1C4D8E"/>
</linearGradient>
<linearGradient id="paint35_linear_133_1330" x1="201.23" y1="226.548" x2="153.361" y2="186.316" gradientUnits="userSpaceOnUse">
<stop stop-color="#47AFF0"/>
<stop offset="1" stop-color="#46ADF0"/>
</linearGradient>
<linearGradient id="paint36_linear_133_1330" x1="163.368" y1="214.95" x2="174.648" y2="214.95" gradientUnits="userSpaceOnUse">
<stop stop-color="white"/>
<stop offset="1" stop-color="white"/>
</linearGradient>
</defs>
</svg>
