<svg width="296" height="220" viewBox="0 0 296 220" fill="none" xmlns="http://www.w3.org/2000/svg">
<g clip-path="url(#clip0_133_1082)">
<path d="M296 193.572H0V193.749H296V193.572Z" fill="#EBEBEB"/>
<path d="M141.133 167.202H26.8176C24.9824 167.202 23.4432 165.665 23.4432 163.832V3.37006C23.4432 1.53722 24.9824 0 26.8176 0H141.133C142.968 0 144.507 1.53722 144.507 3.37006V163.832C144.507 165.724 142.968 167.202 141.133 167.202ZM26.8176 0.177372C25.0416 0.177372 23.5616 1.59635 23.5616 3.42919V163.891C23.5616 165.665 24.9824 167.143 26.8176 167.143H141.133C142.909 167.143 144.389 165.724 144.389 163.891V3.37006C144.389 1.59634 142.968 0.118248 141.133 0.118248H26.8176V0.177372Z" fill="#EBEBEB"/>
<path d="M269.182 167.202H154.867C153.032 167.202 151.493 165.665 151.493 163.832V3.37006C151.493 1.53722 153.032 0 154.867 0H269.182C271.018 0 272.557 1.53722 272.557 3.37006V163.832C272.557 165.724 271.018 167.202 269.182 167.202ZM154.867 0.177372C153.091 0.177372 151.611 1.59635 151.611 3.42919V163.891C151.611 165.665 153.032 167.143 154.867 167.143H269.182C270.958 167.143 272.438 165.724 272.438 163.891V3.37006C272.438 1.59634 271.018 0.118248 269.182 0.118248H154.867V0.177372Z" fill="#EBEBEB"/>
<path d="M296 193.572H0V193.749H296V193.572Z" fill="#EBEBEB"/>
<path d="M266.341 203.091H246.746V203.268H266.341V203.091Z" fill="#EBEBEB"/>
<path d="M196.07 204.746H190.92V204.923H196.07V204.746Z" fill="#EBEBEB"/>
<path d="M246.154 197.651H234.787V197.829H246.154V197.651Z" fill="#EBEBEB"/>
<path d="M56.6544 198.597H31.08V198.775H56.6544V198.597Z" fill="#EBEBEB"/>
<path d="M133.318 201.139H77.848V201.317H133.318V201.139Z" fill="#EBEBEB"/>
<path d="M91.4048 61.3117C98.6864 61.3117 119.11 64.2679 119.11 53.3299C119.11 44.0475 109.165 44.6978 109.165 44.6978C109.165 44.6978 109.461 36.657 100.581 35.5928C91.4048 34.5285 89.984 43.2197 89.984 43.2197C89.984 43.2197 74.1776 37.6621 76.5456 51.6153C76.5456 51.6153 67.784 50.0781 67.784 56.3453C67.8432 63.3219 84.36 61.3117 91.4048 61.3117Z" fill="#F0F0F0"/>
<path d="M82.2288 144.144C97.0288 144.203 138.41 150.943 138.41 125.875C138.41 104.59 118.163 106.127 118.163 106.127C118.163 106.127 118.755 87.6808 100.699 85.1976C82.2288 82.6553 79.3872 102.639 79.3872 102.639C79.3872 102.639 47.3008 89.9275 52.1552 121.795C52.1552 121.795 34.336 118.248 34.336 132.615C34.3952 148.638 67.9024 144.085 82.2288 144.144Z" fill="#F5F5F5"/>
<path d="M137.403 146.332C129.234 146.332 106.323 150.116 106.323 136.222C106.323 124.456 117.512 125.284 117.512 125.284C117.512 125.284 117.216 115.055 127.162 113.695C137.403 112.276 138.942 123.333 138.942 123.333C138.942 123.333 156.702 116.297 153.979 133.916C153.979 133.916 163.806 131.965 163.806 139.887C163.866 148.815 145.336 146.332 137.403 146.332Z" fill="#F0F0F0"/>
<path d="M182.987 88.213C191.157 88.213 214.008 91.3466 214.008 79.8174C214.008 70.0029 202.819 70.7124 202.819 70.7124C202.819 70.7124 203.115 62.1985 193.17 61.0752C182.987 59.8927 181.448 69.116 181.448 69.116C181.448 69.116 163.747 63.2627 166.411 77.9255C166.411 77.9255 156.584 76.27 156.584 82.8919C156.643 90.2824 175.114 88.213 182.987 88.213Z" fill="#F0F0F0"/>
<path d="M158.715 193.513L170.614 116.356L206.016 71.7174L218.093 20.8708C218.093 20.8708 247.397 49.1321 248.166 49.8416C248.995 50.6102 255.448 126.821 256.336 128.003C257.224 129.186 265.63 142.489 265.63 142.489L269.538 193.276L158.715 193.513Z" fill="#FAFAFA"/>
<path d="M158.715 193.513L175.706 126.88L199.741 103.999L204.24 132.97L210.278 99.9786L217.205 111.212L215.666 72.486L216.909 60.07L220.934 68.2882L218.152 20.8708L238.517 21.3438L242.779 43.7518L248.226 49.8416L256.395 128.003L265.69 142.489L269.597 193.276L158.715 193.513Z" fill="#EBEBEB"/>
<path d="M218.685 21.1074L230.821 60.3066L238.043 66.0416C238.043 66.0416 241.832 81.9459 241.832 80.9408C241.773 79.9357 241.418 62.0803 241.418 62.0803L243.312 47.5358L238.576 21.5804L218.685 21.1074Z" fill="#F5F5F5"/>
<path d="M256.395 128.003L259.178 141.188L265.69 142.489L256.395 128.003Z" fill="#F5F5F5"/>
<path d="M210.811 167.025C223.776 167.084 260.066 172.997 260.066 151.002C260.066 132.319 242.306 133.679 242.306 133.679C242.306 133.679 242.838 117.479 227.032 115.351C210.811 113.163 208.384 130.605 208.384 130.605C208.384 130.605 180.264 119.489 184.526 147.396C184.526 147.396 168.898 144.262 168.898 156.856C168.898 170.986 198.261 166.966 210.811 167.025Z" fill="#F5F5F5"/>
<path d="M65.6528 198.597H61.9232V198.775H65.6528V198.597Z" fill="#EBEBEB"/>
<path d="M130.756 221.1C202.97 221.1 261.512 217.653 261.512 213.4C261.512 209.147 202.97 205.7 130.756 205.7C58.5414 205.7 0 209.147 0 213.4C0 217.653 58.5414 221.1 130.756 221.1Z" fill="#F5F5F5"/>
<path d="M238.813 23.7088C238.813 29.4438 234.195 34.0554 228.453 34.0554C228.216 34.0554 227.979 34.0554 227.742 34.0554C222.355 33.7007 218.093 29.2073 218.093 23.7088C218.093 18.2102 222.355 13.7168 227.742 13.4212C227.979 13.4212 228.216 13.4212 228.453 13.4212C234.136 13.3621 238.813 18.0329 238.813 23.7088Z" fill="#407BFF" fill-opacity="0.5"/>
<path opacity="0.2" d="M237.392 23.7087C237.392 29.2072 233.13 33.7006 227.742 34.0554C222.355 33.7006 218.093 29.2072 218.093 23.7087C218.093 18.2102 222.355 13.7168 227.742 13.4211C233.13 13.7759 237.392 18.2693 237.392 23.7087Z" fill="white"/>
<path opacity="0.4" d="M234.881 26.6537C236.52 22.7017 234.641 18.1708 230.683 16.5338C226.726 14.8968 222.19 16.7735 220.551 20.7255C218.911 24.6776 220.791 29.2084 224.748 30.8454C228.705 32.4825 233.241 30.6058 234.881 26.6537Z" fill="white"/>
<g opacity="0.7">
<path d="M231.294 25.3643C231.59 27.0789 230.406 28.2023 228.275 28.3796L228.216 29.7986H226.914L226.973 28.3796C225.73 28.2614 224.605 27.9067 223.835 27.3745L224.427 25.7782C225.197 26.2512 226.144 26.6059 227.032 26.6651L227.091 24.4775C225.848 24.1227 224.427 23.6497 224.19 22.1125C223.894 20.3979 225.078 19.2746 227.269 19.0972L227.328 17.6782H228.63L228.571 19.0972C229.518 19.2154 230.406 19.4519 231.058 19.8067L230.525 21.403C229.933 21.0483 229.222 20.8118 228.512 20.7527L228.453 22.9994C229.637 23.4132 230.998 23.8862 231.294 25.3643ZM227.15 22.7038L227.21 20.8709C226.499 20.9892 226.144 21.403 226.203 21.876C226.262 22.2899 226.618 22.5264 227.15 22.7038ZM229.222 25.7191C229.163 25.3643 228.808 25.1278 228.334 24.9505L228.275 26.7242C228.986 26.5468 229.341 26.1921 229.222 25.7191Z" fill="white"/>
</g>
<path d="M176.949 118.721H141.902V213.319H176.949V118.721Z" fill="#6DA6F2"/>
<path opacity="0.2" d="M151.789 118.603H141.902V213.319H151.789V118.603Z" fill="black"/>
<path d="M141.843 156.56H106.797V213.319H141.843V156.56Z" fill="#6DA6F2"/>
<path opacity="0.2" d="M117.334 156.56H106.797V213.26H117.334V156.56Z" fill="black"/>
<path d="M106.797 168.562H71.7504V213.26H106.797V168.562Z" fill="#6DA6F2"/>
<path opacity="0.2" d="M82.1696 168.562H71.7504V213.201H82.1696V168.562Z" fill="black"/>
<path d="M71.7504 180.624H36.704V213.26H71.7504V180.624Z" fill="#6DA6F2"/>
<path opacity="0.2" d="M46.5904 180.624H36.704V213.26H46.5904V180.624Z" fill="black"/>
<path d="M131.957 45.5846C130.299 47.5949 128.582 49.5459 126.866 51.497L125.563 52.9751L124.379 54.2759C123.906 54.8671 123.61 55.5175 123.491 56.3452L123.077 60.1883C122.958 61.489 122.84 62.7897 122.662 64.0904C122.366 66.6919 122.07 69.2933 121.715 71.8357C121.597 72.7225 120.768 73.3729 119.88 73.2546C119.051 73.1364 118.518 72.486 118.459 71.7174C118.282 69.116 118.222 66.5145 118.104 63.9131C118.045 62.6123 118.045 61.3116 117.986 60.0109L117.926 56.0496C117.926 54.2167 118.578 52.3839 119.584 50.8467L120.886 49.1321L122.07 47.5949C123.669 45.5255 125.208 43.4562 126.806 41.446C127.931 40.027 130.062 39.7905 131.483 40.9139C132.904 42.0372 133.141 44.1657 131.957 45.5846Z" fill="#407BFF"/>
<path d="M118.045 71.9538L115.854 75.6195L120.827 76.1516L121.715 72.4268C121.834 72.013 121.538 71.54 121.064 71.4809C120.294 71.3035 119.051 71.2444 118.045 71.9538Z" fill="#CB7A63"/>
<path d="M115.914 75.6196L116.15 76.9204C116.269 77.5707 116.802 78.0437 117.453 78.0437H119.051C119.525 78.0437 119.998 77.7481 120.235 77.3342L120.886 76.1517L115.914 75.6196Z" fill="#CB7A63"/>
<path d="M117.749 69.2341L122.544 69.4115L122.189 72.2494L118.163 71.9538L117.749 69.2341Z" fill="#407BFF"/>
<path opacity="0.3" d="M117.749 69.2341L122.544 69.4115L122.189 72.2494L118.163 71.9538L117.749 69.2341Z" fill="white"/>
<path d="M122.544 99.2689L121.774 100.451L121.182 99.2098L122.603 80.6449C122.84 77.6887 121.834 75.2646 118.163 75.2055C114.73 75.1464 112.658 77.4522 112.421 80.4084L110.941 98.9142L110.112 100.097L109.579 98.8551L111.118 80.3493C111.414 76.9201 112.894 74.2004 118.341 74.3187C123.787 74.4369 124.379 77.2749 124.083 80.704L122.544 99.2689Z" fill="#263238"/>
<path d="M107.33 86.7346H106.382C104.429 86.7346 102.712 88.2127 102.475 90.1638L100.699 103.526L106.856 103.762L107.33 86.7346Z" fill="#263238"/>
<path opacity="0.2" d="M107.33 86.7346H106.382C104.429 86.7346 102.712 88.2127 102.475 90.1638L100.699 103.526L106.856 103.762L107.33 86.7346Z" fill="white"/>
<path d="M124.734 99.3871L123.314 99.328L123.432 80.7631C123.432 77.8069 122.307 75.3828 118.578 75.3237C115.144 75.2646 113.19 77.5704 113.19 80.5266L112.954 99.0324L111.592 98.9732L111.829 80.4675C111.888 77.0383 113.19 74.3186 118.637 74.4368C124.083 74.5551 124.853 77.393 124.853 80.8222L124.734 99.3871Z" fill="#263238"/>
<path d="M131.246 104.472L103.837 103.644L104.074 89.8682C104.074 88.0945 105.554 86.7346 107.27 86.7346L127.221 87.2667C129.47 87.3259 131.306 89.2178 131.306 91.5237L131.246 104.472Z" fill="#263238"/>
<path opacity="0.4" d="M128.227 104.354L106.856 103.703C105.198 103.644 103.837 102.225 103.896 100.511L104.133 89.8091C104.133 88.0354 105.613 86.6755 107.33 86.6755L127.28 87.2076C129.53 87.2668 131.365 89.1587 131.365 91.4646L131.306 101.338C131.306 103.112 129.885 104.413 128.227 104.354Z" fill="white"/>
<g opacity="0.3">
<path d="M124.734 99.3871L124.024 100.57L123.314 99.328L123.432 80.7631C123.432 77.8069 122.307 75.3828 118.578 75.3237C115.144 75.2646 113.19 77.5704 113.19 80.5266L112.954 99.0324L112.184 100.215L111.533 98.9732L111.77 80.4675C111.829 77.0383 113.131 74.3186 118.578 74.4368C124.024 74.5551 124.794 77.393 124.794 80.8222L124.734 99.3871Z" fill="white"/>
</g>
<path d="M113.486 91.9374L111.237 91.8783V90.9915L113.546 91.0506L113.486 91.9374Z" fill="#263238"/>
<path d="M113.427 97.495L111.178 97.4359V96.5491L113.486 96.6082L113.427 97.495Z" fill="#263238"/>
<path d="M125.267 92.233L122.958 92.1739V91.3462L125.267 91.4053V92.233Z" fill="#263238"/>
<path d="M125.208 97.8498L122.899 97.7315V96.9038L125.208 96.9629V97.8498Z" fill="#263238"/>
<path d="M120.886 92.5878L115.973 92.4696V90.6367L120.886 90.755V92.5878Z" fill="white"/>
<path d="M142.021 24.8321C142.198 24.773 142.435 25.0095 142.494 25.3051C142.554 25.6007 142.435 25.8372 142.258 25.8963C142.08 25.9555 141.843 25.719 141.784 25.4234C141.725 25.1277 141.843 24.8912 142.021 24.8321Z" fill="#263238"/>
<path d="M142.08 25.0685C142.258 24.9502 142.435 24.7728 142.554 24.5955C142.376 24.7728 142.139 24.832 141.962 24.832C142.021 24.8911 142.08 25.0093 142.08 25.0685Z" fill="#263238"/>
<path d="M142.435 27.9655C142.909 27.9655 143.442 27.7881 143.738 27.4334C143.027 26.783 142.376 26.0735 141.843 25.3049L142.435 27.9655Z" fill="#B74D3C"/>
<path d="M140.482 24.4183C140.778 24.0636 141.192 23.8862 141.606 23.8862H141.666C141.784 23.8862 141.843 23.8271 141.843 23.7088C141.843 23.5906 141.784 23.5315 141.666 23.5315C141.133 23.4723 140.6 23.7088 140.245 24.1227C140.245 24.1818 140.186 24.1818 140.186 24.2409C140.186 24.3592 140.245 24.4183 140.363 24.4183C140.363 24.4183 140.422 24.4183 140.482 24.4183Z" fill="#263238"/>
<path d="M138.646 41.5049C133.733 41.564 132.963 38.9034 132.963 38.9034C134.443 37.4845 134.502 34.8239 134.206 32.5181C134.562 33.0502 135.035 33.5232 135.686 33.937C136.87 34.7057 139.416 33.464 139.416 33.464C139.416 33.464 139.416 33.8779 139.475 34.5283C139.534 36.0655 139.89 38.7261 141.31 39.1399C141.251 39.0808 144.093 41.4458 138.646 41.5049Z" fill="#CB7A63"/>
<path d="M139.475 33.7597C139.416 33.9962 139.357 34.2327 139.357 34.4692H139.298C138.173 34.7648 136.87 34.5875 135.686 33.8189C135.094 33.405 134.621 32.932 134.206 32.3999C134.147 31.8087 134.029 31.2174 133.91 30.6853L139.298 33.6415L139.475 33.7597Z" fill="#CB7A63"/>
<path d="M143.027 29.7393C142.968 31.5721 142.021 33.1094 140.6 33.9371C140.245 34.1736 139.83 34.351 139.416 34.4692H139.357C138.232 34.7648 136.93 34.5874 135.746 33.8188C135.154 33.405 134.68 32.932 134.266 32.3999C133.318 31.0991 132.904 29.3254 132.194 26.8422C131.957 26.1327 131.957 25.3641 132.075 24.5955C132.549 21.9349 135.094 20.1612 137.758 20.6342C141.488 21.3437 143.086 26.4284 143.027 29.7393Z" fill="#CB7A63"/>
<path opacity="0.2" d="M140.304 34.0555C139.949 34.292 139.771 34.3511 139.416 34.4693C139.357 33.819 139.416 33.4051 139.357 33.4051C139.416 32.873 139.416 32.2817 139.416 32.2817C139.475 32.2817 140.067 34.0555 140.304 34.0555Z" fill="black"/>
<path d="M141.725 23.0583C141.31 23.7087 140.067 24.2408 140.126 24.0634C140.363 23.5313 140.304 22.5262 139.653 22.7627C139.83 23.1766 140.363 26.1919 140.126 26.5466C140.008 26.724 139.89 29.1481 138.824 31.3357C137.995 33.0503 137.995 33.5824 137.995 33.5824L134.621 34.2328C133.378 34.0554 132.194 32.459 132.075 32.2817C131.661 31.5131 130.299 30.5079 129.589 30.035C129.293 29.7985 129.056 29.5028 128.938 29.089C128.701 28.4386 129.174 26.1328 129.293 25.0094C129.411 23.4131 130.24 21.9941 132.549 21.0481C133.97 20.4569 135.154 19.2153 136.574 18.6832C137.995 18.2102 139.712 18.2102 140.955 19.097C141.547 19.6292 142.731 21.462 141.725 23.0583Z" fill="#263238"/>
<path d="M139.949 25.2459C141.014 25.5416 141.547 27.0788 141.547 28.0248C141.606 29.089 140.896 29.7985 139.949 29.0299C139.238 28.4978 138.765 27.7291 138.528 26.8423C138.291 25.8372 138.942 24.9503 139.949 25.2459Z" fill="#CB7A63"/>
<path d="M141.192 28.8524C141.192 29.0889 141.014 29.3254 140.718 29.3254C140.422 29.3254 140.245 29.148 140.245 28.8524C140.245 28.6159 140.422 28.3794 140.718 28.3794C141.014 28.3794 141.192 28.5568 141.192 28.8524Z" fill="#407BFF"/>
<path opacity="0.3" d="M141.192 28.8524C141.192 29.0889 141.014 29.3254 140.718 29.3254C140.422 29.3254 140.245 29.148 140.245 28.8524C140.245 28.6159 140.422 28.3794 140.718 28.3794C141.014 28.3794 141.192 28.5568 141.192 28.8524Z" fill="white"/>
<path d="M131.542 40.6181C131.542 40.6181 132.312 38.2531 133.437 37.5436C134.562 36.775 139.653 37.5436 140.482 37.8984C141.251 38.194 142.08 40.0268 142.08 40.0268L131.542 40.6181Z" fill="#407BFF"/>
<path opacity="0.3" d="M131.542 40.6181C131.542 40.6181 132.312 38.2531 133.437 37.5436C134.562 36.775 139.653 37.5436 140.482 37.8984C141.251 38.194 142.08 40.0268 142.08 40.0268L131.542 40.6181Z" fill="white"/>
<path d="M143.146 39.6129C142.376 39.4946 142.139 39.3764 141.251 39.3173C138.528 39.199 135.805 39.199 133.082 39.3764C132.075 39.4355 131.128 39.6129 130.181 39.8494C128.227 40.3224 126.925 42.0961 127.043 44.1063C127.458 49.664 129.056 52.9158 129.352 56.5223C129.826 63.7946 128.701 68.8792 128.464 70.5938L132.194 71.1851C138.824 71.0077 143.264 69.5887 146.934 68.0515C146.934 68.0515 145.987 59.3011 146.875 56.1085C149.421 47.4764 147.763 46.1165 147.29 43.6333C146.875 41.564 145.218 39.9676 143.146 39.6129Z" fill="#407BFF"/>
<path opacity="0.1" d="M146.934 56.1086C146.638 57.1137 146.52 58.7691 146.52 60.4837C146.52 64.0312 146.934 68.0516 146.934 68.0516C143.264 69.5888 138.824 71.0669 132.194 71.1852L128.464 70.5939C128.642 68.8793 129.826 63.7947 129.352 56.5816C129.115 52.9159 127.458 49.6641 127.043 44.1655C126.925 42.2144 128.227 40.3816 130.181 39.9086C131.128 39.6721 132.075 39.4947 133.082 39.4356C135.805 39.2583 138.528 39.1991 141.251 39.3174C142.139 39.3765 142.376 39.4948 143.146 39.613C145.218 39.9677 146.875 41.5641 147.29 43.5743C147.467 44.4612 147.822 45.2298 148 46.1757C148.296 47.3582 148.414 48.9546 147.941 51.556C147.763 52.8567 147.408 54.3348 146.934 56.1086Z" fill="white"/>
<path d="M144.211 39.3764C145.573 39.5538 146.934 39.8494 148.296 40.0859C149.658 40.3224 151.019 40.618 152.322 40.9137L151.848 40.8545C152.44 40.8545 152.973 40.9137 153.328 40.9728C153.506 40.9728 153.624 40.9728 153.565 41.0319C153.565 41.0319 153.506 41.091 153.387 41.1502C153.269 41.2093 153.15 41.3275 152.973 41.4458C152.677 41.7414 152.558 42.1553 152.558 42.2735C152.558 42.3918 152.618 42.3918 152.618 42.2735C152.618 42.037 152.618 41.6232 152.499 41.2093L152.558 41.3867C151.848 39.4356 151.256 37.4254 150.605 35.4151C150.013 33.4049 149.48 31.3947 149.066 29.3254C148.888 28.4976 149.421 27.729 150.25 27.6108C150.842 27.4925 151.434 27.7882 151.789 28.2612C152.914 30.0349 153.861 31.9268 154.808 33.7597C155.755 35.6516 156.584 37.5436 157.472 39.4356V39.6129C157.709 40.2042 157.946 40.8545 158.064 41.6823C158.123 42.0961 158.182 42.6283 158.064 43.2786C157.946 43.929 157.59 44.875 156.939 45.5253C156.584 45.8801 156.229 46.1166 155.874 46.2939C155.518 46.4713 155.222 46.5896 154.926 46.6487C154.334 46.8261 153.92 46.8261 153.565 46.8852C152.854 46.9443 152.262 46.9443 151.789 47.0034H151.73L151.315 46.9443C149.954 46.8261 148.592 46.6487 147.23 46.4713C145.869 46.2939 144.507 46.1166 143.146 45.8801C141.37 45.5845 140.126 43.8699 140.482 42.037C140.778 40.2633 142.435 39.0808 144.211 39.3764Z" fill="#407BFF"/>
<g opacity="0.1">
<path d="M144.211 39.3764C145.573 39.5538 146.934 39.8494 148.296 40.0859C149.658 40.3224 151.019 40.618 152.322 40.9137L151.848 40.8545C152.44 40.8545 152.973 40.9137 153.328 40.9728C153.506 40.9728 153.624 40.9728 153.565 41.0319C153.565 41.0319 153.506 41.091 153.387 41.1502C153.269 41.2093 153.15 41.3275 152.973 41.4458C152.677 41.7414 152.558 42.1553 152.558 42.2735C152.558 42.3918 152.618 42.3918 152.618 42.2735C152.618 42.037 152.618 41.6232 152.499 41.2093L152.558 41.3867C151.848 39.4356 151.256 37.4254 150.605 35.4151C150.013 33.4049 149.48 31.3947 149.066 29.3254C148.888 28.4976 149.421 27.729 150.25 27.6108C150.842 27.4925 151.434 27.7882 151.789 28.2612C152.914 30.0349 153.861 31.9268 154.808 33.7597C155.755 35.6516 156.584 37.5436 157.472 39.4356V39.6129C157.709 40.2042 157.946 40.8545 158.064 41.6823C158.123 42.0961 158.182 42.6283 158.064 43.2786C157.946 43.929 157.59 44.875 156.939 45.5253C156.584 45.8801 156.229 46.1166 155.874 46.2939C155.518 46.4713 155.222 46.5896 154.926 46.6487C154.334 46.8261 153.92 46.8261 153.565 46.8852C152.854 46.9443 152.262 46.9443 151.789 47.0034H151.73L151.315 46.9443C149.954 46.8261 148.592 46.6487 147.23 46.4713C145.869 46.2939 144.507 46.1166 143.146 45.8801C141.37 45.5845 140.126 43.8699 140.482 42.037C140.778 40.2633 142.435 39.0808 144.211 39.3764Z" fill="white"/>
</g>
<path d="M168.661 26.6056L186.421 26.0735L186.184 20.5159L168.424 21.6983L168.661 26.6056Z" fill="#407BFF"/>
<path d="M155.282 26.8422L169.608 26.3692L169.43 21.8167L155.104 22.7626L155.282 26.8422Z" fill="#407BFF"/>
<path d="M167.714 26.4875L168.661 26.6058L168.424 21.6985L167.536 21.935L167.714 26.4875Z" fill="#263238"/>
<path opacity="0.2" d="M167.714 26.4875L168.661 26.6058L168.424 21.6985L167.536 21.935L167.714 26.4875Z" fill="black"/>
<path d="M168.661 26.6056H169.608L169.371 21.6392L168.424 21.6983L168.661 26.6056Z" fill="#263238"/>
<path d="M153.032 26.1327L154.453 26.8422L154.275 22.8218L152.914 23.6495L153.032 26.1327Z" fill="#263238"/>
<path d="M145.75 26.1326L149.954 25.8961L149.894 24.0042L145.691 24.2998L145.75 26.1326Z" fill="#263238"/>
<path opacity="0.2" d="M145.75 26.1326L149.954 25.8961L149.894 24.0042L145.691 24.2998L145.75 26.1326Z" fill="black"/>
<path d="M149.421 26.251L154.098 26.0736L153.979 23.4722L149.302 23.7678L149.421 26.251Z" fill="#263238"/>
<path opacity="0.2" d="M153.032 26.1327L154.453 26.8422L154.275 22.8218L152.914 23.6495L153.032 26.1327Z" fill="black"/>
<path d="M154.512 26.8422H155.282L155.104 22.7627H154.275L154.512 26.8422Z" fill="#263238"/>
<path d="M185.829 26.0736L188.611 26.0145L188.315 20.3977L185.533 20.5751L185.829 26.0736Z" fill="#263238"/>
<path d="M187.072 26.4874L190.624 26.3692L190.683 26.1327C191.453 24.0042 191.275 21.6984 190.269 19.7473L186.717 19.9838L186.776 20.1612C187.664 22.1714 187.723 24.4181 187.072 26.4874Z" fill="#407BFF"/>
<g opacity="0.4">
<path d="M183.283 21.1663L184.704 21.1072V21.6984L183.224 21.7575C183.224 21.521 183.283 21.3437 183.283 21.1663Z" fill="white"/>
<path d="M182.395 21.2253C182.395 21.4027 182.395 21.6392 182.395 21.8166L169.963 22.5261L169.904 21.994L182.395 21.2253Z" fill="white"/>
</g>
<g opacity="0.4">
<path d="M155.4 23.0584V23.5905L167.122 22.881L167.062 22.3489L155.4 23.0584Z" fill="white"/>
</g>
<g opacity="0.4">
<path d="M187.072 20.1613V20.8116L189.854 20.6343V19.9839L187.072 20.1613Z" fill="white"/>
</g>
<path opacity="0.3" d="M190.269 25.6006C190.269 25.8371 190.269 26.0145 190.269 26.251L187.368 26.3692L187.309 25.778L190.269 25.6006Z" fill="black"/>
<path opacity="0.3" d="M185.118 25.2458C185.118 25.4232 185.118 25.6597 185.118 25.8371L169.904 26.3692L169.845 25.8371L185.118 25.2458Z" fill="black"/>
<path opacity="0.3" d="M166.944 25.7781C166.944 25.9554 166.944 26.1328 166.944 26.3102L155.637 26.7241V26.2511L166.944 25.7781Z" fill="black"/>
<path d="M144.803 24.3591L144.862 26.1328C144.862 26.4284 145.158 26.6649 145.454 26.6649H146.934L146.875 23.7678L145.395 23.8269C145.04 23.7678 144.803 24.0634 144.803 24.3591Z" fill="#407BFF"/>
<path d="M152.322 29.3253L152.854 26.0143C152.854 25.8961 152.854 25.7187 152.854 25.6005L152.677 23.8268C152.677 23.5903 152.499 23.3538 152.262 23.2947L149.598 23.2355C149.243 23.1173 148.888 23.2947 148.77 23.5903L148.296 25.7779C148.237 25.9552 148.237 26.1326 148.296 26.2508L149.066 29.2662C149.125 29.5027 149.362 29.7392 149.658 29.7392H151.374C151.848 29.8574 152.203 29.68 152.322 29.3253Z" fill="#CE7A63"/>
<path d="M153.861 30.6853L149.362 32.2816L148.592 29.5028L152.499 28.3203L153.861 30.6853Z" fill="#407BFF"/>
<path opacity="0.3" d="M153.861 30.6853L149.362 32.2816L148.592 29.5028L152.499 28.3203L153.861 30.6853Z" fill="white"/>
<path opacity="0.2" d="M148 51.6152L144.507 45.0525L148 46.1758C148.296 47.4174 148.414 49.0138 148 51.6152Z" fill="black"/>
<path d="M165.878 105.891L165.168 114.759L169.194 114.878L170.318 105.713L165.878 105.891Z" fill="#CE7A63"/>
<path d="M169.845 113.636L165.227 113.754C165.05 113.754 164.931 113.872 164.872 114.05L164.102 118.07C164.043 118.425 164.221 118.78 164.576 118.839C164.635 118.839 164.635 118.839 164.694 118.839C166.352 118.78 167.832 118.662 169.904 118.602C172.331 118.543 171.739 118.898 174.581 118.839C176.298 118.839 176.594 116.71 175.883 116.651C172.509 116.237 172.154 115.173 170.851 113.932C170.555 113.754 170.2 113.636 169.845 113.636Z" fill="#263238"/>
<path d="M121.656 143.967L119.998 152.126L124.379 153.426L126.451 145.09L121.656 143.967Z" fill="#CE7A63"/>
<path d="M144.922 68.4062C144.922 68.4062 138.706 104.531 135.39 115.114C133.022 122.682 126.57 147.455 126.57 147.455L120.768 146.154C120.768 146.154 120.117 129.304 123.373 120.613C124.498 117.656 125.918 114.996 126.333 113.104C127.99 105.24 124.557 90.9916 126.096 80.3493C126.925 74.6143 128.701 70.4756 128.701 70.4756L144.922 68.4062Z" fill="#263238"/>
<path d="M135.39 115.114C133.022 122.682 126.57 147.455 126.57 147.455L120.768 146.154C120.768 146.154 120.117 129.304 123.373 120.613C124.498 117.656 125.918 114.996 126.333 113.104C127.99 105.24 124.557 90.9916 126.096 80.3493C126.925 74.6143 128.701 70.4756 128.701 70.4756" fill="#263238"/>
<path opacity="0.2" d="M137.344 79.5215L140.482 91.7601L142.731 80.0536L137.344 79.5215Z" fill="black"/>
<path d="M170.555 110.148L164.872 110.325C164.872 110.325 165.286 102.876 165.286 91.9967C165.286 90.3413 165.523 88.6858 165.938 87.2077C166.766 83.8968 168.069 81.4136 168.069 81.4136C168.069 81.4136 167.477 81.4727 166.411 81.4727C163.214 81.6501 143.205 82.6552 142.85 82.6552C142.554 82.596 140.718 82.8917 137.462 81.2953C131.424 78.3391 131.365 70.1209 131.365 70.1209L146.934 67.9924C146.934 67.9924 147.171 68.0516 150.96 68.1107C162.326 68.288 176.298 68.761 178.725 72.6632C182.158 78.1617 170.555 110.148 170.555 110.148Z" fill="#263238"/>
<path d="M124.616 151.357L119.821 151.416C119.643 151.416 119.466 151.534 119.466 151.712L118.874 155.791C118.814 156.146 119.051 156.501 119.406 156.56C119.466 156.56 119.525 156.56 119.525 156.56C121.242 156.501 122.781 156.383 124.912 156.383C127.458 156.324 126.806 156.678 129.826 156.678C131.602 156.678 131.779 154.55 131.069 154.432C127.576 154.018 127.102 152.953 125.682 151.653C125.326 151.416 124.971 151.298 124.616 151.357Z" fill="#263238"/>
<path opacity="0.2" d="M165.938 87.2668C166.766 83.9559 168.069 81.4727 168.069 81.4727C168.069 81.4727 167.477 81.5318 166.411 81.5318C166.352 81.5318 166.293 81.4727 166.234 81.4727L170.378 81.1179L165.938 87.2668Z" fill="black"/>
<g opacity="0.5">
<path d="M57.128 43.0423C61.1495 43.0423 64.4096 39.7864 64.4096 35.77C64.4096 31.7537 61.1495 28.4978 57.128 28.4978C53.1065 28.4978 49.8464 31.7537 49.8464 35.77C49.8464 39.7864 53.1065 43.0423 57.128 43.0423Z" fill="#407BFF"/>
<path opacity="0.6" d="M57.128 43.0423C61.1495 43.0423 64.4096 39.7864 64.4096 35.77C64.4096 31.7537 61.1495 28.4978 57.128 28.4978C53.1065 28.4978 49.8464 31.7537 49.8464 35.77C49.8464 39.7864 53.1065 43.0423 57.128 43.0423Z" fill="white"/>
<path d="M57.1872 25.7781C56.5952 25.7781 56.1216 25.3051 56.1216 24.7139V19.9248C56.1216 19.3336 56.5952 18.8606 57.1872 18.8606C57.7792 18.8606 58.2528 19.3336 58.2528 19.9248V24.7139C58.2528 25.3051 57.7792 25.7781 57.1872 25.7781Z" fill="#407BFF"/>
<path d="M57.1872 52.6204C56.5952 52.6204 56.1216 52.1474 56.1216 51.5561V46.7671C56.1216 46.1759 56.5952 45.7029 57.1872 45.7029C57.7792 45.7029 58.2528 46.1759 58.2528 46.7671V51.5561C58.2528 52.1474 57.7792 52.6204 57.1872 52.6204Z" fill="#407BFF"/>
<path d="M49.3728 29.03C49.0768 29.03 48.84 28.9118 48.6032 28.7344L46.5312 26.6059C46.1168 26.1921 46.1168 25.4826 46.5312 25.0687C46.9456 24.6548 47.656 24.6548 48.0704 25.0687L50.1424 27.138C50.5568 27.5519 50.5568 28.2614 50.1424 28.6753C49.9056 28.9118 49.6096 29.03 49.3728 29.03Z" fill="#407BFF"/>
<path d="M66.896 46.5306C66.6 46.5306 66.3632 46.4123 66.1264 46.2349L64.232 44.343C63.8176 43.9291 63.8176 43.2196 64.232 42.8058C64.6464 42.3919 65.3568 42.3919 65.7712 42.8058L67.6656 44.6977C68.08 45.1116 68.08 45.8211 67.6656 46.2349C67.4288 46.4123 67.192 46.5306 66.896 46.5306Z" fill="#407BFF"/>
<path d="M46.1168 36.8343H41.3216C40.7296 36.8343 40.256 36.3613 40.256 35.77C40.256 35.1788 40.7296 34.7058 41.3216 34.7058H46.1168C46.7088 34.7058 47.1824 35.1788 47.1824 35.77C47.1824 36.3613 46.7088 36.8343 46.1168 36.8343Z" fill="#407BFF"/>
<path d="M72.9936 36.8343H68.1984C67.6064 36.8343 67.1328 36.3613 67.1328 35.77C67.1328 35.1788 67.6064 34.7058 68.1984 34.7058H72.9936C73.5856 34.7058 74.0592 35.1788 74.0592 35.77C74.0592 36.3613 73.5856 36.8343 72.9936 36.8343Z" fill="#407BFF"/>
<path d="M47.5376 46.4124C47.2416 46.4124 47.0048 46.2941 46.768 46.1167C46.3536 45.7029 46.3536 44.9934 46.768 44.5795L48.6032 42.7467C49.0176 42.3328 49.728 42.3328 50.1424 42.7467C50.5568 43.1605 50.5568 43.87 50.1424 44.2839L48.3072 46.1167C48.0704 46.3532 47.8336 46.4124 47.5376 46.4124Z" fill="#407BFF"/>
<path d="M65.0016 29.0299C64.7056 29.0299 64.4688 28.9116 64.232 28.7343C63.8176 28.3204 63.8176 27.6109 64.232 27.197L66.1856 25.2459C66.6 24.8321 67.3104 24.8321 67.7248 25.2459C68.1392 25.6598 68.1392 26.3693 67.7248 26.7832L65.7712 28.7343C65.5344 28.9116 65.2384 29.0299 65.0016 29.0299Z" fill="#407BFF"/>
<g opacity="0.6">
<path d="M57.1872 25.7781C56.5952 25.7781 56.1216 25.3051 56.1216 24.7139V19.9248C56.1216 19.3336 56.5952 18.8606 57.1872 18.8606C57.7792 18.8606 58.2528 19.3336 58.2528 19.9248V24.7139C58.2528 25.3051 57.7792 25.7781 57.1872 25.7781Z" fill="white"/>
<path d="M57.1872 52.6204C56.5952 52.6204 56.1216 52.1474 56.1216 51.5561V46.7671C56.1216 46.1759 56.5952 45.7029 57.1872 45.7029C57.7792 45.7029 58.2528 46.1759 58.2528 46.7671V51.5561C58.2528 52.1474 57.7792 52.6204 57.1872 52.6204Z" fill="white"/>
<path d="M49.3728 29.03C49.0768 29.03 48.84 28.9118 48.6032 28.7344L46.5312 26.6059C46.1168 26.1921 46.1168 25.4826 46.5312 25.0687C46.9456 24.6548 47.656 24.6548 48.0704 25.0687L50.1424 27.138C50.5568 27.5519 50.5568 28.2614 50.1424 28.6753C49.9056 28.9118 49.6096 29.03 49.3728 29.03Z" fill="white"/>
<path d="M66.896 46.5306C66.6 46.5306 66.3632 46.4123 66.1264 46.2349L64.232 44.343C63.8176 43.9291 63.8176 43.2196 64.232 42.8058C64.6464 42.3919 65.3568 42.3919 65.7712 42.8058L67.6656 44.6977C68.08 45.1116 68.08 45.8211 67.6656 46.2349C67.4288 46.4123 67.192 46.5306 66.896 46.5306Z" fill="white"/>
<path d="M46.1168 36.8343H41.3216C40.7296 36.8343 40.256 36.3613 40.256 35.77C40.256 35.1788 40.7296 34.7058 41.3216 34.7058H46.1168C46.7088 34.7058 47.1824 35.1788 47.1824 35.77C47.1824 36.3613 46.7088 36.8343 46.1168 36.8343Z" fill="white"/>
<path d="M72.9936 36.8343H68.1984C67.6064 36.8343 67.1328 36.3613 67.1328 35.77C67.1328 35.1788 67.6064 34.7058 68.1984 34.7058H72.9936C73.5856 34.7058 74.0592 35.1788 74.0592 35.77C74.0592 36.3613 73.5856 36.8343 72.9936 36.8343Z" fill="white"/>
<path d="M47.5376 46.4124C47.2416 46.4124 47.0048 46.2941 46.768 46.1167C46.3536 45.7029 46.3536 44.9934 46.768 44.5795L48.6032 42.7467C49.0176 42.3328 49.728 42.3328 50.1424 42.7467C50.5568 43.1605 50.5568 43.87 50.1424 44.2839L48.3072 46.1167C48.0704 46.3532 47.8336 46.4124 47.5376 46.4124Z" fill="white"/>
<path d="M65.0016 29.0299C64.7056 29.0299 64.4688 28.9116 64.232 28.7343C63.8176 28.3204 63.8176 27.6109 64.232 27.197L66.1856 25.2459C66.6 24.8321 67.3104 24.8321 67.7248 25.2459C68.1392 25.6598 68.1392 26.3693 67.7248 26.7832L65.7712 28.7343C65.5344 28.9116 65.2384 29.0299 65.0016 29.0299Z" fill="white"/>
</g>
</g>
</g>
<defs>
<clipPath id="clip0_133_1082">
<rect width="296" height="220" fill="white"/>
</clipPath>
</defs>
</svg>
