<svg width="189" height="122" viewBox="0 0 189 122" fill="none" xmlns="http://www.w3.org/2000/svg">
<path d="M87.8772 55.8811C87.8772 55.8811 88.1801 61.1913 84.4435 61.1357L84.2117 63.0521L79.4355 62.4734L80.5666 53.1325L87.6644 52.6392L87.8772 55.8811Z" fill="url(#paint0_linear_193_7554)"/>
<path d="M78.8883 56.9137C78.8609 57.1517 78.9047 57.3925 79.0141 57.6057C79.1234 57.8189 79.2935 57.9949 79.5028 58.1115C79.7121 58.228 79.9513 58.28 80.1901 58.2607C80.429 58.2415 80.6567 58.1519 80.8447 58.0033C81.0326 57.8546 81.1723 57.6537 81.2461 57.4257C81.3199 57.1978 81.3245 56.9531 81.2593 56.7225C81.1942 56.4919 81.0621 56.2859 80.8799 56.1303C80.6977 55.9747 80.4734 55.8766 80.2355 55.8484C79.9157 55.8114 79.5942 55.9027 79.3416 56.1024C79.089 56.3022 78.926 56.5939 78.8883 56.9137Z" fill="url(#paint1_linear_193_7554)"/>
<path d="M84.4434 61.1356C84.4434 61.1356 82.7641 60.9174 81.688 59.7803C81.688 59.7803 82.0085 61.2915 84.3526 61.8858L84.4434 61.1356Z" fill="url(#paint2_linear_193_7554)"/>
<path d="M86.0706 53.2507C86.0706 53.2507 84.4876 56.5624 80.3783 55.899C80.3783 55.899 79.683 55.6008 79.2032 56.4058C79.2032 56.4058 75.7315 54.0008 77.383 49.1318C77.383 49.1318 84.1596 42.3484 88.6654 48.7171C88.7384 48.7963 88.8063 48.8801 88.8687 48.9678C89.7212 50.1266 89.7856 51.6893 89.0842 52.9457L88.9405 53.2032C88.9405 53.2032 90.4483 55.7146 87.924 56.3679C87.9247 56.3679 86.2888 55.1264 86.0706 53.2507Z" fill="#464646"/>
<path d="M77.3812 49.1302C77.3812 49.1302 74.7966 50.4544 73.1316 48.4526C72.8341 48.0947 72.725 47.2294 72.9405 46.8146C73.0869 46.528 73.3925 46.2664 74.0045 46.1898C74.0045 46.1898 73.0246 45.8056 73.1425 44.0559C73.2712 42.1449 74.6177 40.5476 76.4325 39.9364C78.0589 39.3875 80.2274 39.2939 82.1418 41.3181C82.1418 41.3181 83.9871 43.4562 82.3031 46.2169C82.3031 46.2163 79.255 47.4781 77.3812 49.1302Z" fill="#464646"/>
<path d="M82.1382 46.3308C83.1249 45.8049 84.1888 45.6368 85.2378 45.7256C86.2868 45.8144 87.3142 46.1647 88.3666 46.5388C87.4942 45.7989 86.4174 45.342 85.2792 45.2289C84.7017 45.1795 84.1201 45.2449 83.5681 45.4213C83.0212 45.6023 82.5075 45.9052 82.1382 46.3308Z" fill="#464646"/>
<path d="M82.3882 46.2449C82.9608 45.846 83.4401 45.3276 83.793 44.7256C84.1318 44.1204 84.3568 43.3797 84.1853 42.6831C83.9728 43.3084 83.6974 43.9106 83.3633 44.4803C83.0475 45.0461 82.6633 45.5937 82.3882 46.2449ZM84.9281 55.8535C84.8528 55.9463 84.5357 55.8196 84.1881 55.8582C83.8391 55.8758 83.5463 56.0513 83.4569 55.9714C83.3572 55.9036 83.6134 55.4625 84.1528 55.4177C84.6922 55.373 85.0155 55.7715 84.9281 55.8535ZM87.1576 56.2357C87.0593 56.3034 86.7882 56.1001 86.4433 56.0412C86.1045 55.9646 85.7731 56.0547 85.7087 55.9538C85.6315 55.8596 85.9961 55.5058 86.5273 55.6082C87.0586 55.7105 87.264 56.1781 87.1576 56.2357Z" fill="black"/>
<path d="M86.5158 57.0009C86.4995 57.2422 86.3626 57.4299 86.2101 57.419C86.0577 57.4082 85.9465 57.2049 85.9635 56.9636C85.9804 56.7224 86.1166 56.5347 86.2691 56.5455C86.4216 56.5564 86.5327 56.7597 86.5158 57.0009ZM84.4496 56.8606C84.4333 57.1019 84.2958 57.2889 84.1433 57.2787C83.9908 57.2686 83.8803 57.0646 83.8966 56.8227C83.9129 56.5808 84.0498 56.3944 84.2029 56.4052C84.3561 56.4161 84.4658 56.6194 84.4496 56.8606Z" fill="#454545"/>
<path d="M85.1647 59.0695C85.1432 59.0677 85.1231 59.0583 85.1079 59.0431C85.0926 59.0279 85.0833 59.0077 85.0814 58.9863C85.0795 58.9648 85.0853 58.9434 85.0977 58.9258C85.1101 58.9081 85.1283 58.8955 85.1491 58.8899C85.3734 58.835 85.7143 58.6968 85.7346 58.5741C85.7421 58.5294 85.6885 58.4671 85.5889 58.4041C84.9282 57.9873 85.1355 56.8387 85.1444 56.7899C85.1498 56.767 85.1639 56.7472 85.1836 56.7344C85.2033 56.7216 85.2272 56.717 85.2503 56.7213C85.2734 56.7257 85.2939 56.7387 85.3076 56.7578C85.3213 56.7769 85.3272 56.8005 85.3239 56.8237C85.3239 56.8346 85.1308 57.8985 85.6865 58.2468C85.8586 58.3559 85.9359 58.4745 85.9149 58.6013C85.8681 58.8866 85.305 59.037 85.1925 59.0648C85.1835 59.0677 85.1741 59.0693 85.1647 59.0695Z" fill="url(#paint3_linear_193_7554)"/>
<path d="M83.8177 59.4307C83.7974 59.9464 84.1565 60.3848 84.6309 60.4173C85.1053 60.4499 85.5173 60.0629 85.5668 59.5493L83.8177 59.4307Z" fill="white"/>
<path d="M85.5126 59.7878C85.5384 59.7109 85.5554 59.6313 85.5634 59.5506L83.8178 59.4307C83.8144 59.5115 83.8208 59.5925 83.8367 59.6719L85.5126 59.7878Z" fill="white"/>
<path d="M100.677 67.0781L100.445 68.8481L98.4102 68.3541L98.6995 66.582L100.677 67.0781Z" fill="url(#paint4_linear_193_7554)"/>
<path d="M97.8716 62.4571C98.0864 62.3697 98.3344 62.4897 98.4544 62.7411L99.1198 63.7576L100.081 60.3896C100.122 60.2419 100.26 60.1734 100.385 60.2459C100.437 60.2821 100.477 60.3325 100.501 60.391C100.525 60.4495 100.532 60.5137 100.521 60.5759L100.128 62.9966L101.334 60.4438C101.345 60.4148 101.362 60.3889 101.385 60.3681C101.408 60.3474 101.435 60.3324 101.465 60.3245C101.495 60.3166 101.527 60.316 101.557 60.3227C101.587 60.3295 101.615 60.3433 101.639 60.3632C101.691 60.4086 101.728 60.4695 101.744 60.537C101.759 60.6045 101.753 60.6753 101.727 60.7393L101.719 60.7623C101.724 60.7562 100.624 63.309 100.624 63.309L101.853 61.1824C101.863 61.1625 101.877 61.1448 101.894 61.1303C101.911 61.1158 101.93 61.1048 101.952 61.0981C101.973 61.0913 101.995 61.0889 102.018 61.0909C102.04 61.093 102.062 61.0994 102.081 61.1099C102.137 61.144 102.179 61.197 102.198 61.2592C102.218 61.3215 102.215 61.3888 102.189 61.4488L101.208 63.7921L102.473 62.3385C102.549 62.2545 102.617 62.2321 102.703 62.3162C102.722 62.3338 102.737 62.3544 102.749 62.3772C102.77 62.4232 102.78 62.4736 102.778 62.5243C102.776 62.5749 102.762 62.6244 102.737 62.6686L100.68 67.0801L98.7024 66.5841C98.7024 66.5841 98.6035 66.0975 98.5262 65.2749C98.449 64.4522 97.8716 62.4571 97.8716 62.4571Z" fill="url(#paint5_linear_193_7554)"/>
<path d="M84.8483 89.9954L85.4494 62.6667L78.8619 61.7593L78.624 89.9954H84.8483Z" fill="url(#paint6_linear_193_7554)"/>
<path d="M63.4882 88.8943L66.0829 85.5737L63.0436 78.4644L72.3201 70.6882L73.176 79.1535C73.176 79.1535 68.5801 82.3243 66.8555 89.9961H78.6238L78.8616 61.76L74.549 60.9895C74.0246 60.8977 73.4872 60.9117 72.9684 61.0308C72.4496 61.1498 71.9598 61.3715 71.528 61.6827C68.5937 63.7523 62.53 68.8531 58.9478 74.5116C58.506 75.2089 58.0316 76.8414 58.0316 76.8414C57.7281 78.398 57.9585 80.0115 58.6856 81.421L63.4882 88.8943Z" fill="url(#paint7_linear_193_7554)"/>
<path d="M72.3201 70.7735C72.3082 70.7734 72.2965 70.7708 72.2856 70.7659C72.2748 70.761 72.2651 70.7539 72.2571 70.745C72.2497 70.7368 72.2441 70.7271 72.2404 70.7167C72.2368 70.7062 72.2353 70.6952 72.236 70.6842C72.2367 70.6731 72.2396 70.6623 72.2445 70.6524C72.2494 70.6425 72.2562 70.6337 72.2646 70.6264C72.2808 70.6115 73.891 69.1572 73.7344 66.553C73.7331 66.5308 73.7407 66.509 73.7554 66.4924C73.7701 66.4757 73.7909 66.4656 73.813 66.4642C73.8241 66.4632 73.8353 66.4644 73.8458 66.4679C73.8564 66.4714 73.8661 66.4769 73.8744 66.4843C73.8827 66.4917 73.8895 66.5007 73.8942 66.5107C73.8989 66.5208 73.9015 66.5317 73.9018 66.5428C74.0631 69.2325 72.3927 70.7375 72.3757 70.7525C72.3604 70.766 72.3406 70.7735 72.3201 70.7735Z" fill="#333333"/>
<path d="M81.3914 89.9019C81.3829 89.9016 81.3744 89.9 81.3664 89.8971C81.0594 89.7717 80.9848 89.1917 81.1448 88.1711C81.1448 88.1589 81.3271 87.1079 81.4639 86.8077C81.4416 86.7724 81.4118 86.7331 81.3799 86.6904C81.2613 86.5312 81.0987 86.313 81.0987 86.088C82.0047 81.7015 81.9051 77.5128 81.8089 73.4618C81.7316 70.209 81.6516 66.8403 82.0969 63.4148C82.1027 63.4011 82.1128 63.3898 82.1256 63.3825C82.1385 63.3751 82.1534 63.3722 82.168 63.3741C82.1827 63.376 82.1963 63.3827 82.2069 63.3931C82.2174 63.4035 82.2242 63.417 82.2263 63.4317C81.7818 66.8471 81.8624 70.2083 81.9397 73.4611C82.0359 77.5196 82.1355 81.7157 81.2274 86.1042C81.2274 86.2723 81.3704 86.4627 81.4843 86.6152C81.5256 86.6708 81.5629 86.7209 81.5886 86.7636C81.5913 86.768 81.5934 86.7728 81.5947 86.7778C81.5979 86.7888 81.5983 86.8004 81.5958 86.8115C81.5933 86.8227 81.588 86.833 81.5805 86.8415C81.5046 87.0265 81.0167 88.924 81.262 89.5874C81.2727 89.6284 81.292 89.6667 81.3185 89.6997C81.345 89.7327 81.3782 89.7598 81.4158 89.7792C81.4314 89.7862 81.4437 89.7988 81.4504 89.8145C81.457 89.8302 81.4575 89.8479 81.4517 89.8639C81.4462 89.8752 81.4376 89.8848 81.427 89.8915C81.4163 89.8982 81.404 89.9018 81.3914 89.9019ZM81.794 66.1579C81.794 66.235 81.7711 66.3103 81.7283 66.3744C81.6855 66.4385 81.6246 66.4884 81.5534 66.5179C81.4822 66.5474 81.4039 66.5551 81.3283 66.5401C81.2527 66.5251 81.1833 66.488 81.1288 66.4335C81.0743 66.379 81.0372 66.3095 81.0221 66.234C81.0071 66.1584 81.0148 66.08 81.0443 66.0088C81.0738 65.9376 81.1237 65.8768 81.1878 65.8339C81.2519 65.7911 81.3272 65.7683 81.4043 65.7683C81.5076 65.7683 81.6068 65.8093 81.6798 65.8824C81.7529 65.9555 81.794 66.0546 81.794 66.1579Z" fill="white"/>
<path d="M81.6284 74.4255C81.6283 74.5025 81.6053 74.5778 81.5624 74.6418C81.5195 74.7058 81.4586 74.7556 81.3874 74.785C81.3162 74.8144 81.2379 74.822 81.1623 74.8069C81.0868 74.7918 81.0174 74.7546 80.963 74.7001C80.9086 74.6456 80.8715 74.5761 80.8565 74.5006C80.8416 74.425 80.8493 74.3467 80.8788 74.2755C80.9083 74.2044 80.9583 74.1436 81.0223 74.1008C81.0864 74.058 81.1617 74.0352 81.2387 74.0352C81.29 74.0352 81.3407 74.0453 81.388 74.0649C81.4353 74.0845 81.4783 74.1133 81.5145 74.1495C81.5507 74.1858 81.5794 74.2288 81.5989 74.2762C81.6185 74.3235 81.6285 74.3743 81.6284 74.4255ZM81.4014 83.1714C81.4014 83.2485 81.3785 83.3238 81.3357 83.3879C81.2929 83.452 81.232 83.5019 81.1608 83.5314C81.0896 83.5609 81.0113 83.5686 80.9357 83.5536C80.8601 83.5385 80.7907 83.5014 80.7362 83.4469C80.6817 83.3924 80.6446 83.323 80.6296 83.2474C80.6145 83.1718 80.6222 83.0935 80.6517 83.0223C80.6812 82.9511 80.7312 82.8902 80.7952 82.8474C80.8593 82.8046 80.9347 82.7817 81.0117 82.7817C81.1151 82.7817 81.2142 82.8228 81.2873 82.8959C81.3603 82.9689 81.4014 83.0681 81.4014 83.1714Z" fill="white"/>
<path d="M66.8546 89.9932L67.4014 88.173L68.5331 88.8778C68.5638 88.8961 68.6001 88.9022 68.635 88.8949C68.67 88.8875 68.7008 88.8673 68.7214 88.8382C68.742 88.8091 68.7509 88.7733 68.7463 88.7379C68.7417 88.7025 68.7239 88.6702 68.6965 88.6474L67.5505 87.7319C67.5333 87.7179 67.5212 87.6987 67.5159 87.6771C67.5107 87.6556 67.5126 87.6329 67.5214 87.6126C67.527 87.5999 67.5352 87.5886 67.5454 87.5792C67.5556 87.5699 67.5677 87.5628 67.5808 87.5583C67.5939 87.5539 67.6078 87.5522 67.6216 87.5533C67.6354 87.5545 67.6488 87.5586 67.661 87.5652L68.8909 88.2428C68.9212 88.2599 68.9567 88.2651 68.9906 88.2576C69.0244 88.2501 69.0544 88.2303 69.0746 88.2021C69.0948 88.1739 69.1039 88.1393 69.1002 88.1048C69.0964 88.0702 69.0801 88.0383 69.0543 88.0151L67.8345 86.8936C67.8142 86.8749 67.8016 86.8493 67.7989 86.8218C67.7963 86.7943 67.8039 86.7668 67.8202 86.7446C67.8365 86.7223 67.8605 86.7068 67.8875 86.7011C67.9145 86.6953 67.9426 86.6997 67.9666 86.7134L69.284 87.4811C69.3234 87.5035 69.3697 87.5104 69.4139 87.5005C69.4581 87.4907 69.4971 87.4648 69.5233 87.4279C69.5496 87.3909 69.5612 87.3456 69.5559 87.3006C69.5506 87.2556 69.5288 87.2142 69.4947 87.1843L68.3346 86.1983C68.3314 86.1954 68.3294 86.1914 68.3288 86.1871C68.3282 86.1829 68.329 86.1785 68.3313 86.1748C68.3335 86.1711 68.3369 86.1682 68.3409 86.1667C68.345 86.1652 68.3495 86.1651 68.3536 86.1665L69.6099 86.6219C69.6481 86.6365 69.6905 86.6359 69.7282 86.6201C69.7659 86.6043 69.7961 86.5745 69.8123 86.5369C69.8286 86.4994 69.8298 86.4571 69.8155 86.4187C69.8013 86.3804 69.7728 86.349 69.736 86.3311L68.01 85.4502C67.9554 85.4211 67.8955 85.4034 67.8339 85.3981C67.7723 85.3929 67.7103 85.4002 67.6515 85.4195C67.5928 85.4389 67.5387 85.47 67.4923 85.5109C67.4459 85.5518 67.4083 85.6017 67.3818 85.6576L66.5517 87.4127L65.651 86.1251L64.2422 87.9338L66.5008 89.9932H66.8546Z" fill="url(#paint8_linear_193_7554)"/>
<path d="M92.3749 89.9935C91.3971 84.2442 89.1222 80.6756 89.1222 80.6756L90.1922 76.8387L93.8373 80.9867C95.0361 82.3522 96.8312 82.7811 98.4116 82.0804C99.9316 81.4068 100.982 79.8082 101.122 77.9589L101.478 67.5771L97.8904 66.3221L96.0248 74.8308L90.4734 65.7332C90.0456 65.0322 89.4178 64.4752 88.6708 64.1339L85.4492 62.6641L84.8481 89.9935H92.3749Z" fill="url(#paint9_linear_193_7554)"/>
<path d="M90.1912 76.9248C90.1787 76.9248 90.1662 76.9219 90.1549 76.9165C90.1435 76.911 90.1336 76.9031 90.1257 76.8933C90.1178 76.8834 90.1122 76.872 90.1094 76.8597C90.1066 76.8475 90.1065 76.8347 90.1092 76.8224C90.1208 76.7723 91.2118 71.7135 89.7887 65.5929C89.7837 65.5711 89.7875 65.5483 89.7993 65.5293C89.8111 65.5104 89.83 65.4969 89.8517 65.4919C89.8735 65.4869 89.8963 65.4907 89.9153 65.5025C89.9342 65.5143 89.9477 65.5332 89.9527 65.5549C91.3846 71.7142 90.2848 76.8082 90.2732 76.859C90.2691 76.8777 90.2587 76.8943 90.2438 76.9063C90.2289 76.9182 90.2103 76.9247 90.1912 76.9248ZM95.7027 77.229H95.6911C95.6697 77.2252 95.6506 77.2131 95.6379 77.1954C95.6252 77.1777 95.62 77.1557 95.6234 77.1341L95.9439 74.8199C95.9451 74.8089 95.9486 74.7982 95.9541 74.7885C95.9596 74.7788 95.967 74.7704 95.9759 74.7636C95.9848 74.7569 95.9949 74.7521 96.0057 74.7494C96.0166 74.7467 96.0278 74.7463 96.0388 74.7481C96.0608 74.7513 96.0807 74.763 96.0942 74.7808C96.1076 74.7986 96.1135 74.8209 96.1106 74.843L95.7894 77.1572C95.7866 77.1778 95.7761 77.1967 95.76 77.21C95.7439 77.2233 95.7235 77.2301 95.7027 77.229ZM101.4 70.0112C101.392 70.0112 101.383 70.0098 101.375 70.0072L97.8454 68.9229C97.8348 68.9197 97.825 68.9145 97.8164 68.9075C97.8079 68.9005 97.8008 68.8918 97.7956 68.882C97.7905 68.8723 97.7873 68.8616 97.7863 68.8505C97.7853 68.8395 97.7865 68.8284 97.7899 68.8179C97.7966 68.7967 97.8114 68.779 97.831 68.7686C97.8507 68.7582 97.8736 68.7559 97.8949 68.7623L101.425 69.8466C101.435 69.8497 101.445 69.855 101.454 69.862C101.462 69.869 101.47 69.8776 101.475 69.8874C101.48 69.8972 101.483 69.9079 101.484 69.9189C101.485 69.9299 101.484 69.941 101.481 69.9516C101.476 69.9688 101.465 69.9838 101.45 69.9945C101.436 70.0052 101.418 70.0111 101.4 70.0112ZM100.636 69.0923C100.542 69.0923 100.451 69.0645 100.373 69.0124C100.294 68.9603 100.234 68.8862 100.198 68.7995C100.162 68.7128 100.152 68.6174 100.171 68.5254C100.189 68.4334 100.234 68.3489 100.301 68.2825C100.367 68.2162 100.451 68.171 100.543 68.1527C100.636 68.1344 100.731 68.1438 100.818 68.1797C100.904 68.2156 100.978 68.2764 101.03 68.3544C101.083 68.4324 101.11 68.5241 101.11 68.618C101.11 68.7438 101.06 68.8644 100.971 68.9534C100.883 69.0424 100.762 69.0923 100.636 69.0923ZM100.636 68.313C100.576 68.3132 100.517 68.3312 100.466 68.3649C100.416 68.3985 100.377 68.4463 100.354 68.5022C100.331 68.558 100.325 68.6194 100.337 68.6787C100.349 68.7379 100.378 68.7923 100.421 68.835C100.464 68.8777 100.518 68.9067 100.577 68.9184C100.637 68.9302 100.698 68.9241 100.754 68.9009C100.81 68.8778 100.857 68.8386 100.891 68.7884C100.924 68.7381 100.942 68.6791 100.942 68.6186C100.942 68.5375 100.91 68.4598 100.852 68.4025C100.795 68.3452 100.717 68.313 100.636 68.313ZM63.5408 87.646C63.447 87.646 63.3553 87.6182 63.2773 87.5661C63.1993 87.514 63.1385 87.4399 63.1026 87.3532C63.0667 87.2665 63.0573 87.1712 63.0756 87.0791C63.0939 86.9871 63.139 86.9026 63.2054 86.8363C63.2717 86.7699 63.3562 86.7247 63.4483 86.7064C63.5403 86.6881 63.6357 86.6975 63.7223 86.7334C63.809 86.7693 63.8831 86.8301 63.9352 86.9081C63.9874 86.9862 64.0152 87.0779 64.0152 87.1717C64.0152 87.2975 63.9652 87.4181 63.8762 87.5071C63.7873 87.5961 63.6666 87.646 63.5408 87.646ZM63.5408 86.8667C63.4804 86.8667 63.4213 86.8847 63.371 86.9182C63.3208 86.9518 63.2816 86.9996 63.2584 87.0554C63.2353 87.1112 63.2293 87.1727 63.2411 87.232C63.2529 87.2913 63.282 87.3457 63.3247 87.3885C63.3674 87.4312 63.4219 87.4603 63.4812 87.4721C63.5405 87.4839 63.6019 87.4779 63.6578 87.4547C63.7136 87.4316 63.7613 87.3924 63.7949 87.3422C63.8285 87.2919 63.8464 87.2328 63.8464 87.1724C63.8464 87.0913 63.8142 87.0136 63.7569 86.9562C63.6996 86.8989 63.6219 86.8667 63.5408 86.8667ZM62.6531 86.6194C62.6329 86.6195 62.6134 86.6122 62.5982 86.5991C62.5813 86.5845 62.5709 86.5639 62.5691 86.5417C62.5673 86.5195 62.5744 86.4975 62.5887 86.4805L65.1442 83.5062C65.1587 83.4892 65.1794 83.4787 65.2017 83.477C65.224 83.4753 65.2461 83.4825 65.2631 83.4971C65.2801 83.5116 65.2906 83.5323 65.2923 83.5546C65.294 83.5769 65.2868 83.599 65.2722 83.616L62.7168 86.5903C62.7088 86.5993 62.699 86.6066 62.688 86.6117C62.6771 86.6167 62.6651 86.6193 62.6531 86.6194Z" fill="#333333"/>
<path d="M80.5364 64.611C80.5236 64.6111 80.5111 64.6073 80.5005 64.6001L78.5983 63.3458C78.5885 63.3346 78.5827 63.3206 78.5817 63.3058C78.5807 63.291 78.5846 63.2763 78.5927 63.2639C78.6009 63.2515 78.6128 63.2422 78.6268 63.2372C78.6408 63.2323 78.656 63.2321 78.6701 63.2367L80.5337 64.466L82.0822 63.3024C82.0889 63.2971 82.0967 63.2933 82.1049 63.2911C82.1132 63.2889 82.1218 63.2884 82.1303 63.2896C82.1388 63.2908 82.1469 63.2937 82.1543 63.2981C82.1616 63.3025 82.168 63.3084 82.173 63.3153C82.1826 63.3293 82.1866 63.3464 82.1842 63.3632C82.1818 63.38 82.1732 63.3953 82.1601 63.4061L80.5737 64.5981C80.5628 64.606 80.5498 64.6105 80.5364 64.611Z" fill="white"/>
<path d="M83.442 64.7886C83.4328 64.7885 83.4238 64.7865 83.4154 64.7828C83.407 64.779 83.3995 64.7736 83.3932 64.7669L82.1734 63.3974C82.1627 63.3842 82.1573 63.3675 82.1583 63.3506C82.1593 63.3336 82.1667 63.3177 82.1788 63.3059C82.192 63.2949 82.2088 63.2892 82.2259 63.2901C82.243 63.291 82.2591 63.2983 82.271 63.3106L83.461 64.649L85.6492 63.8521C85.6637 63.8511 85.6782 63.855 85.6904 63.863C85.7027 63.8709 85.712 63.8827 85.717 63.8964C85.722 63.9101 85.7225 63.925 85.7183 63.939C85.7142 63.953 85.7056 63.9653 85.6939 63.974L83.4644 64.7872C83.457 64.7889 83.4495 64.7894 83.442 64.7886Z" fill="white"/>
<path d="M79.4829 61.8378L81.8906 62.9743L84.2706 62.506L82.0045 61.4292L79.4829 61.8378Z" fill="url(#paint10_linear_193_7554)"/>
<path d="M85.4494 62.6666L84.3787 61.6765L84.2709 62.506L84.9981 62.8123L85.4494 62.6666ZM79.614 60.9609L79.5117 61.9042L78.8618 61.7592L79.614 60.9609Z" fill="url(#paint11_linear_193_7554)"/>
<path d="M32.7659 89.9933L32.7401 89.956L33.7228 82.7891C29.5375 84.3111 24.9077 89.6389 24.9077 89.6389C24.8108 89.7575 24.7227 89.8754 24.6299 89.9933H32.7659Z" fill="#333333"/>
<path d="M38.0054 61.8291L38.1504 62.1605L38.7969 63.6371L43.1427 64.5275L45.5816 61.1331L45.068 59.9228L44.9501 59.6416L38.0054 61.8291Z" fill="url(#paint12_linear_193_7554)"/>
<path d="M67.9068 30.374C67.9068 30.374 65.148 26.632 60.9946 28.6934C60.994 28.6934 64.0699 33.101 67.9068 30.374Z" fill="#545ED7"/>
<path d="M66.7401 28.4823L65.9452 30.7023L62.8496 29.6709L63.736 27.459L66.7401 28.4823Z" fill="url(#paint13_linear_193_7554)"/>
<path d="M32.6413 89.9932H51.3624C55.4731 71.4083 46.059 60.6078 46.059 60.6078L45.1238 60.0609L45.5833 61.1309L43.1437 64.524L38.7992 63.6362L38.007 61.8282L37.0217 62.7512L33.2166 80.2559C33.2166 80.2559 34.2948 83.363 32.6454 85.7097C30.9959 88.0565 31.4439 89.5134 31.4439 89.5134L32.6413 89.9932ZM7.40381 48.2269C7.40381 48.2269 10.1944 44.802 13.8098 46.4507L10.8924 49.6222L7.40381 48.2269Z" fill="#56CCF2"/>
<path d="M8.58154 47.1283L9.37712 49.3483L12.472 48.3169L11.5856 46.105L8.58154 47.1283Z" fill="url(#paint14_linear_193_7554)"/>
<path d="M11.8943 40.6644C11.7193 40.6305 11.538 40.6595 11.3824 40.7463C11.2268 40.8331 11.1069 40.9721 11.0438 41.1387L10.2381 42.5727L7.90419 38.4511C7.88007 38.4076 7.84718 38.3696 7.8076 38.3395C7.76802 38.3094 7.72261 38.2878 7.67426 38.2761C7.6259 38.2645 7.57566 38.263 7.5267 38.2717C7.47774 38.2805 7.43113 38.2994 7.38984 38.3271C7.32055 38.3759 7.26996 38.4469 7.24643 38.5283C7.2229 38.6098 7.22783 38.6968 7.26041 38.775L8.47071 41.7988L5.94439 38.7689C5.91459 38.7328 5.87787 38.7029 5.83638 38.6811C5.79489 38.6593 5.74946 38.646 5.70276 38.6419C5.65606 38.6379 5.60903 38.6432 5.56441 38.6576C5.51979 38.6719 5.47849 38.695 5.44292 38.7256C5.37296 38.787 5.32904 38.8728 5.32011 38.9654C5.31117 39.0581 5.33788 39.1507 5.3948 39.2243L5.41446 39.2521C5.40361 39.2453 7.75985 42.2955 7.75985 42.2955L5.30196 39.8132C5.25337 39.7641 5.18968 39.7327 5.1211 39.7241C5.05253 39.7155 4.98306 39.7302 4.92383 39.7658C4.88652 39.788 4.85431 39.8178 4.82932 39.8533C4.80433 39.8888 4.78711 39.9291 4.7788 39.9717C4.77048 40.0143 4.77125 40.0582 4.78106 40.1005C4.79088 40.1428 4.80951 40.1825 4.83573 40.2171L6.95343 43.024L4.60262 41.4118C4.46099 41.3197 4.34917 41.3041 4.23261 41.4288C4.20814 41.4537 4.18879 41.4831 4.17569 41.5155C4.15358 41.5795 4.15025 41.6485 4.16611 41.7143C4.18196 41.7801 4.21632 41.84 4.26514 41.8869L8.58185 47.1279L11.588 46.1046C11.6091 45.5344 11.5959 44.9635 11.5487 44.3949C11.4687 43.3276 11.8943 40.6644 11.8943 40.6644Z" fill="url(#paint15_linear_193_7554)"/>
<path d="M50.5302 89.5775C50.5099 89.7166 50.4889 89.856 50.4672 89.9956H56.6956C58.5639 74.841 55.6676 65.8898 55.6676 65.8898L67.9075 30.3742C67.6531 30.4743 67.388 30.5448 67.1174 30.5843C66.1226 30.7279 65.1522 30.2908 64.4582 29.5678C62.9918 28.0383 60.9947 28.6956 60.9947 28.6956L46.9156 60.3723L46.059 60.6101C54.05 73.5941 50.5302 89.5775 50.5302 89.5775ZM16.1856 65.5699L31.7576 73.0242C30.5629 76.6192 24.4314 84.3012 19.6119 89.9936H25.946C26.7272 89.1382 27.5824 88.3533 28.5015 87.6482C31.5625 85.3014 33.4701 82.9161 33.4701 82.9161C39.3048 75.0538 37.0217 62.7515 37.0217 62.7515L32.0111 64.0838L19.1355 58.5026L13.8098 46.4511C13.8098 46.4511 12.6679 46.0072 11.1459 47.6559C9.62383 49.3047 7.40381 48.2272 7.40381 48.2272L12.924 62.0813C13.5345 63.6126 14.6989 64.858 16.1856 65.5699Z" fill="#464646"/>
<path d="M45.2337 66.0827C45.22 66.0827 45.2067 66.0782 45.1958 66.0698L43.1031 64.579C43.0936 64.5752 43.0851 64.5692 43.0782 64.5616C43.0713 64.554 43.0662 64.545 43.0633 64.5351C43.0604 64.5252 43.0598 64.5149 43.0615 64.5047C43.0632 64.4946 43.0672 64.485 43.0732 64.4766C43.0792 64.4683 43.087 64.4614 43.096 64.4565C43.105 64.4516 43.115 64.4488 43.1253 64.4484C43.1356 64.4479 43.1458 64.4498 43.1552 64.4539C43.1647 64.458 43.173 64.4641 43.1797 64.4719L45.2208 65.9255L47.8143 62.5826C47.8252 62.5692 47.8408 62.5605 47.8579 62.5582C47.875 62.5559 47.8924 62.5603 47.9064 62.5704C47.9199 62.5814 47.9286 62.5972 47.9308 62.6145C47.9329 62.6318 47.9283 62.6493 47.9179 62.6632L45.2859 66.0563C45.2797 66.0643 45.2718 66.0709 45.2628 66.0754C45.2538 66.08 45.2438 66.0825 45.2337 66.0827Z" fill="white"/>
<path d="M42.3483 66.8748C42.3412 66.8746 42.3342 66.8735 42.3273 66.8714L37.3492 65.1908C37.3365 65.1827 37.3268 65.1705 37.3217 65.1562C37.3167 65.1419 37.3166 65.1264 37.3214 65.112C37.3263 65.0976 37.3358 65.0853 37.3484 65.077C37.3611 65.0687 37.3762 65.0648 37.3912 65.0661L42.3077 66.7257L43.0789 64.5043C43.085 64.4881 43.0971 64.4748 43.1128 64.4672C43.1284 64.4596 43.1463 64.4584 43.1629 64.4637C43.1792 64.4698 43.1924 64.4819 43.2 64.4976C43.2076 64.5132 43.2088 64.5311 43.2036 64.5477L42.4107 66.8307C42.4059 66.8435 42.3974 66.8545 42.3863 66.8624C42.3752 66.8702 42.362 66.8746 42.3483 66.8748Z" fill="white"/>
<path d="M42.3397 89.1759C42.3277 89.1757 42.316 89.1723 42.3058 89.1661C42.2956 89.1599 42.2871 89.1511 42.2814 89.1406C42.2738 89.1252 42.2723 89.1074 42.2774 89.0909C42.2824 89.0744 42.2935 89.0604 42.3085 89.0519C42.5979 88.896 42.7917 88.0808 42.9787 87.2899C43.182 86.4435 43.3718 85.6351 43.7086 85.3769C43.6137 85.3457 43.5913 85.3091 43.5859 85.2746C43.5836 85.2556 43.5878 85.2364 43.5978 85.22C43.6077 85.2037 43.6229 85.1912 43.6408 85.1845C43.6714 85.1726 43.7044 85.1682 43.737 85.1716C43.6781 85.0842 43.6178 84.99 43.5561 84.8931C43.4009 84.6491 43.2403 84.3963 43.0817 84.2391C43.0696 84.2265 43.0628 84.2098 43.0627 84.1924C43.0628 84.1749 43.0696 84.1582 43.0817 84.1456C43.9247 83.3033 44.2127 82.1519 44.4913 81.0385C44.8077 74.6847 44.3557 69.4383 43.077 64.5401C43.0732 64.5233 43.076 64.5056 43.0848 64.4907C43.0936 64.4759 43.1078 64.4649 43.1244 64.4602C43.1412 64.4564 43.1588 64.4591 43.1736 64.4678C43.1885 64.4764 43.1995 64.4905 43.2044 64.5069C44.4919 69.4186 44.9399 74.678 44.6207 81.0575C44.3408 82.1811 44.0542 83.3297 43.22 84.193C43.3853 84.3904 43.5347 84.6007 43.6665 84.8219C43.7687 84.9906 43.8803 85.1535 44.0006 85.3098L44.0054 85.3152C44.0134 85.3255 44.0183 85.3379 44.0195 85.3508C44.0207 85.3638 44.0182 85.3769 44.0121 85.3884V85.3918C44.0064 85.399 43.9995 85.4051 43.9918 85.4101L43.9783 85.4149C43.9719 85.4169 43.965 85.4169 43.9586 85.4149H43.9532C43.5635 85.4149 43.3243 86.4225 43.1129 87.3123C42.9096 88.1675 42.7185 88.9746 42.377 89.1583C42.3667 89.1679 42.3536 89.174 42.3397 89.1759Z" fill="white"/>
<path d="M42.6978 68.4901C42.6978 68.5591 42.7182 68.6266 42.7566 68.684C42.7949 68.7414 42.8494 68.7861 42.9132 68.8125C42.977 68.839 43.0471 68.8459 43.1148 68.8324C43.1825 68.8189 43.2447 68.7857 43.2935 68.7369C43.3423 68.6881 43.3756 68.6259 43.389 68.5582C43.4025 68.4905 43.3956 68.4203 43.3692 68.3566C43.3428 68.2928 43.298 68.2383 43.2406 68.1999C43.1832 68.1616 43.1158 68.1411 43.0467 68.1411C42.9542 68.1411 42.8654 68.1779 42.8 68.2433C42.7345 68.3088 42.6978 68.3975 42.6978 68.4901Z" fill="white"/>
<path d="M43.205 74.9905C43.3977 74.9905 43.554 74.8342 43.554 74.6415C43.554 74.4487 43.3977 74.2925 43.205 74.2925C43.0122 74.2925 42.856 74.4487 42.856 74.6415C42.856 74.8342 43.0122 74.9905 43.205 74.9905Z" fill="white"/>
<path d="M43.015 81.0154C43.2078 81.0154 43.364 80.8591 43.364 80.6664C43.364 80.4736 43.2078 80.3174 43.015 80.3174C42.8223 80.3174 42.666 80.4736 42.666 80.6664C42.666 80.8591 42.8223 81.0154 43.015 81.0154Z" fill="white"/>
<path d="M41.1436 88.182C41.1436 88.251 41.164 88.3185 41.2024 88.3759C41.2407 88.4333 41.2952 88.478 41.359 88.5044C41.4228 88.5308 41.4929 88.5378 41.5606 88.5243C41.6283 88.5108 41.6905 88.4776 41.7393 88.4288C41.7881 88.38 41.8214 88.3178 41.8348 88.2501C41.8483 88.1824 41.8414 88.1122 41.815 88.0485C41.7886 87.9847 41.7438 87.9302 41.6864 87.8918C41.629 87.8535 41.5616 87.833 41.4925 87.833C41.4 87.8332 41.3114 87.87 41.246 87.9354C41.1806 88.0008 41.1437 88.0895 41.1436 88.182Z" fill="white"/>
<path d="M38.0054 61.8292L38.1504 62.1606C38.6862 62.6822 39.3542 63.0478 40.0824 63.2181C40.8106 63.3883 41.5714 63.3567 42.283 63.1267C42.9945 62.8967 43.6299 62.4769 44.1206 61.9126C44.6113 61.3483 44.9389 60.6609 45.068 59.9243L44.9501 59.6431L38.0054 61.8292Z" fill="url(#paint16_linear_193_7554)"/>
<path d="M42.52 62.6521C43.0167 62.4395 43.4667 62.1312 43.8442 61.7446C44.2218 61.3581 44.5195 60.901 44.7204 60.3994C44.9212 59.8978 45.0213 59.3615 45.0149 58.8212C45.0085 58.2809 44.8957 57.7472 44.6831 57.2505L43.0262 53.3804L35.4614 56.6189L37.1183 60.489C37.548 61.492 38.3584 62.2833 39.3713 62.6889C40.3842 63.0945 41.5168 63.0813 42.52 62.6521Z" fill="url(#paint17_linear_193_7554)"/>
<path d="M44.1624 57.5571C44.4857 58.1975 44.7127 58.7342 45.3531 58.4109C45.9935 58.0877 46.8053 57.0265 46.4821 56.3861C46.4052 56.2338 46.2991 56.0981 46.1697 55.9868C46.0404 55.8755 45.8904 55.7908 45.7284 55.7375C45.5663 55.6841 45.3953 55.6632 45.2252 55.676C45.055 55.6887 44.8891 55.7349 44.7368 55.8118C44.5844 55.8887 44.4488 55.9948 44.3375 56.1241C44.2262 56.2534 44.1415 56.4034 44.0881 56.5655C44.0348 56.7276 44.0139 56.8985 44.0267 57.0687C44.0394 57.2388 44.0856 57.4048 44.1624 57.5571ZM37.7165 60.1824C37.9198 60.8702 38.1272 61.4157 37.4394 61.621C36.7515 61.8264 35.4328 61.6143 35.2275 60.9271C35.1286 60.597 35.1649 60.2412 35.3284 59.9379C35.4919 59.6346 35.7692 59.4087 36.0993 59.3099C36.4293 59.211 36.7852 59.2473 37.0885 59.4108C37.3917 59.5743 37.6177 59.8516 37.7165 60.1817V60.1824Z" fill="url(#paint18_linear_193_7554)"/>
<path d="M45.6983 55.7288C45.6983 55.7288 46.2167 54.528 45.848 53.1964C45.6346 52.4252 44.8898 51.898 44.0963 51.9942L44.061 51.9983C44.061 51.9983 43.9817 49.3825 41.0963 48.6845C38.2108 47.9865 37.1482 51.4595 37.1482 51.4595C36.981 51.3313 36.7775 51.2592 36.5668 51.2535C36.3562 51.2478 36.1491 51.3087 35.9752 51.4277C35.9752 51.4277 35.4202 51.713 35.658 52.3947C35.658 52.3947 34.3196 51.6127 33.0097 53.3434C31.3928 55.4889 35.3063 60.0868 35.3063 60.0868C35.3063 60.0868 35.4967 59.1672 36.6379 59.2303L35.7664 57.3755C35.7664 57.3755 38.0332 57.7401 38.4615 55.6814C38.4615 55.6814 40.0154 56.9133 41.3151 55.9829C42.7104 54.984 43.153 56.8002 44.2447 56.237C44.2474 56.2343 44.7807 55.4781 45.6983 55.7288Z" fill="#464646"/>
<path d="M67.9322 19.6842C68.0015 19.733 68.052 19.804 68.0756 19.8854C68.0991 19.9668 68.0942 20.0539 68.0616 20.1321L66.854 23.1524L69.3776 20.126C69.4074 20.0898 69.4441 20.06 69.4856 20.0382C69.5271 20.0163 69.5725 20.003 69.6192 19.999C69.6659 19.9949 69.713 20.0003 69.7576 20.0146C69.8022 20.029 69.8435 20.0521 69.8791 20.0826C69.949 20.1441 69.993 20.2298 70.0019 20.3225C70.0108 20.4152 69.9841 20.5077 69.9272 20.5814L69.9075 20.6099C69.9566 20.5769 70.0144 20.5592 70.0736 20.5592C70.1327 20.5592 70.1905 20.5769 70.2396 20.6099C70.2948 20.6495 70.3357 20.7058 70.3563 20.7705C70.377 20.8352 70.3762 20.9048 70.3541 20.969C69.7137 22.0587 69.0056 23.292 68.3686 24.3804L70.7194 22.7675C70.861 22.6754 70.9728 22.6598 71.0894 22.7845C71.1139 22.8094 71.1332 22.8389 71.1463 22.8712C71.1684 22.9352 71.1717 23.0042 71.1559 23.07C71.14 23.1358 71.1057 23.1957 71.0569 23.2426L66.7401 28.4836L63.7361 27.4603C63.715 26.8904 63.7281 26.3197 63.7754 25.7513C63.8533 24.6833 63.4277 22.0201 63.4277 22.0201C63.6031 21.9864 63.7847 22.0159 63.9404 22.1033C64.0961 22.1908 64.2158 22.3305 64.2782 22.4978L65.0839 23.9318L67.4178 19.8102C67.4418 19.7666 67.4746 19.7285 67.5141 19.6982C67.5536 19.668 67.599 19.6462 67.6473 19.6344C67.6957 19.6225 67.7459 19.6208 67.795 19.6294C67.844 19.638 67.8907 19.6566 67.9322 19.6842Z" fill="url(#paint19_linear_193_7554)"/>
<path d="M67.5631 23.7227C67.5469 23.7228 67.5312 23.7175 67.5183 23.7078C67.5031 23.6959 67.4932 23.6785 67.4908 23.6593C67.4884 23.6401 67.4937 23.6208 67.5055 23.6055L69.8515 20.5601C69.8574 20.5525 69.8646 20.5462 69.8729 20.5414C69.8812 20.5366 69.8903 20.5336 69.8998 20.5323C69.9092 20.5311 69.9189 20.5318 69.9281 20.5343C69.9373 20.5367 69.9459 20.541 69.9535 20.5469C69.9611 20.5527 69.9674 20.5599 69.9722 20.5682C69.9769 20.5765 69.98 20.5856 69.9812 20.5951C69.9825 20.6046 69.9818 20.6142 69.9793 20.6234C69.9768 20.6326 69.9726 20.6413 69.9667 20.6488L67.6207 23.6943C67.6139 23.7031 67.6052 23.7103 67.5952 23.7153C67.5852 23.7202 67.5742 23.7228 67.5631 23.7227Z" fill="#FF9C91"/>
<path d="M39.2785 59.0837C39.351 59.2619 39.5171 59.3629 39.6492 59.3093C39.7814 59.2558 39.8301 59.0674 39.7576 58.8885C39.6851 58.7096 39.5191 58.6093 39.3863 58.6628C39.2535 58.7164 39.206 58.9048 39.2785 59.0837Z" fill="#464646"/>
<path d="M39.8516 59.8294L39.3542 60.0327C39.1011 60.1351 38.8176 60.1328 38.5661 60.0265C38.3146 59.9202 38.1155 59.7184 38.0125 59.4655L37.7075 58.7154L40.1173 57.7368L40.4222 58.487C40.5144 58.7141 40.5225 58.9667 40.4453 59.1993C40.368 59.4319 40.2104 59.6294 40.0007 59.7562C39.953 59.7844 39.9031 59.8089 39.8516 59.8294ZM37.9054 58.7974L38.1527 59.4073C38.241 59.6227 38.4109 59.7944 38.6254 59.885C38.8398 59.9755 39.0814 59.9775 39.2973 59.8904L39.7947 59.6871C40.0101 59.5989 40.1819 59.429 40.2724 59.2145C40.363 59.0001 40.3649 58.7585 40.2779 58.5426L40.0305 57.9327L37.9054 58.7974Z" fill="white"/>
<path d="M41.6822 58.1075C41.7547 58.2857 41.9207 58.3873 42.0535 58.3331C42.1863 58.2789 42.2338 58.0912 42.1613 57.913C42.0887 57.7348 41.9227 57.6331 41.7906 57.6866C41.6584 57.7402 41.6083 57.9286 41.6822 58.1075Z" fill="#464646"/>
<path d="M42.8959 58.5947L42.3985 58.798C42.1453 58.9005 41.8618 58.8984 41.6102 58.792C41.3587 58.6857 41.1596 58.4838 41.0567 58.2308L40.7518 57.4806L43.1581 56.5034L43.4631 57.2536C43.5555 57.4807 43.5638 57.7333 43.4866 57.966C43.4093 58.1987 43.2515 58.3961 43.0416 58.5229C42.9949 58.5504 42.9462 58.5744 42.8959 58.5947ZM40.9496 57.5626L41.197 58.1725C41.2852 58.3879 41.4551 58.5597 41.6696 58.6502C41.8841 58.7407 42.1257 58.7427 42.3416 58.6557L42.839 58.4524C43.0544 58.3641 43.2261 58.1942 43.3167 57.9798C43.4072 57.7653 43.4092 57.5237 43.3221 57.3078L43.0748 56.6979L40.9496 57.5626ZM42.8559 60.1276C42.9665 60.4369 42.9518 60.7772 42.8149 61.0758C42.6779 61.3744 42.4297 61.6076 42.1231 61.7256C41.8165 61.8437 41.476 61.8371 41.1742 61.7074C40.8723 61.5778 40.6332 61.3352 40.5078 61.0316L42.8559 60.1276Z" fill="white"/>
<path d="M40.166 57.5483L41.7951 59.2784L40.9352 59.9195L40.166 57.5483Z" fill="url(#paint20_linear_193_7554)"/>
<path d="M40.9739 59.9845L40.98 59.9805L41.8393 59.3394C41.848 59.3331 41.8552 59.325 41.8604 59.3156C41.8657 59.3063 41.8689 59.2959 41.8698 59.2852C41.8708 59.2746 41.8695 59.2639 41.866 59.2538C41.8625 59.2438 41.8569 59.2346 41.8495 59.2269L40.2231 57.4962C40.209 57.483 40.1904 57.4756 40.1711 57.4756C40.1518 57.4756 40.1332 57.4829 40.1192 57.4961C40.1051 57.5094 40.0966 57.5274 40.0954 57.5467C40.0941 57.566 40.1003 57.585 40.1126 57.5998L41.6834 59.2689L40.8919 59.8585C40.8752 59.8697 40.8637 59.8871 40.8598 59.9069C40.8559 59.9267 40.86 59.9472 40.8713 59.9639C40.8825 59.9806 40.8999 59.9922 40.9197 59.996C40.9394 59.9999 40.9599 59.9958 40.9766 59.9845H40.9739Z" fill="url(#paint21_linear_193_7554)"/>
<path d="M38.3407 57.9244C38.3619 57.9593 38.3955 57.9851 38.4348 57.9965C38.4741 58.0079 38.5162 58.0042 38.5528 57.986L39.3471 57.5876C39.4008 57.5551 39.4395 57.5026 39.4547 57.4416C39.4698 57.3806 39.4601 57.3161 39.4277 57.2623C39.4107 57.2341 39.3879 57.2097 39.3609 57.1907C39.3339 57.1718 39.3033 57.1587 39.2709 57.1524C39.2386 57.146 39.2052 57.1464 39.1731 57.1537C39.1409 57.161 39.1106 57.1749 39.0841 57.1945L38.3841 57.7109C38.3516 57.7348 38.3291 57.77 38.3211 57.8096C38.3131 57.8492 38.3201 57.8903 38.3407 57.925V57.9244ZM42.0713 56.4606C42.0831 56.4997 42.0796 56.5419 42.0616 56.5786C42.0437 56.6153 42.0125 56.6438 41.9744 56.6585L41.1456 56.979C41.1158 56.988 41.0846 56.991 41.0536 56.9879C41.0227 56.9848 40.9927 56.9756 40.9653 56.9609C40.9379 56.9461 40.9137 56.9262 40.8941 56.9021C40.8744 56.878 40.8597 56.8502 40.8508 56.8205C40.8414 56.7888 40.8387 56.7556 40.8428 56.7229C40.8469 56.6902 40.8578 56.6587 40.8747 56.6304C40.8917 56.6021 40.9143 56.5776 40.9412 56.5585C40.9682 56.5395 40.9987 56.5262 41.0311 56.5196L41.8836 56.3481C41.9233 56.3398 41.9646 56.3468 41.9994 56.3677C42.0342 56.3885 42.0599 56.4217 42.0713 56.4606Z" fill="#464646"/>
<path d="M37.9117 58.8607L43.1154 56.7477C43.1323 56.7412 43.1477 56.7313 43.1607 56.7187C43.1738 56.7061 43.1841 56.691 43.1912 56.6743C43.1983 56.6576 43.2019 56.6397 43.2019 56.6216C43.202 56.6035 43.1984 56.5855 43.1913 56.5688C43.1847 56.552 43.1748 56.5367 43.1622 56.5237C43.1495 56.5108 43.1344 56.5005 43.1177 56.4935C43.1011 56.4865 43.0832 56.4829 43.0651 56.4829C43.047 56.4829 43.0291 56.4866 43.0124 56.4936L37.8087 58.6066C37.7918 58.6131 37.7764 58.623 37.7634 58.6356C37.7504 58.6482 37.74 58.6633 37.7329 58.68C37.7259 58.6967 37.7222 58.7146 37.7222 58.7327C37.7221 58.7508 37.7257 58.7688 37.7328 58.7855C37.7394 58.8023 37.7493 58.8176 37.7619 58.8306C37.7746 58.8435 37.7897 58.8538 37.8064 58.8608C37.823 58.8678 37.8409 58.8714 37.859 58.8714C37.8771 58.8714 37.895 58.8677 37.9117 58.8607Z" fill="white"/>
<path d="M108.913 55.6104C108.913 55.6104 106.484 62.2013 110.583 63.7288L110.172 68.5185L115.696 68.8743L116.964 58.7683C116.964 58.7683 113.796 48.6975 108.913 55.6104Z" fill="url(#paint22_linear_193_7554)"/>
<path d="M110.172 68.5181L104.824 88.7267C104.824 88.7267 107 85.8717 112.482 87.9561C117.963 90.0406 119.703 85.7659 119.703 85.7659L116.925 79.6236L115.693 68.8739L112.936 68.186L110.172 68.5181Z" fill="url(#paint23_linear_193_7554)"/>
<path d="M112.994 68.1278L113.821 70.6608L115.736 70.0557L115.696 68.8739L115.918 66.5813L112.994 68.1278ZM110.377 66.1436L112.994 68.1278L111.561 70.7035L109.693 69.9669L110.171 68.5181L110.377 66.1436Z" fill="url(#paint24_linear_193_7554)"/>
<path d="M123.538 89.9935C122.243 88.5026 120.333 86.3633 119.703 85.7642C119.703 85.7642 117.264 89.6526 111.208 87.4441C110.657 87.2335 110.082 87.0942 109.496 87.0294C108.234 86.9101 106.264 87.0579 104.82 88.7236C104.82 88.7236 104.748 89.1627 104.678 89.9921L123.538 89.9935ZM97.6685 37.2233C97.6685 37.2233 100.42 34.4943 102.672 36.1769L99.7618 38.8253C99.7618 38.8253 98.1523 39.5985 97.6685 37.2233ZM139.579 55.8807C139.579 55.8807 139.872 55.203 138.812 53.7182C137.974 52.4022 137.08 51.978 135.631 52.2172L136.257 55.8319C136.257 55.8319 137.389 57.7368 139.579 55.8807Z" fill="#FFB27D"/>
<path d="M99.1285 36.6758L99.4477 38.433L101.456 37.8387L101.08 36.0822L99.1285 36.6758ZM101.702 31.922C101.483 31.8448 101.241 31.9769 101.134 32.2344L100.52 33.2848L99.3928 29.9683C99.3447 29.8226 99.2037 29.761 99.0824 29.8396C99.0327 29.879 98.9953 29.9319 98.9748 29.992C98.9542 30.0521 98.9514 30.1168 98.9666 30.1784L99.4789 32.576L98.1479 30.0862C98.136 30.0576 98.1173 30.0322 98.0935 30.0124C98.0697 29.9925 98.0414 29.9786 98.0111 29.9719C97.9807 29.9653 97.9493 29.9661 97.9193 29.9742C97.8893 29.9823 97.8618 29.9975 97.8389 30.0185C97.7893 30.0668 97.7561 30.1295 97.7439 30.1977C97.7318 30.2659 97.7413 30.3361 97.7712 30.3986L97.7806 30.421C97.7746 30.4149 99.0004 32.9101 99.0004 32.9101L97.6668 30.8452C97.6558 30.8258 97.641 30.8088 97.6233 30.7951C97.6056 30.7815 97.5854 30.7716 97.5638 30.7659C97.5422 30.7602 97.5197 30.7589 97.4975 30.762C97.4754 30.7652 97.4542 30.7727 97.435 30.7842C97.3822 30.8208 97.3441 30.8749 97.3274 30.937C97.3108 30.999 97.3168 31.065 97.3442 31.1231L98.4407 33.4149L97.105 32.0257C97.0237 31.9457 96.9559 31.9268 96.8733 32.0149C96.8554 32.0331 96.8412 32.0544 96.8312 32.0779C96.8121 32.1249 96.8044 32.1758 96.8089 32.2264C96.8133 32.2769 96.8298 32.3257 96.857 32.3686L99.1299 36.6724L101.081 36.0788C101.081 36.0788 101.155 35.5889 101.191 34.7628C101.227 33.9367 101.702 31.922 101.702 31.922ZM138.367 54.8189L137.187 56.1607L135.772 54.6163L137 53.305L138.367 54.8189Z" fill="url(#paint25_linear_193_7554)"/>
<path d="M138.61 49.4187C138.837 49.4655 138.976 49.7033 138.936 49.9791L138.921 51.1989L141.596 48.9369C141.712 48.8366 141.867 48.8569 141.928 48.987C141.95 49.046 141.955 49.11 141.942 49.1716C141.929 49.2332 141.898 49.2898 141.854 49.3347L140.179 51.1257L142.602 49.6728C142.628 49.6548 142.657 49.6431 142.687 49.6386C142.718 49.6341 142.749 49.6371 142.778 49.6471C142.808 49.6572 142.834 49.6742 142.855 49.6966C142.877 49.7189 142.893 49.7461 142.901 49.7758C142.919 49.8427 142.916 49.9136 142.891 49.9785C142.867 50.0433 142.823 50.099 142.766 50.1377L142.745 50.1519C142.754 50.1519 140.418 51.657 140.418 51.657L142.625 50.5728C142.644 50.5618 142.666 50.5548 142.688 50.5522C142.71 50.5497 142.733 50.5517 142.754 50.558C142.775 50.5643 142.795 50.5749 142.813 50.589C142.83 50.6032 142.844 50.6207 142.855 50.6405C142.881 50.6994 142.886 50.766 142.868 50.8281C142.85 50.8903 142.81 50.9439 142.756 50.9794L140.635 52.3835L142.496 51.8806C142.606 51.8535 142.675 51.8725 142.699 51.9904C142.705 52.0153 142.706 52.041 142.703 52.0663C142.695 52.1165 142.675 52.1641 142.645 52.2052C142.615 52.2462 142.576 52.2795 142.531 52.3021L138.366 54.8197L137 53.3058C137 53.3058 137.188 52.847 137.582 52.1212C137.977 51.3954 138.61 49.4187 138.61 49.4187Z" fill="url(#paint26_linear_193_7554)"/>
<path d="M108.914 55.6102C108.914 55.6102 108.044 54.2766 108.895 52.6577C108.895 52.6577 110.217 49.7728 114.329 50.8957C118.442 52.0186 117.461 55.6461 117.461 55.6461C117.461 55.6461 118.74 53.9811 121.205 55.104C123.67 56.2269 123.191 59.4478 123.191 59.4478C123.191 59.4478 122.564 61.6245 126.468 61.7607C126.468 61.7607 128.611 61.5913 129.224 63.2617C129.224 63.2617 130.795 65.5149 128.51 67.9992C126.931 69.7158 128.659 71.0237 129.878 71.6681C130.747 72.1269 131.356 72.9902 131.415 73.9722C131.473 74.9541 131.1 75.999 129.382 76.3358C129.382 76.3358 132.376 80.3069 129.213 83.9934C126.931 86.6499 124.189 86.8945 124.189 86.8945L117.026 80.4262L115.922 66.587L116.7 60.3118C116.7 60.3118 114.629 59.5718 114.272 57.0963C114.165 56.3618 113.821 55.6672 113.207 55.2511C112.839 55.001 112.212 54.8309 111.453 54.8533C110.557 54.8898 109.684 55.15 108.914 55.6102Z" fill="black"/>
<path d="M103.286 72.1857C103.708 74.073 104.624 75.8146 104.624 75.8146C104.624 75.8146 102.713 84.0414 100.804 89.9954H105.732C107.319 83.5854 109.967 72.2108 110.377 66.1417L110.58 63.7265C110.58 63.7265 108.463 63.099 108.223 60.1904C108.182 59.5944 108.224 58.9956 108.35 58.4116L108.91 55.6081L102.669 36.1748C102.669 36.1748 101.429 35.7289 99.5431 37.4196C99.0512 37.8608 98.2773 37.8669 97.8171 37.3932C97.7638 37.3384 97.7134 37.281 97.666 37.2211L105.261 69.1586C105.261 69.1586 102.863 70.2978 103.286 72.1857ZM121.834 74.771L139.579 55.8805C137.895 54.9243 137.649 53.9993 137.649 53.9993C136.598 51.0854 135.142 52.4624 135.142 52.4624L117.888 68.4837L117.854 68.4898L121.825 74.792L121.834 74.771Z" fill="url(#paint27_linear_193_7554)"/>
<path d="M122.047 89.9932H129.465C124.644 86.6923 118.766 81.1917 118.766 81.1917C118.437 79.3715 121.775 74.7926 122.002 74.4829L120.278 67.2359L115.919 66.5786C114.807 69.8578 114.978 75.4411 116.229 81.5909C116.78 84.3096 119.857 87.9033 122.047 89.9932Z" fill="url(#paint28_linear_193_7554)"/>
<path d="M111.49 87.3441C111.473 87.3429 111.457 87.3352 111.445 87.3226C111.433 87.31 111.427 87.2935 111.427 87.2763C111.427 87.1821 111.518 85.4249 111.604 83.7254C111.683 82.1444 111.765 80.5085 111.768 80.4197C111.775 80.2442 112.287 79.3646 112.461 79.0705L111.444 78.5751C111.435 78.5708 111.427 78.5643 111.421 78.5561C111.415 78.548 111.411 78.5384 111.409 78.5284C111.407 78.5184 111.408 78.508 111.411 78.4983C111.413 78.4885 111.419 78.4795 111.426 78.4721L112.251 77.5912L111.433 77.23C111.42 77.224 111.41 77.2143 111.403 77.2022C111.396 77.1901 111.393 77.1761 111.394 77.1622L112.932 68.1174C112.935 68.1028 112.942 68.0894 112.953 68.0795C112.965 68.0696 112.979 68.0636 112.994 68.0626C113.009 68.062 113.024 68.0664 113.036 68.0753C113.048 68.0841 113.057 68.0968 113.061 68.1113L113.604 70.1443L115.684 69.199C115.692 69.1922 115.701 69.1873 115.712 69.1847C115.722 69.1822 115.732 69.1821 115.743 69.1843C115.753 69.1866 115.763 69.1913 115.771 69.1979C115.779 69.2046 115.785 69.213 115.79 69.2226C115.794 69.2322 115.796 69.2427 115.796 69.2532C115.795 69.2637 115.792 69.2739 115.787 69.2832C115.782 69.2924 115.775 69.3003 115.766 69.3063C115.758 69.3122 115.748 69.3161 115.737 69.3176L113.587 70.2948C113.579 70.2988 113.57 70.3009 113.56 70.3009C113.551 70.3009 113.542 70.2988 113.533 70.2948C113.525 70.2906 113.517 70.2847 113.511 70.2775C113.505 70.2703 113.5 70.2618 113.498 70.2528L113.01 68.4346L111.531 77.1358L112.386 77.5132C112.396 77.5178 112.403 77.5244 112.41 77.5325C112.416 77.5405 112.42 77.5499 112.422 77.5599C112.424 77.5698 112.424 77.5801 112.422 77.59C112.419 77.5999 112.415 77.6091 112.408 77.6169L111.581 78.4979L112.582 78.9858C112.59 78.9899 112.597 78.9955 112.603 79.0024C112.608 79.0092 112.613 79.0172 112.615 79.0258C112.618 79.0345 112.619 79.0436 112.617 79.0525C112.616 79.0615 112.613 79.0701 112.609 79.078C112.317 79.5686 111.903 80.3113 111.899 80.4258C111.899 80.5153 111.817 82.0786 111.734 83.7335C111.648 85.4324 111.56 87.1896 111.557 87.2824C111.555 87.2992 111.548 87.3148 111.535 87.3262C111.523 87.3376 111.507 87.344 111.49 87.3441Z" fill="white"/>
<path d="M115.722 61.2387C115.654 62.02 115.557 62.6496 116.338 62.7167C117.12 62.7838 118.483 62.2633 118.55 61.482C118.576 61.1105 118.455 60.7437 118.212 60.4608C117.97 60.1779 117.627 60.0015 117.256 59.9696C116.885 59.9377 116.516 60.0528 116.229 60.2902C115.942 60.5276 115.76 60.8682 115.722 61.2387Z" fill="url(#paint29_linear_193_7554)"/>
<path d="M111.705 70.0648C111.691 70.0645 111.677 70.0597 111.666 70.0512L109.752 68.5909C109.742 68.5871 109.734 68.581 109.727 68.5732C109.72 68.5654 109.714 68.5561 109.711 68.5459C109.709 68.5358 109.708 68.5251 109.71 68.5147C109.712 68.5044 109.717 68.4947 109.723 68.4863C109.729 68.478 109.738 68.4712 109.747 68.4666C109.757 68.462 109.767 68.4597 109.778 68.4599C109.788 68.46 109.799 68.4626 109.808 68.4675C109.817 68.4724 109.825 68.4793 109.832 68.4879L111.69 69.9062L112.886 68.1497C112.897 68.1406 112.911 68.1354 112.926 68.1348C112.94 68.1343 112.954 68.1384 112.966 68.1466C112.979 68.1548 112.988 68.1666 112.992 68.1804C112.997 68.1941 112.997 68.209 112.993 68.2229L111.76 70.0363C111.749 70.0509 111.734 70.0609 111.716 70.0641L111.705 70.0648Z" fill="white"/>
<path d="M110.583 63.7283C110.583 63.7283 112.844 64.1065 114.592 62.9497C114.592 62.9497 114.176 64.5226 110.512 64.6439L110.583 63.7283Z" fill="url(#paint30_linear_193_7554)"/>
<path d="M112.575 57.4441C112.622 57.5539 112.959 57.5186 113.281 57.6474C113.61 57.7592 113.842 58.0066 113.949 57.9551C114.063 57.9151 113.938 57.4258 113.434 57.2367C112.931 57.0477 112.515 57.3397 112.575 57.4441ZM109.587 57.459C109.661 57.5525 109.977 57.4278 110.322 57.4678C110.669 57.4868 110.959 57.663 111.048 57.5844C111.138 57.5058 110.895 57.0775 110.359 57.0307C109.823 56.984 109.501 57.375 109.587 57.459Z" fill="black"/>
<path d="M109.883 59.0606C109.833 59.295 109.913 59.5112 110.062 59.5431C110.211 59.5749 110.372 59.4075 110.422 59.1751C110.472 58.9427 110.392 58.7238 110.243 58.6919C110.094 58.6601 109.933 58.8254 109.883 59.0606ZM112.67 59.5986C112.62 59.8338 112.7 60.05 112.849 60.0818C112.997 60.1137 113.158 59.9463 113.208 59.7132C113.259 59.48 113.179 59.2618 113.03 59.2307C112.88 59.1995 112.72 59.3628 112.67 59.5986Z" fill="#454545"/>
<path d="M111.054 61.3552C111.043 61.3551 111.033 61.353 111.024 61.3491C110.97 61.3281 110.495 61.1356 110.482 60.8605C110.476 60.725 110.571 60.6105 110.767 60.5115C111.416 60.1849 111.425 58.8892 111.425 58.8763C111.425 58.8543 111.434 58.8332 111.449 58.8176C111.465 58.802 111.486 58.7931 111.508 58.793C111.53 58.7931 111.551 58.802 111.566 58.8176C111.582 58.8332 111.59 58.8543 111.59 58.8763C111.59 58.9339 111.581 60.2872 110.845 60.6592C110.77 60.6965 110.646 60.7717 110.65 60.8524C110.656 60.9737 110.909 61.1234 111.088 61.1953C111.106 61.2022 111.121 61.2153 111.13 61.2322C111.14 61.2492 111.143 61.2689 111.139 61.288C111.136 61.3071 111.125 61.3243 111.11 61.3366C111.095 61.3489 111.076 61.3555 111.057 61.3552H111.054Z" fill="url(#paint31_linear_193_7554)"/>
<path d="M113.237 61.1146C113.003 61.1141 112.772 61.0585 112.564 60.9523C112.355 60.8462 112.174 60.6925 112.036 60.5037C111.897 60.3149 111.805 60.0961 111.766 59.8651C111.728 59.6341 111.744 59.3973 111.814 59.1738C111.897 58.9096 112.051 58.6734 112.259 58.4916C112.468 58.3097 112.723 58.1893 112.996 58.1438C113.269 58.0983 113.549 58.1294 113.806 58.2338C114.062 58.3381 114.284 58.5115 114.448 58.7347C114.612 58.9579 114.71 59.2221 114.733 59.498C114.755 59.7739 114.701 60.0505 114.575 60.2972C114.45 60.5439 114.258 60.7509 114.022 60.8953C113.786 61.0396 113.514 61.1155 113.237 61.1146ZM113.237 58.2529C112.947 58.2541 112.664 58.3477 112.43 58.5202C112.196 58.6927 112.023 58.9351 111.936 59.2125C111.828 59.5581 111.862 59.9324 112.03 60.253C112.199 60.5736 112.487 60.8144 112.833 60.9222C113.178 61.03 113.553 60.9962 113.873 60.828C114.194 60.6599 114.435 60.3713 114.543 60.0256C114.596 59.8544 114.615 59.6743 114.599 59.4956C114.582 59.317 114.531 59.1433 114.448 58.9845C114.364 58.8257 114.25 58.6849 114.112 58.5702C113.974 58.4555 113.815 58.3691 113.644 58.3159C113.511 58.274 113.372 58.2528 113.233 58.2529H113.237ZM109.756 60.6294C109.605 60.6294 109.454 60.6065 109.309 60.5617C108.978 60.4588 108.694 60.2445 108.503 59.9552C108.313 59.666 108.229 59.3197 108.266 58.9754C108.302 58.6311 108.457 58.3102 108.703 58.0672C108.95 57.8242 109.273 57.6742 109.618 57.6429C109.963 57.6115 110.308 57.7007 110.594 57.8952C110.881 58.0897 111.091 58.3775 111.189 58.7095C111.287 59.0416 111.266 59.3973 111.132 59.7162C110.997 60.035 110.755 60.2972 110.449 60.458C110.235 60.5707 109.998 60.6295 109.756 60.6294ZM109.756 57.7677C109.43 57.768 109.115 57.8851 108.867 58.0979C108.62 58.3106 108.457 58.6049 108.408 58.9275C108.358 59.2501 108.426 59.5796 108.599 59.8563C108.772 60.1331 109.038 60.3388 109.35 60.4363C109.537 60.4943 109.735 60.5112 109.93 60.4858C110.124 60.4604 110.311 60.3933 110.478 60.289C110.644 60.1847 110.786 60.0458 110.894 59.8817C111.002 59.7176 111.073 59.5322 111.102 59.3381C111.132 59.144 111.119 58.9458 111.065 58.757C111.011 58.5682 110.917 58.3933 110.789 58.2443C110.661 58.0952 110.503 57.9754 110.325 57.8932C110.146 57.8109 109.953 57.7681 109.756 57.7677Z" fill="white"/>
<path d="M111.805 59.6537H111.794L111.132 59.5398C111.115 59.5362 111.1 59.5265 111.091 59.5125C111.081 59.4986 111.077 59.4815 111.079 59.4646C111.082 59.4479 111.092 59.4333 111.106 59.4235C111.12 59.4137 111.137 59.4095 111.154 59.4117L111.815 59.5256C111.829 59.5309 111.841 59.5405 111.848 59.5529C111.856 59.5652 111.86 59.5798 111.858 59.5943C111.857 59.6089 111.851 59.6226 111.842 59.6336C111.832 59.6445 111.819 59.652 111.805 59.655V59.6537ZM112.232 61.9381C112.198 62.212 112.059 62.4622 111.845 62.6358C111.63 62.8094 111.356 62.893 111.081 62.8689C110.806 62.8449 110.551 62.715 110.37 62.5068C110.189 62.2985 110.096 62.0281 110.11 61.7524L112.232 61.9381Z" fill="white"/>
<path d="M111.761 54.8058C111.761 54.8058 111.974 56.0887 108.746 56.5203C108.746 56.5203 107.839 54.4528 108.846 52.7837L111.761 54.8058Z" fill="black"/>
<path d="M138.949 65.1998C138.803 65.1735 138.652 65.1999 138.523 65.2743C138.394 65.3487 138.295 65.4663 138.245 65.6064L137.587 66.8106L135.6 63.3965C135.58 63.3605 135.552 63.3292 135.519 63.3046C135.486 63.2799 135.448 63.2624 135.407 63.2531C135.367 63.2439 135.325 63.2431 135.284 63.2509C135.244 63.2587 135.205 63.2748 135.171 63.2982C135.113 63.3396 135.072 63.3992 135.053 63.4674C135.034 63.5355 135.039 63.6081 135.067 63.673L136.104 66.1803L133.97 63.6791C133.945 63.6492 133.914 63.6247 133.879 63.6069C133.844 63.5891 133.806 63.5785 133.767 63.5756C133.728 63.5727 133.689 63.5776 133.652 63.59C133.615 63.6024 133.581 63.6221 133.551 63.6479C133.493 63.6997 133.457 63.7716 133.451 63.849C133.444 63.9263 133.468 64.0032 133.516 64.064L133.532 64.0877C133.523 64.0816 135.518 66.6018 135.518 66.6018L133.444 64.5567C133.403 64.5162 133.35 64.4906 133.293 64.484C133.235 64.4774 133.178 64.4901 133.128 64.5201C133.098 64.5391 133.071 64.5645 133.051 64.5944C133.031 64.6243 133.017 64.6581 133.011 64.6937C133.004 64.7293 133.005 64.7658 133.014 64.8009C133.023 64.836 133.038 64.869 133.061 64.8975L134.855 67.2165L132.876 65.8957C132.757 65.8198 132.664 65.8083 132.568 65.9133C132.548 65.9343 132.532 65.9589 132.521 65.9858C132.503 66.0395 132.501 66.0971 132.515 66.1519C132.529 66.2067 132.558 66.2564 132.6 66.2949L136.251 70.6224L138.746 69.7415C138.758 69.2665 138.741 68.7913 138.696 68.3184C138.621 67.4272 138.949 65.1998 138.949 65.1998Z" fill="url(#paint32_linear_193_7554)"/>
<path d="M153.659 43.3701C153.659 43.3701 151.92 51.7352 156.912 52.4339L156.919 55.0381L160.024 57.1944L164.25 54.4777L165.223 54.807L163.822 44.4991L153.659 43.3701Z" fill="url(#paint33_linear_193_7554)"/>
<path d="M153.659 43.37C153.659 43.37 154.968 45.6931 157.88 44.1717C157.88 44.1717 158.914 43.7617 159.337 44.9734C159.486 45.4003 159.693 45.8977 160.1 46.1424C160.172 46.1884 160.252 46.2183 160.336 46.23C160.42 46.2417 160.505 46.2349 160.586 46.2101C160.699 46.1695 160.79 46.0848 160.891 46.0183C161.37 45.6992 162.072 45.8516 162.444 46.2894C163.212 47.1982 162.608 48.6057 161.423 48.6666C161.213 48.6777 161.003 48.6713 160.795 48.6477C160.795 48.6477 160.971 50.8575 164.634 50.4679L164.02 43.6276C164.02 43.6276 164.112 41.9016 162.597 42.6436L162.692 41.4916C162.692 41.4916 161.189 42.9865 158.414 41.7091C155.638 40.4317 154.163 39.4803 152.967 40.9772C151.772 42.4742 152.682 44.045 153.487 44.3255L153.659 43.37Z" fill="#464646"/>
<path d="M156.91 52.4351C156.91 52.4351 159.864 52.473 161.315 50.8975C161.315 50.8975 160.591 53.0057 156.91 53.5783V52.4351Z" fill="url(#paint34_linear_193_7554)"/>
<path d="M158.157 47.4979C158.187 47.6863 158.098 47.8577 157.958 47.8794C157.818 47.9011 157.68 47.7662 157.651 47.5772C157.622 47.3881 157.711 47.2173 157.85 47.1956C157.99 47.174 158.127 47.3088 158.157 47.4979Z" fill="#464646"/>
<path d="M157.891 48.4373C157.647 48.4368 157.412 48.3494 157.227 48.1907C157.042 48.032 156.92 47.8126 156.883 47.572L156.758 46.7784L159.304 46.3779L159.428 47.1715C159.449 47.3041 159.444 47.4395 159.413 47.5701C159.381 47.7007 159.324 47.8237 159.245 47.9323C159.166 48.0409 159.067 48.1328 158.952 48.2029C158.838 48.2729 158.71 48.3196 158.578 48.3404L158.051 48.4231C157.998 48.4319 157.944 48.4367 157.891 48.4373ZM156.93 46.9058L157.032 47.551C157.068 47.7792 157.193 47.9838 157.38 48.1197C157.567 48.2557 157.8 48.3119 158.028 48.2761L158.554 48.1934C158.667 48.1756 158.776 48.1358 158.873 48.0761C158.971 48.0165 159.056 47.9381 159.123 47.8456C159.191 47.7531 159.239 47.6483 159.266 47.537C159.293 47.4257 159.298 47.3103 159.28 47.1972L159.178 46.5528L156.93 46.9058Z" fill="white"/>
<path d="M155.615 47.8978C155.644 48.0862 155.555 48.2576 155.415 48.2793C155.274 48.301 155.138 48.1662 155.108 47.9771C155.078 47.788 155.167 47.6173 155.311 47.5956C155.455 47.5739 155.585 47.7074 155.615 47.8978Z" fill="#464646"/>
<path d="M154.674 48.9431C154.431 48.9424 154.196 48.855 154.011 48.6967C153.827 48.5383 153.705 48.3194 153.667 48.0791L153.542 47.2856L156.087 46.8857L156.213 47.6793C156.254 47.947 156.188 48.2204 156.029 48.4394C155.869 48.6584 155.629 48.8052 155.362 48.8476L154.836 48.9302C154.782 48.9386 154.728 48.9429 154.674 48.9431ZM153.715 47.4109L153.816 48.0561C153.852 48.2843 153.977 48.4889 154.164 48.6248C154.351 48.7608 154.584 48.817 154.812 48.7812L155.338 48.6985C155.566 48.6625 155.771 48.5373 155.907 48.3506C156.043 48.1638 156.099 47.9306 156.064 47.7023L155.962 47.0579L153.715 47.4109ZM156.578 49.8031C156.645 50.1195 156.833 50.3975 157.101 50.5785C157.369 50.7595 157.697 50.8293 158.016 50.7732C158.334 50.7172 158.619 50.5397 158.809 50.2781C159 50.0165 159.081 49.6912 159.036 49.3707L156.578 49.8031Z" fill="white"/>
<path d="M156.403 46.5923L155.903 48.8963L156.962 49.0014L156.403 46.5923Z" fill="url(#paint35_linear_193_7554)"/>
<path d="M156.961 49.0768H156.954L155.895 48.9718C155.885 48.9706 155.875 48.9673 155.866 48.962C155.856 48.9568 155.848 48.9497 155.842 48.9413C155.836 48.9326 155.832 48.9228 155.829 48.9124C155.827 48.9021 155.827 48.8914 155.829 48.881L156.328 46.5769C156.334 46.5587 156.346 46.5433 156.363 46.5337C156.379 46.5242 156.399 46.5211 156.417 46.5252C156.436 46.5293 156.452 46.5402 156.463 46.5558C156.474 46.5714 156.479 46.5906 156.476 46.6094L155.998 48.8301L156.972 48.9264C156.992 48.9273 157.011 48.9362 157.024 48.951C157.038 48.9658 157.045 48.9854 157.044 49.0053C157.043 49.0253 157.034 49.044 157.019 49.0574C157.004 49.0708 156.985 49.0778 156.965 49.0768H156.961Z" fill="url(#paint36_linear_193_7554)"/>
<path d="M158.369 45.8094C158.369 45.85 158.354 45.889 158.326 45.9188C158.298 45.9485 158.261 45.9668 158.22 45.97L157.339 46.0378C157.277 46.0378 157.217 46.0131 157.173 45.9691C157.129 45.9252 157.105 45.8655 157.105 45.8033C157.105 45.7706 157.111 45.7382 157.125 45.7083C157.138 45.6783 157.157 45.6514 157.181 45.6294C157.205 45.6073 157.234 45.5905 157.265 45.5801C157.296 45.5697 157.329 45.5659 157.362 45.5689L158.221 45.6495C158.261 45.6529 158.299 45.6712 158.326 45.7007C158.353 45.7303 158.369 45.7691 158.369 45.8094ZM154.749 46.6579C154.759 46.6972 154.784 46.7313 154.818 46.7535C154.852 46.7756 154.893 46.784 154.933 46.7771L155.801 46.6226C155.831 46.615 155.859 46.6016 155.884 46.5831C155.909 46.5647 155.929 46.5415 155.945 46.5149C155.961 46.4883 155.971 46.4589 155.976 46.4284C155.98 46.3978 155.979 46.3666 155.971 46.3367C155.963 46.305 155.948 46.2754 155.928 46.2497C155.908 46.224 155.882 46.2028 155.853 46.1875C155.825 46.1721 155.793 46.1629 155.76 46.1605C155.728 46.1581 155.695 46.1624 155.664 46.1733L154.851 46.4641C154.813 46.4775 154.782 46.5046 154.763 46.5399C154.744 46.5753 154.739 46.6164 154.749 46.6552V46.6579Z" fill="#464646"/>
<path d="M159.205 46.6092L153.701 47.4746C153.683 47.4774 153.665 47.4768 153.648 47.4727C153.63 47.4685 153.614 47.461 153.6 47.4505C153.585 47.4399 153.573 47.4267 153.563 47.4114C153.554 47.3961 153.548 47.3791 153.545 47.3614C153.542 47.3437 153.543 47.3255 153.547 47.3081C153.551 47.2906 153.559 47.2741 153.57 47.2596C153.58 47.2451 153.593 47.2329 153.609 47.2236C153.624 47.2143 153.641 47.2082 153.659 47.2055L159.163 46.3401C159.181 46.3373 159.199 46.3379 159.216 46.3421C159.234 46.3463 159.25 46.3539 159.265 46.3645C159.279 46.3751 159.292 46.3884 159.301 46.4038C159.31 46.4192 159.316 46.4362 159.319 46.454C159.322 46.4717 159.321 46.4897 159.317 46.5071C159.313 46.5245 159.305 46.5409 159.294 46.5553C159.284 46.5697 159.27 46.5819 159.255 46.5912C159.24 46.6004 159.223 46.6065 159.205 46.6092Z" fill="white"/>
<path d="M158.961 85.3543C159.009 85.5557 159.03 85.7626 159.024 85.9696V85.9743L159.437 89.9956H168.645L167.078 74.1654L167.071 74.0901L167.054 73.916L167.046 73.8387L167.032 73.7032L167.021 73.5873L167.011 73.4897L167.004 73.422V73.4152L166.994 73.3122L166.989 73.26L166.977 73.1367L166.973 73.0994L166.95 72.8588L166.946 72.8168L165.067 53.8423L160.182 56.8077L156.911 54.6995L156.92 53.8423L155.824 54.7503L158.925 84.9951L158.961 85.3543Z" fill="#54A5FF"/>
<path d="M145.21 76.663L140.128 68.2661L134.489 71.1801L140.253 81.9264C140.253 81.9264 140.714 82.7606 140.752 82.8447C142.28 86.1882 146.384 86.4634 149.109 83.9967C149.193 83.9215 149.277 83.8395 149.361 83.7595L145.295 76.5817L145.21 76.663Z" fill="url(#paint37_linear_193_7554)"/>
<path d="M149.385 89.9934H159.445C158.835 83.6139 156.042 54.7014 155.823 54.7461C148.251 56.2885 143.595 60.6418 142.079 66.8865C141.23 70.3825 141.326 80.2147 141.34 81.3925L149.353 83.8057C149.376 82.4449 149.189 80.5305 149.3 78.6453L149.385 89.9934Z" fill="url(#paint38_linear_193_7554)"/>
<path d="M149.301 82.2002C149.281 82.2002 149.262 82.1924 149.248 82.1786C149.234 82.1648 149.226 82.146 149.225 82.1263L148.828 64.8784C148.828 64.8585 148.836 64.8394 148.85 64.8253C148.864 64.8111 148.883 64.8032 148.903 64.8032C148.923 64.8032 148.942 64.8111 148.956 64.8253C148.97 64.8394 148.978 64.8585 148.978 64.8784L149.376 82.1263C149.376 82.1362 149.374 82.146 149.371 82.1552C149.367 82.1645 149.362 82.1729 149.355 82.1801C149.348 82.1873 149.34 82.193 149.331 82.1971C149.322 82.2011 149.313 82.2033 149.303 82.2036L149.301 82.2002Z" fill="#333333"/>
<path d="M179.987 89.9936C180.014 89.0219 180.041 88.0506 180.068 87.0797C181.162 87.0632 182.224 86.7003 183.099 86.0429C183.127 86.0225 183.154 86.0015 183.18 85.9805C183.762 85.5162 184.218 84.9127 184.505 84.2257C184.792 83.5388 184.902 82.7905 184.824 82.0501L183.687 70.8836C183.555 69.8234 183.351 68.7734 183.077 67.7406C181.595 62.2163 178.148 57.8528 172.681 56.1722L166.077 54.1453L165.066 53.8438L168.619 89.9936H179.987Z" fill="url(#paint39_linear_193_7554)"/>
<path d="M162.965 89.6598C162.942 89.6597 162.92 89.6516 162.903 89.637C162.886 89.6223 162.875 89.602 162.872 89.5798C162.832 89.3149 162.817 89.0628 162.804 88.8188C162.796 88.6752 162.787 88.5261 162.773 88.375C162.735 87.908 162.688 87.433 162.642 86.9742C162.596 86.5154 162.548 86.0384 162.511 85.5701C162.502 85.4264 162.494 85.2814 162.487 85.1411C162.476 84.7119 162.434 84.2839 162.363 83.8604C162.305 83.5148 162.131 83.2389 161.947 82.9462C161.903 82.8784 161.859 82.8066 161.815 82.7348C161.768 82.6714 161.736 82.5983 161.721 82.5209C161.706 82.4436 161.709 82.3638 161.728 82.2875C161.772 82.154 161.832 82.0265 161.907 81.908C161.974 81.8041 162.027 81.6921 162.066 81.5746C162.117 81.3713 161.924 81.2527 161.666 81.124C161.577 81.0841 161.498 81.0262 161.433 80.9538C161.368 80.8814 161.319 80.7963 161.289 80.7038C161.269 80.6258 161.265 80.5443 161.278 80.4647C161.291 80.3851 161.322 80.3093 161.367 80.2423C161.37 80.2361 161.374 80.2304 161.379 80.2254C161.409 80.1881 161.429 80.1441 161.436 80.0973C161.446 80.0598 161.458 80.0233 161.474 79.9882C161.478 79.9812 161.482 79.9748 161.487 79.9692C161.737 79.6772 161.894 79.4373 161.986 79.194C161.616 74.5703 161.211 69.8829 160.819 65.35C160.578 62.5587 160.328 59.6726 160.089 56.8284C160.088 56.8161 160.09 56.8037 160.093 56.7919C160.097 56.7801 160.103 56.7691 160.111 56.7597C160.119 56.7502 160.129 56.7424 160.14 56.7367C160.151 56.731 160.163 56.7275 160.175 56.7264C160.187 56.7254 160.2 56.7267 160.211 56.7305C160.223 56.7342 160.234 56.7402 160.244 56.7482C160.253 56.7561 160.261 56.7659 160.267 56.7769C160.272 56.7878 160.276 56.7998 160.277 56.8122C160.515 59.6583 160.766 62.5425 161.007 65.3338C161.399 69.8741 161.805 74.5696 162.176 79.2008C162.177 79.2143 162.175 79.228 162.17 79.2407C162.069 79.5118 161.905 79.7693 161.638 80.0817C161.63 80.1039 161.623 80.1265 161.618 80.1495C161.603 80.2243 161.57 80.2942 161.521 80.3528C161.492 80.3969 161.472 80.4467 161.464 80.4989C161.455 80.5511 161.458 80.6045 161.471 80.6557C161.494 80.7226 161.531 80.7839 161.579 80.8359C161.627 80.8879 161.685 80.9295 161.75 80.9579C161.985 81.0759 162.341 81.2534 162.248 81.6261C162.205 81.7596 162.145 81.8871 162.07 82.0056C162.003 82.1095 161.95 82.2216 161.911 82.339C161.898 82.3898 161.896 82.443 161.907 82.4944C161.918 82.5458 161.94 82.594 161.973 82.6352C162.015 82.7029 162.06 82.7768 162.103 82.8452C162.29 83.14 162.482 83.4456 162.546 83.8272C162.618 84.2583 162.661 84.694 162.673 85.131C162.68 85.2706 162.687 85.4149 162.696 85.5559C162.733 86.0214 162.781 86.4958 162.827 86.9552C162.873 87.4147 162.92 87.8904 162.958 88.358C162.972 88.5112 162.981 88.6616 162.99 88.8066C163.005 89.058 163.018 89.2952 163.057 89.552C163.059 89.5643 163.059 89.5768 163.056 89.5888C163.053 89.6008 163.047 89.6121 163.04 89.622C163.033 89.632 163.023 89.6404 163.013 89.6467C163.002 89.6531 162.99 89.6573 162.978 89.6591L162.965 89.6598Z" fill="white"/>
<path d="M158.031 58.1549C158.016 58.155 158.001 58.1515 157.988 58.1448C157.975 58.1381 157.964 58.1283 157.955 58.1163L155.777 55.1265C155.762 55.1063 155.756 55.081 155.76 55.0563C155.764 55.0316 155.777 55.0094 155.798 54.9947C155.818 54.9799 155.843 54.9738 155.868 54.9777C155.892 54.9816 155.915 54.9951 155.929 55.0153L158.057 57.9367L160.132 56.7386C160.147 56.7306 160.163 56.7264 160.179 56.7264C160.196 56.7264 160.212 56.7306 160.226 56.7386L161.926 57.7206L165.165 55.3637C165.175 55.3564 165.187 55.3511 165.199 55.3482C165.211 55.3453 165.223 55.3448 165.235 55.3467C165.248 55.3486 165.259 55.3529 165.27 55.3594C165.281 55.3658 165.29 55.3743 165.297 55.3843C165.304 55.3943 165.31 55.4057 165.312 55.4177C165.315 55.4298 165.316 55.4423 165.314 55.4545C165.312 55.4667 165.308 55.4785 165.301 55.4891C165.295 55.4996 165.286 55.5088 165.276 55.5161L161.988 57.909C161.973 57.9195 161.955 57.9257 161.937 57.9266C161.919 57.9276 161.901 57.9233 161.885 57.9144L160.179 56.9291L158.078 58.1427C158.064 58.1507 158.047 58.1549 158.031 58.1549Z" fill="white"/>
<path d="M159.564 60.1843C159.796 60.1843 159.983 59.9968 159.983 59.7655C159.983 59.5342 159.796 59.3467 159.564 59.3467C159.333 59.3467 159.146 59.5342 159.146 59.7655C159.146 59.9968 159.333 60.1843 159.564 60.1843Z" fill="white"/>
<path d="M160.262 69.466C160.493 69.466 160.68 69.2785 160.68 69.0472C160.68 68.8159 160.493 68.6284 160.262 68.6284C160.03 68.6284 159.843 68.8159 159.843 69.0472C159.843 69.2785 160.03 69.466 160.262 69.466Z" fill="white"/>
<path d="M161.378 77.8628C161.378 77.9458 161.353 78.027 161.307 78.0959C161.261 78.1649 161.195 78.2187 161.118 78.2504C161.042 78.2822 160.957 78.2904 160.876 78.2742C160.795 78.258 160.72 78.2179 160.661 78.1592C160.603 78.1005 160.563 78.0257 160.547 77.9442C160.53 77.8628 160.539 77.7785 160.571 77.7018C160.603 77.6252 160.656 77.5597 160.725 77.5137C160.795 77.4677 160.876 77.4432 160.959 77.4434C161.014 77.4434 161.068 77.4542 161.119 77.4753C161.17 77.4964 161.216 77.5273 161.255 77.5663C161.294 77.6052 161.325 77.6515 161.346 77.7024C161.367 77.7532 161.378 77.8078 161.378 77.8628ZM162.357 88.2019C162.357 88.2849 162.332 88.366 162.286 88.435C162.24 88.504 162.174 88.5577 162.098 88.5895C162.021 88.6212 161.937 88.6295 161.855 88.6133C161.774 88.5972 161.699 88.5572 161.641 88.4985C161.582 88.4399 161.542 88.3651 161.526 88.2838C161.51 88.2024 161.518 88.118 161.55 88.0414C161.581 87.9647 161.635 87.8992 161.704 87.8531C161.773 87.8071 161.854 87.7824 161.937 87.7824C162.049 87.7824 162.155 87.8266 162.234 87.9053C162.313 87.984 162.357 88.0907 162.357 88.2019Z" fill="white"/>
<path d="M135.68 72.2017C135.611 72.1321 135.564 72.0436 135.546 71.9475C135.528 71.8514 135.538 71.752 135.576 71.6619C135.614 71.5717 135.678 71.4948 135.76 71.441C135.841 71.3872 135.937 71.3588 136.035 71.3595C136.133 71.3602 136.228 71.3898 136.309 71.4448C136.39 71.4997 136.453 71.5774 136.49 71.6681C136.527 71.7587 136.536 71.8583 136.516 71.9541C136.497 72.0499 136.449 72.1378 136.379 72.2065C136.286 72.2984 136.16 72.3495 136.028 72.3486C135.897 72.3477 135.772 72.2949 135.68 72.2017ZM136.277 71.6135C136.229 71.5655 136.168 71.5327 136.101 71.5195C136.034 71.5062 135.965 71.513 135.902 71.539C135.84 71.565 135.786 71.6091 135.748 71.6656C135.71 71.7221 135.69 71.7885 135.69 71.8565C135.69 71.9244 135.71 71.9908 135.748 72.0473C135.786 72.1038 135.84 72.1479 135.902 72.1739C135.965 72.1999 136.034 72.2067 136.101 72.1934C136.168 72.1802 136.229 72.1474 136.277 72.0994C136.309 72.0676 136.334 72.0298 136.352 71.9881C136.369 71.9464 136.378 71.9017 136.378 71.8566C136.378 71.8114 136.369 71.7667 136.352 71.725C136.335 71.6833 136.309 71.6454 136.277 71.6135H136.277ZM135.899 73.9718C135.894 73.9667 135.89 73.961 135.886 73.9548C135.877 73.9372 135.875 73.9166 135.881 73.8974C135.886 73.8782 135.899 73.8621 135.917 73.8525L140.77 71.2218C140.788 71.2123 140.809 71.2103 140.829 71.2163C140.848 71.2222 140.865 71.2357 140.874 71.2537C140.884 71.2716 140.886 71.2927 140.88 71.3121C140.874 71.3316 140.86 71.3478 140.842 71.3574L135.989 73.9887C135.974 73.9961 135.957 73.9984 135.941 73.9953C135.925 73.9923 135.91 73.984 135.899 73.9718Z" fill="#333333"/>
<path d="M173.113 88.0273L163.827 89.2871L162.788 82.871L173.718 80.6909L173.113 88.0273Z" fill="url(#paint40_linear_193_7554)"/>
<path d="M165.475 82.4104C165.458 82.4103 165.441 82.4043 165.427 82.3933C165.414 82.3823 165.405 82.3671 165.401 82.3501C165.399 82.3403 165.399 82.3303 165.401 82.3205C165.403 82.3108 165.407 82.3015 165.412 82.2933C165.418 82.285 165.425 82.2779 165.433 82.2724C165.442 82.267 165.451 82.2632 165.461 82.2613L175.975 80.1606L173.211 63.5829C173.209 63.5732 173.209 63.5632 173.211 63.5536C173.214 63.5439 173.218 63.5348 173.223 63.5268C173.229 63.5187 173.236 63.5119 173.245 63.5066C173.253 63.5014 173.262 63.4978 173.272 63.4962C173.282 63.4945 173.292 63.4948 173.302 63.497C173.311 63.4992 173.32 63.5033 173.328 63.509C173.336 63.5148 173.343 63.522 173.349 63.5304C173.354 63.5388 173.357 63.5481 173.359 63.5578L176.137 80.2114C176.141 80.2307 176.136 80.2505 176.125 80.2666C176.114 80.2828 176.097 80.2938 176.078 80.2975L165.492 82.409L165.475 82.4104ZM163.893 89.3598C163.874 89.3599 163.855 89.3526 163.841 89.3396C163.827 89.3266 163.819 89.3087 163.818 89.2897C163.816 89.2707 163.822 89.2518 163.834 89.2371C163.846 89.2223 163.864 89.2126 163.883 89.2101L180.055 87.0043C180.074 87.0035 180.092 87.0098 180.107 87.0219C180.121 87.034 180.131 87.0512 180.133 87.0699C180.136 87.0886 180.131 87.1076 180.121 87.1232C180.11 87.1388 180.094 87.1498 180.075 87.154L163.901 89.3591L163.893 89.3598ZM164.841 88.2139C164.806 88.2137 164.771 88.2099 164.737 88.2024C164.641 88.1818 164.554 88.1334 164.486 88.0631C164.418 87.9928 164.372 87.904 164.355 87.8077C164.337 87.7115 164.349 87.6122 164.388 87.5225C164.427 87.4328 164.491 87.3567 164.574 87.3038C164.628 87.2682 164.689 87.2439 164.753 87.2322C164.817 87.2206 164.882 87.2219 164.946 87.236C165.065 87.2622 165.17 87.3313 165.241 87.4301C165.312 87.529 165.344 87.6506 165.332 87.7717C165.319 87.8928 165.261 88.0049 165.171 88.0865C165.081 88.1681 164.963 88.2135 164.841 88.2139ZM164.841 87.375C164.759 87.3781 164.68 87.4109 164.619 87.4674C164.559 87.5239 164.521 87.6003 164.512 87.6827C164.503 87.765 164.525 87.8477 164.572 87.9157C164.619 87.9836 164.689 88.0322 164.77 88.0526C164.858 88.0711 164.951 88.0538 165.027 88.0045C165.103 87.9551 165.157 87.8777 165.176 87.789C165.195 87.7002 165.177 87.6076 165.128 87.5315C165.079 87.4553 165.001 87.4018 164.913 87.3824C164.889 87.3774 164.865 87.3749 164.841 87.375H164.841Z" fill="#333333"/>
<path d="M166.717 88.9765C166.699 88.9765 166.682 88.97 166.668 88.9583C166.654 88.9467 166.645 88.9306 166.642 88.9128L165.74 83.2245C165.738 83.2148 165.739 83.2048 165.741 83.1951C165.743 83.1855 165.747 83.1764 165.753 83.1684C165.759 83.1603 165.766 83.1535 165.775 83.1484C165.783 83.1432 165.793 83.1397 165.802 83.1381C165.812 83.1366 165.822 83.137 165.832 83.1393C165.841 83.1416 165.851 83.1458 165.859 83.1516C165.867 83.1574 165.873 83.1648 165.879 83.1732C165.884 83.1817 165.887 83.191 165.889 83.2008L166.791 88.8891C166.795 88.9089 166.79 88.9291 166.778 88.9453C166.766 88.9616 166.749 88.9725 166.729 88.9759L166.717 88.9765Z" fill="#333333"/>
<path d="M156.63 88.8031L157.203 88.0631L157.157 89.7572C157.157 89.8027 157.167 89.8477 157.186 89.8887C157.206 89.9297 157.235 89.9657 157.271 89.9937H157.641C157.695 89.9521 157.733 89.8932 157.748 89.827L157.983 88.7184L158.976 87.4064L158.085 88.6377L158.135 89.9971H158.725L158.974 88.9671L159.68 88.0251C159.687 88.0159 159.696 88.0091 159.707 88.0058C159.718 88.0025 159.73 88.0028 159.741 88.0068C159.748 88.0095 159.755 88.0138 159.76 88.0193C159.765 88.0248 159.77 88.0314 159.772 88.0387C159.775 88.046 159.776 88.0538 159.775 88.0615C159.775 88.0692 159.772 88.0767 159.769 88.0834L159.249 89.0003L159.033 89.9971H159.771L160.134 89.3418L160.597 88.57L161.32 88.1681C162.452 88.5862 163.048 87.9296 163.048 87.9296L163.618 88.015L163.028 84.3237C162.654 84.417 162.285 84.5315 161.924 84.6666L158.856 85.7793L157.324 86.6983C157.166 86.7938 157.038 86.9338 156.958 87.1008L156.253 88.5727C156.231 88.6222 156.227 88.6783 156.242 88.7305C156.258 88.7827 156.292 88.8274 156.339 88.856C156.385 88.8846 156.44 88.8952 156.494 88.8859C156.548 88.8765 156.596 88.8478 156.63 88.8051V88.8031Z" fill="url(#paint41_linear_193_7554)"/>
<path d="M157.26 88.1129H157.256C157.251 88.1122 157.246 88.1106 157.242 88.1081C157.237 88.1055 157.233 88.1022 157.23 88.0983C157.227 88.0943 157.225 88.0898 157.224 88.0849C157.223 88.0801 157.222 88.0751 157.223 88.0702L157.235 87.9773C157.253 87.8437 157.316 87.7203 157.414 87.6277L158.552 86.557C158.559 86.5499 158.569 86.5459 158.579 86.5459C158.589 86.5459 158.598 86.5499 158.605 86.557C158.609 86.5604 158.612 86.5645 158.614 86.569C158.616 86.5736 158.617 86.5784 158.617 86.5834C158.617 86.5883 158.616 86.5932 158.614 86.5977C158.612 86.6023 158.609 86.6064 158.605 86.6098L157.468 87.6812C157.383 87.7616 157.327 87.8691 157.312 87.9855L157.3 88.079C157.299 88.0838 157.298 88.0885 157.296 88.0928C157.294 88.0971 157.291 88.1009 157.287 88.1041C157.283 88.1072 157.279 88.1096 157.274 88.1111C157.27 88.1126 157.265 88.1132 157.26 88.1129ZM158.103 88.6855C158.099 88.6864 158.095 88.6864 158.09 88.6855C158.086 88.6839 158.081 88.6814 158.078 88.6781C158.074 88.6748 158.071 88.6707 158.069 88.6662C158.067 88.6617 158.066 88.6568 158.065 88.6519C158.065 88.6469 158.066 88.642 158.068 88.6374L158.104 88.5398C158.105 88.536 158.107 88.5325 158.11 88.5296L158.951 87.4698C158.954 87.4651 158.958 87.4611 158.962 87.4581C158.966 87.455 158.971 87.4529 158.977 87.4519C158.982 87.451 158.988 87.4511 158.993 87.4524C158.998 87.4537 159.003 87.4562 159.007 87.4595C159.011 87.4629 159.015 87.4671 159.017 87.4719C159.02 87.4767 159.021 87.482 159.022 87.4874C159.022 87.4928 159.021 87.4982 159.019 87.5032C159.017 87.5082 159.014 87.5128 159.01 87.5165L158.172 88.5696L158.139 88.6611C158.136 88.6683 158.131 88.6745 158.125 88.6789C158.118 88.6832 158.111 88.6855 158.103 88.6855Z" fill="#FF7867"/>
<path d="M147.077 80.1957C147.062 80.1957 147.046 80.1915 147.033 80.1836C147.02 80.1758 147.008 80.1645 147.001 80.151L141.699 71.0087C141.694 70.9986 141.69 70.9874 141.688 70.9759C141.687 70.9643 141.688 70.9526 141.691 70.9413C141.694 70.93 141.699 70.9195 141.706 70.9102C141.713 70.901 141.722 70.8932 141.732 70.8874C141.742 70.8816 141.753 70.8778 141.765 70.8762C141.776 70.8747 141.788 70.8755 141.799 70.8785C141.811 70.8815 141.821 70.8867 141.83 70.8938C141.84 70.9009 141.847 70.9098 141.853 70.9199L147.157 80.0622C147.169 80.0826 147.172 80.1067 147.166 80.1294C147.16 80.1521 147.146 80.1715 147.125 80.1835C147.111 80.192 147.094 80.1962 147.077 80.1957Z" fill="#333333"/>
<defs>
<linearGradient id="paint0_linear_193_7554" x1="86.3693" y1="56.2821" x2="76.3596" y2="63.2699" gradientUnits="userSpaceOnUse">
<stop stop-color="#F9B776"/>
<stop offset="1" stop-color="#F47960"/>
</linearGradient>
<linearGradient id="paint1_linear_193_7554" x1="80.8706" y1="56.6885" x2="78.4157" y2="58.8013" gradientUnits="userSpaceOnUse">
<stop stop-color="#F9B776"/>
<stop offset="1" stop-color="#F47960"/>
</linearGradient>
<linearGradient id="paint2_linear_193_7554" x1="83.9496" y1="60.5169" x2="81.8086" y2="62.9279" gradientUnits="userSpaceOnUse">
<stop stop-color="#F9B776"/>
<stop offset="1" stop-color="#F47960"/>
</linearGradient>
<linearGradient id="paint3_linear_193_7554" x1="85.7682" y1="57.5418" x2="84.4195" y2="57.9553" gradientUnits="userSpaceOnUse">
<stop stop-color="#F9B776"/>
<stop offset="1" stop-color="#F47960"/>
</linearGradient>
<linearGradient id="paint4_linear_193_7554" x1="100.271" y1="67.3748" x2="97.976" y2="69.3501" gradientUnits="userSpaceOnUse">
<stop stop-color="#F9B776"/>
<stop offset="1" stop-color="#F47960"/>
</linearGradient>
<linearGradient id="paint5_linear_193_7554" x1="101.899" y1="62.6179" x2="95.6257" y2="66.4774" gradientUnits="userSpaceOnUse">
<stop stop-color="#F9B776"/>
<stop offset="1" stop-color="#F47960"/>
</linearGradient>
<linearGradient id="paint6_linear_193_7554" x1="86.0515" y1="63.6261" x2="65.3753" y2="76.7944" gradientUnits="userSpaceOnUse">
<stop stop-color="#13335F"/>
<stop offset="1" stop-color="#1C4D8E"/>
</linearGradient>
<linearGradient id="paint7_linear_193_7554" x1="80.7106" y1="62.8514" x2="61.3496" y2="99.6361" gradientUnits="userSpaceOnUse">
<stop stop-color="#13335F"/>
<stop offset="1" stop-color="#1C4D8E"/>
</linearGradient>
<linearGradient id="paint8_linear_193_7554" x1="68.8249" y1="87.0046" x2="64.1223" y2="91.9198" gradientUnits="userSpaceOnUse">
<stop stop-color="#F9B776"/>
<stop offset="1" stop-color="#F47960"/>
</linearGradient>
<linearGradient id="paint9_linear_193_7554" x1="102.945" y1="64.4709" x2="83.1117" y2="96.2678" gradientUnits="userSpaceOnUse">
<stop stop-color="#13335F"/>
<stop offset="1" stop-color="#1C4D8E"/>
</linearGradient>
<linearGradient id="paint10_linear_193_7554" x1="83.4127" y1="61.9697" x2="82.3723" y2="64.7439" gradientUnits="userSpaceOnUse">
<stop stop-color="#F9B776"/>
<stop offset="1" stop-color="#F47960"/>
</linearGradient>
<linearGradient id="paint11_linear_193_7554" x1="86.0305" y1="61.0833" x2="85.7149" y2="64.0417" gradientUnits="userSpaceOnUse">
<stop stop-color="#13335F"/>
<stop offset="1" stop-color="#1C4D8E"/>
</linearGradient>
<linearGradient id="paint12_linear_193_7554" x1="44.224" y1="61.3509" x2="39.4218" y2="67.7587" gradientUnits="userSpaceOnUse">
<stop stop-color="#F9B776"/>
<stop offset="1" stop-color="#F47960"/>
</linearGradient>
<linearGradient id="paint13_linear_193_7554" x1="66.0429" y1="28.5936" x2="62.7234" y2="32.0202" gradientUnits="userSpaceOnUse">
<stop stop-color="#F9B776"/>
<stop offset="1" stop-color="#F47960"/>
</linearGradient>
<linearGradient id="paint14_linear_193_7554" x1="11.7748" y1="47.2396" x2="8.4553" y2="50.6662" gradientUnits="userSpaceOnUse">
<stop stop-color="#F9B776"/>
<stop offset="1" stop-color="#F47960"/>
</linearGradient>
<linearGradient id="paint15_linear_193_7554" x1="10.5076" y1="41.3663" x2="1.79137" y2="47.9158" gradientUnits="userSpaceOnUse">
<stop stop-color="#F9B776"/>
<stop offset="1" stop-color="#F47960"/>
</linearGradient>
<linearGradient id="paint16_linear_193_7554" x1="43.8024" y1="60.9315" x2="40.4592" y2="66.4484" gradientUnits="userSpaceOnUse">
<stop stop-color="#F9B776"/>
<stop offset="1" stop-color="#F47960"/>
</linearGradient>
<linearGradient id="paint17_linear_193_7554" x1="43.3032" y1="56.7401" x2="33.5865" y2="65.0582" gradientUnits="userSpaceOnUse">
<stop stop-color="#F9B776"/>
<stop offset="1" stop-color="#F47960"/>
</linearGradient>
<linearGradient id="paint18_linear_193_7554" x1="44.5157" y1="57.7797" x2="39.011" y2="66.7311" gradientUnits="userSpaceOnUse">
<stop stop-color="#F9B776"/>
<stop offset="1" stop-color="#F47960"/>
</linearGradient>
<linearGradient id="paint19_linear_193_7554" x1="69.7791" y1="22.7235" x2="61.0644" y2="29.2734" gradientUnits="userSpaceOnUse">
<stop stop-color="#F9B776"/>
<stop offset="1" stop-color="#F47960"/>
</linearGradient>
<linearGradient id="paint20_linear_193_7554" x1="41.5032" y1="58.3779" x2="39.3757" y2="59.6357" gradientUnits="userSpaceOnUse">
<stop stop-color="#F9B776"/>
<stop offset="1" stop-color="#F47960"/>
</linearGradient>
<linearGradient id="paint21_linear_193_7554" x1="41.5521" y1="58.3578" x2="39.2634" y2="59.744" gradientUnits="userSpaceOnUse">
<stop stop-color="#F9B776"/>
<stop offset="1" stop-color="#F47960"/>
</linearGradient>
<linearGradient id="paint22_linear_193_7554" x1="115.394" y1="58.6748" x2="102.846" y2="64.7081" gradientUnits="userSpaceOnUse">
<stop stop-color="#F9B776"/>
<stop offset="1" stop-color="#F47960"/>
</linearGradient>
<linearGradient id="paint23_linear_193_7554" x1="144.608" y1="97.1516" x2="80.2239" y2="63.4658" gradientUnits="userSpaceOnUse">
<stop stop-color="#47AFF0"/>
<stop offset="1" stop-color="#46ADF0"/>
</linearGradient>
<linearGradient id="paint24_linear_193_7554" x1="126.338" y1="72.5739" x2="108.941" y2="55.42" gradientUnits="userSpaceOnUse">
<stop stop-color="#47AFF0"/>
<stop offset="1" stop-color="#46ADF0"/>
</linearGradient>
<linearGradient id="paint25_linear_193_7554" x1="130.919" y1="39.0254" x2="105.141" y2="74.0052" gradientUnits="userSpaceOnUse">
<stop stop-color="#F9B776"/>
<stop offset="1" stop-color="#F47960"/>
</linearGradient>
<linearGradient id="paint26_linear_193_7554" x1="141.853" y1="50.9537" x2="135.837" y2="56.1017" gradientUnits="userSpaceOnUse">
<stop stop-color="#F9B776"/>
<stop offset="1" stop-color="#F47960"/>
</linearGradient>
<linearGradient id="paint27_linear_193_7554" x1="143.277" y1="39.6834" x2="108.967" y2="110.012" gradientUnits="userSpaceOnUse">
<stop stop-color="#13335F"/>
<stop offset="1" stop-color="#1C4D8E"/>
</linearGradient>
<linearGradient id="paint28_linear_193_7554" x1="130.726" y1="68.1266" x2="113.754" y2="95.4104" gradientUnits="userSpaceOnUse">
<stop stop-color="#13335F"/>
<stop offset="1" stop-color="#1C4D8E"/>
</linearGradient>
<linearGradient id="paint29_linear_193_7554" x1="118.038" y1="60.9293" x2="115.23" y2="63.4491" gradientUnits="userSpaceOnUse">
<stop stop-color="#F9B776"/>
<stop offset="1" stop-color="#F47960"/>
</linearGradient>
<linearGradient id="paint30_linear_193_7554" x1="113.861" y1="63.5424" x2="112.503" y2="66.3569" gradientUnits="userSpaceOnUse">
<stop stop-color="#F9B776"/>
<stop offset="1" stop-color="#F47960"/>
</linearGradient>
<linearGradient id="paint31_linear_193_7554" x1="111.392" y1="59.6894" x2="109.675" y2="60.3286" gradientUnits="userSpaceOnUse">
<stop stop-color="#F9B776"/>
<stop offset="1" stop-color="#F47960"/>
</linearGradient>
<linearGradient id="paint32_linear_193_7554" x1="137.795" y1="65.8263" x2="130.538" y2="71.2807" gradientUnits="userSpaceOnUse">
<stop stop-color="#F9B776"/>
<stop offset="1" stop-color="#F47960"/>
</linearGradient>
<linearGradient id="paint33_linear_193_7554" x1="163.099" y1="48.2064" x2="149.571" y2="58.1916" gradientUnits="userSpaceOnUse">
<stop stop-color="#F9B776"/>
<stop offset="1" stop-color="#F47960"/>
</linearGradient>
<linearGradient id="paint34_linear_193_7554" x1="160.526" y1="51.8353" x2="157.937" y2="55.4951" gradientUnits="userSpaceOnUse">
<stop stop-color="#F9B776"/>
<stop offset="1" stop-color="#F47960"/>
</linearGradient>
<linearGradient id="paint35_linear_193_7554" x1="156.772" y1="47.4351" x2="155.14" y2="48.0522" gradientUnits="userSpaceOnUse">
<stop stop-color="#F9B776"/>
<stop offset="1" stop-color="#F47960"/>
</linearGradient>
<linearGradient id="paint36_linear_193_7554" x1="156.826" y1="47.4167" x2="154.991" y2="48.1689" gradientUnits="userSpaceOnUse">
<stop stop-color="#F9B776"/>
<stop offset="1" stop-color="#F47960"/>
</linearGradient>
<linearGradient id="paint37_linear_193_7554" x1="150.673" y1="69.4143" x2="140.277" y2="92.8729" gradientUnits="userSpaceOnUse">
<stop stop-color="#13335F"/>
<stop offset="1" stop-color="#1C4D8E"/>
</linearGradient>
<linearGradient id="paint38_linear_193_7554" x1="161.043" y1="57.0764" x2="133.822" y2="93.9378" gradientUnits="userSpaceOnUse">
<stop stop-color="#13335F"/>
<stop offset="1" stop-color="#1C4D8E"/>
</linearGradient>
<linearGradient id="paint39_linear_193_7554" x1="186.593" y1="56.2338" x2="159.234" y2="95.68" gradientUnits="userSpaceOnUse">
<stop stop-color="#13335F"/>
<stop offset="1" stop-color="#1C4D8E"/>
</linearGradient>
<linearGradient id="paint40_linear_193_7554" x1="174.682" y1="81.2592" x2="170.875" y2="94.0151" gradientUnits="userSpaceOnUse">
<stop stop-color="#13335F"/>
<stop offset="1" stop-color="#1C4D8E"/>
</linearGradient>
<linearGradient id="paint41_linear_193_7554" x1="162.295" y1="86.3085" x2="156.522" y2="92.7749" gradientUnits="userSpaceOnUse">
<stop stop-color="#F9B776"/>
<stop offset="1" stop-color="#F47960"/>
</linearGradient>
</defs>
</svg>
