<svg width="186" height="124" viewBox="0 0 186 124" fill="none" xmlns="http://www.w3.org/2000/svg">
<g clip-path="url(#clip0_166_1131)">
<g opacity="0.4">
<path d="M116.605 66.5789C107.863 61.656 93.7449 61.656 85.0567 66.5789C85.0184 66.6013 84.9726 66.6237 84.9343 66.6461C79.3436 69.8609 77.4392 74.3587 79.2135 78.4537C80.1543 80.6318 82.1351 82.6979 85.1561 84.3986C93.8979 89.3216 108.024 89.3216 116.705 84.3986C125.393 79.4756 125.339 71.4945 116.605 66.5789Z" fill="white"/>
<path d="M120.674 64.2666C109.692 58.083 91.8792 58.083 80.9653 64.2666C80.6747 64.4307 80.3841 64.6022 80.1088 64.7738L80.6671 64.9901C80.9195 64.8335 81.1718 64.6843 81.4395 64.5351C92.0933 58.5007 109.485 58.5007 120.208 64.5351C130.93 70.5769 130.992 80.4005 120.338 86.4348C109.684 92.4767 92.2922 92.4767 81.5695 86.4348C77.6384 84.2195 75.1375 81.4969 74.0744 78.6327L73.4014 78.655C74.4798 81.6088 77.0419 84.4209 81.0954 86.7034C92.0781 92.8869 109.898 92.8869 120.812 86.7034C131.718 80.5198 131.657 70.4576 120.674 64.2666Z" fill="white"/>
<path d="M124.636 62.0214C111.451 54.5996 90.0665 54.5996 76.9653 62.0214C76.43 62.3272 75.9099 62.6405 75.4204 62.9612L76.9041 63.5356C77.3324 63.267 77.776 62.9985 78.2349 62.7375C90.6401 55.7036 110.892 55.7036 123.382 62.7375C135.871 69.7713 135.94 81.2135 123.535 88.2399C111.129 95.2738 90.8696 95.2738 78.3879 88.2399C73.646 85.5696 70.6939 82.2652 69.539 78.7968L67.7417 78.8639C68.9348 82.5636 72.0629 86.0992 77.1259 88.9485C90.3113 96.3703 111.695 96.3703 124.797 88.9485C137.89 81.5268 137.821 69.4431 124.636 62.0214Z" fill="white"/>
<path d="M132.75 57.4193C115.06 47.4615 86.3722 47.4615 68.7968 57.4193C51.2215 67.3846 51.3132 83.5856 69.0033 93.5509C76.4449 97.7429 85.8368 100.167 95.527 100.831L95.4352 98.6678C86.7469 98.0114 78.357 95.796 71.6725 92.0367C55.4662 82.9143 55.382 68.0633 71.4813 58.9409C87.5806 49.8185 113.867 49.8185 130.066 58.9409C140.567 64.856 144.299 73.1653 141.255 80.7661L144.85 81.4971C148.368 73.128 144.33 63.9385 132.75 57.4193Z" fill="white"/>
<path d="M66.0973 95.1992C46.7934 84.3313 46.6864 66.646 65.8678 55.7707C85.0493 44.9029 116.353 44.9029 135.664 55.7707C154.968 66.6385 155.068 84.3239 135.894 95.1992C116.712 106.067 85.4011 106.067 66.0973 95.1992ZM136.292 55.4201C126.77 50.0571 114.135 47.1033 100.72 47.1033C87.3055 47.1033 74.7014 50.0571 65.2407 55.4201C55.78 60.7831 50.5946 67.9065 50.6404 75.4849C50.6863 83.0633 55.9482 90.1941 65.4701 95.5572C74.992 100.92 87.6267 103.867 101.049 103.867C114.464 103.867 127.068 100.913 136.529 95.5572C145.989 90.2016 151.175 83.0708 151.129 75.4849C151.083 67.9065 145.814 60.7757 136.292 55.4201Z" fill="white"/>
<path d="M164.865 62.7375L163.328 62.9985C170.173 73.8738 167.878 86.1812 156.429 96.0719L157.714 96.5866C164.949 90.3807 168.804 83.1081 168.758 75.4924C168.735 71.0767 167.396 66.7803 164.865 62.7375ZM146.311 47.0809C133.768 40.6587 117.676 37.1455 100.659 37.1455C82.5253 37.1455 65.5006 41.1361 52.7283 48.3788C39.9483 55.6215 32.9426 65.2512 33.0038 75.4924C33.065 85.7337 40.1777 95.3633 53.0419 102.606C65.906 109.849 82.9766 113.839 101.103 113.839C111.963 113.839 122.418 112.407 131.802 109.707L131.022 108.924C106.181 116.025 74.9613 113.713 54.1355 101.987C28.1932 87.3821 28.0555 63.6102 53.8296 49.0054C78.816 34.8407 119.137 34.408 145.209 47.715L146.311 47.0809Z" fill="white"/>
<path d="M155.787 44.366C148.33 40.1666 139.634 36.9144 129.959 34.6991C120.613 32.5584 110.747 31.4768 100.628 31.4768C90.5099 31.4768 80.6515 32.5584 71.3361 34.6991C61.6842 36.9144 53.0265 40.1666 45.6155 44.366C38.2045 48.5655 32.4761 53.4661 28.5832 58.9261C24.828 64.1996 22.9389 69.7715 22.9771 75.4851C23.0077 81.1988 24.958 86.7707 28.7744 92.0442C29.0191 92.3873 29.2792 92.723 29.5392 93.0661L31.0459 92.7827C18.7554 76.9919 23.9637 57.8893 46.7245 44.9851C76.3915 28.1725 124.819 28.1725 154.685 44.9851C184.543 61.7978 184.704 89.1576 155.037 105.97C136.574 116.435 110.854 120.389 86.8541 117.83L86.4717 118.71C91.2747 119.225 96.1772 119.486 101.133 119.486C111.252 119.486 121.11 118.404 130.433 116.264C140.085 114.048 148.735 110.796 156.146 106.597C163.557 102.397 169.285 97.4968 173.171 92.0367C176.926 86.7632 178.807 81.1913 178.777 75.4777C178.746 69.7641 176.796 64.1922 172.979 58.9186C169.033 53.4661 163.243 48.5655 155.787 44.366Z" fill="white"/>
<path d="M160.788 41.5314C152.651 36.9515 143.167 33.401 132.605 30.9843C126.716 29.6342 120.636 28.672 114.418 28.0977L114.533 28.3886C131.351 29.9624 147.496 34.4005 160.475 41.7104C193.553 60.3356 193.729 90.6417 160.865 109.267C128.001 127.892 74.3572 127.892 41.2791 109.267C8.20105 90.6417 8.03279 60.3356 40.8891 41.7104C44.8278 39.4727 49.0725 37.511 53.5467 35.8103L53.4396 35.5343C48.8431 37.2723 44.5449 39.2788 40.5755 41.5314C32.4838 46.1187 26.2353 51.4594 21.9906 57.4191C17.8912 63.1701 15.8339 69.2492 15.8721 75.4924C15.9103 81.7281 18.0365 87.8073 22.2047 93.5656C26.5183 99.5254 32.828 104.866 40.9656 109.453C49.1108 114.041 58.5868 117.584 69.1488 120C79.3438 122.335 90.1123 123.514 101.156 123.514C112.192 123.514 122.953 122.328 133.125 120C143.657 117.584 153.094 114.033 161.186 109.453C169.27 104.874 175.526 99.5254 179.763 93.5656C183.863 87.8147 185.92 81.7281 185.882 75.4924C185.844 69.2566 183.717 63.1775 179.549 57.4191C175.243 51.4594 168.934 46.1112 160.788 41.5314Z" fill="white"/>
</g>
<g opacity="0.1">
<path d="M140.039 90.2613L142.884 100.189L101.592 96.4896L109.799 91.8352L81.1029 75.6789L79.4203 74.7316L79.5656 99.697H91.1601L66.7091 118.8L42.044 99.697H53.7456L53.7303 96.8924L53.692 90.0077L53.5161 60.1492L0.109375 30.0221V9.44263L71.711 49.8333H141.821L141.775 43.1724L164.796 52.5932L175.679 57.0388L141.936 70.9126L141.898 64.4157H113.929H97.6151L127.993 81.5268L136.2 76.8723L140.039 90.2613Z" fill="black"/>
</g>
<path d="M141.5 41.7032L141.485 46.559L141.446 40.0995L141.462 35.2437L141.5 41.7032Z" fill="white"/>
<path d="M55.9482 51.6907L55.9329 56.5465L0.109375 25.0545V20.1912L55.9482 51.6907Z" fill="#EAEAEA"/>
<path d="M141.577 55.8306L141.569 60.6864H98.6631L98.6784 55.8306H141.577Z" fill="#EAEAEA"/>
<path d="M174.303 48.6848L174.288 53.5407L141.6 66.9818L141.615 62.126L174.303 48.6848Z" fill="#EAEAEA"/>
<path d="M141.615 62.126L141.599 66.9818L141.569 60.6864L141.576 55.8306L141.615 62.126Z" fill="white"/>
<path d="M110.479 82.3922L110.464 87.2481L81.0342 70.6815L81.0495 65.8257L110.479 82.3922Z" fill="#EAEAEA"/>
<path d="M56.1702 90.0078L56.1625 94.8636L55.9331 56.5465L55.9484 51.6907L56.1702 90.0078Z" fill="white"/>
<path d="M142.532 90.4851L142.517 95.341L102.51 91.7606L102.525 86.9048L142.532 90.4851Z" fill="#EAEAEA"/>
<path d="M92.4145 90.0078L92.4069 94.8636L68.7207 113.37L68.736 108.514L92.4145 90.0078Z" fill="#D3D3D3"/>
<path d="M141.576 55.8305H98.6782L113.929 64.4158L128.108 72.4045L136.062 67.8992L142.532 90.4852L140.039 90.2614L102.525 86.9048L110.479 82.3921L81.0493 65.8256L81.1029 75.679L81.187 90.0078H92.4221L80.0168 99.6971L68.7359 108.514L53.7303 96.8925L44.8355 90.0078H56.17L55.9482 51.6907L0.109375 20.1912V0.253174L73.5848 41.7031H141.5L141.462 35.2435L174.303 48.6847L164.796 52.5933L141.615 62.1259L141.576 55.8305Z" fill="white"/>
<path d="M68.7359 108.514L68.7206 113.37L44.8203 94.8636L44.8356 90.0078L68.7359 108.514Z" fill="#EAEAEA"/>
<path opacity="0.1" d="M73.642 66.2002C79.7117 66.2002 84.6322 64.4899 84.6322 62.3801C84.6322 60.2704 79.7117 58.5601 73.642 58.5601C67.5723 58.5601 62.6519 60.2704 62.6519 62.3801C62.6519 64.4899 67.5723 66.2002 73.642 66.2002Z" fill="black"/>
<path d="M73.9717 55.6428L73.6421 57.6085C73.6421 57.6085 73.6167 58.4863 76.1266 58.6841C76.1266 58.6841 77.0393 58.8448 77.3942 59.0673C77.7492 59.2898 79.6506 59.7967 80.1956 59.1909C80.7407 58.5852 79.321 57.8681 78.9154 57.7445C78.5224 57.6209 76.228 56.4835 76.228 55.7541L73.9717 55.6428Z" fill="#3D3D3D"/>
<path d="M79.0925 29.4463C79.8784 30.2128 80.4362 34.4161 78.6742 44.7637C76.9122 55.1113 76.3545 56.0262 76.3545 56.0262C76.3545 56.0262 74.7826 56.4341 73.7685 55.6553C73.7685 55.6553 73.5404 48.522 74.4024 45.3818C74.4024 45.3818 73.6418 34.2307 73.7432 31.3749L79.0925 29.4463Z" fill="#223066"/>
<path d="M67.4686 59.8585C67.3165 60.6002 66.9996 61.5398 67.3672 62.4794C67.7348 63.4066 68.1785 64.3461 68.3053 65.2115C68.432 66.0769 69.1292 67.3008 70.9039 67.0659C72.6785 66.831 71.8292 65.0879 71.1954 63.7404C70.5616 62.3928 70.2194 60.3653 70.2574 59.6978L67.4686 59.8585Z" fill="#3D3D3D"/>
<path d="M69.4841 30.5461C69.0404 30.3978 67.6968 35.108 68.001 45.0105C68.001 45.0105 66.8475 49.288 67.0503 50.821C67.2531 52.354 67.3672 58.659 67.0503 60.1054C67.0503 60.1054 68.432 61.3788 70.3587 60.1054C70.3587 60.1054 72.6278 49.3746 73.325 47.2853C74.0221 45.196 77.47 34.5887 76.6207 30.8923C76.6207 30.8923 71.4742 31.189 69.4841 30.5461Z" fill="#223066"/>
<path d="M71.0816 12.9169L69.383 13.7329C69.383 13.7329 68.5084 14.8826 65.4027 16.1313C65.4027 16.1313 64.1478 17.2439 65.7196 19.9266C67.3041 22.6093 68.6732 26.108 69.1168 28.222C69.5605 30.336 68.5337 30.744 69.1168 31.3127C69.6999 31.8814 78.0028 33.8594 79.9422 29.1121C79.9422 29.1121 79.9169 28.3456 79.4732 27.5668C79.0295 26.8003 79.3845 14.1161 77.3056 12.2123C77.2929 12.2123 74.4535 11.6189 71.0816 12.9169Z" fill="white"/>
<path d="M65.3901 16.1314C64.2492 16.6878 60.7633 21.1631 60.5731 22.1397C60.5731 22.1397 60.5098 19.3952 59.8252 17.5284C59.8252 17.5284 58.8999 18.2578 58.0252 18.0971C58.0252 18.0971 57.2774 25.2181 59.8633 25.7497C62.4492 26.2813 66.9872 21.2743 67.4943 19.5188C67.8999 18.0724 66.5182 15.5875 65.3901 16.1314Z" fill="white"/>
<path d="M77.2929 12.2122C78.4717 12.373 84.9492 16.2425 84.9492 16.2425C84.9492 16.2425 86.483 13.7205 88.6887 11.5076C88.6887 11.5076 89.1577 12.6202 90.4506 12.7068C90.4506 12.7068 88.1309 19.5681 85.6844 19.5433C83.2379 19.5186 77.7619 18.0227 77.052 16.0571C76.3422 14.079 76.583 12.1133 77.2929 12.2122Z" fill="white"/>
<path d="M88.6883 11.5078C88.6883 11.5078 88.5869 9.76464 88.9038 9.1465C89.2207 8.54073 89.9432 7.62589 90.2221 7.79897C90.501 7.97204 89.9559 9.22068 89.9559 9.22068C89.9559 9.22068 90.7418 8.42946 90.8686 8.09567C90.9954 7.76188 91.401 6.73577 91.7813 6.8594C92.1742 6.98302 93.3024 8.68908 92.9221 9.6781C92.5418 10.6548 91.2742 12.5092 90.4503 12.707C90.4503 12.6946 89.1573 12.7317 88.6883 11.5078Z" fill="#FAC2B0"/>
<path d="M59.4956 15.2293C59.4956 15.2293 58.9252 19.5315 57.2139 22.0164C57.2139 22.0164 52.0294 20.706 49.4941 21.114C49.4941 21.114 52.0294 16.2925 51.8265 14.673C51.6364 13.0535 50.4195 8.55343 50.4195 8.55343C50.4195 8.55343 55.5026 6.62484 58.9252 7.6015C58.9252 7.6015 60.3449 11.3845 59.4956 15.2293Z" fill="#F2F2F2"/>
<path d="M70.7141 5.89534C73.6042 5.47501 74.7704 6.58765 75.0239 7.11925C75.2774 7.63848 75.2267 12.2745 74.2634 12.7443C74.2634 12.7443 69.9535 13.5602 69.4591 9.9874C68.9647 6.41457 70.7141 5.89534 70.7141 5.89534Z" fill="#FAC2B0"/>
<path d="M69.8645 10.4074C69.8645 10.4074 70.8913 9.80164 70.9293 8.26866C70.9293 8.26866 74.1617 8.47883 75.6575 6.63679C75.6575 6.63679 72.9068 3.62028 69.5349 5.44996C66.1631 7.27965 68.8377 12.0269 69.6744 11.6931L69.8645 10.4074Z" fill="#52260F"/>
<path d="M69.5986 12.9168L69.6747 11.6929L69.7254 9.94971L74.4536 10.7038C74.4536 10.7038 73.2367 13.4731 73.4648 14.3508C73.4648 14.3508 71.5381 15.105 69.5986 12.9168Z" fill="#FAC2B0"/>
<path d="M69.5984 12.9172C69.5984 12.9172 69.0787 13.2387 69.1167 13.8815C69.1167 13.8815 70.6252 15.8225 72.1844 16.1315C72.1844 16.1315 72.2097 14.9571 72.666 14.4626C72.6787 14.4749 71.1829 14.2771 69.5984 12.9172Z" fill="#F4F5F5"/>
<path d="M73.4647 14.3514C73.4647 14.3514 74.2126 14.7346 74.3521 15.2291C74.3521 15.2291 74.6816 13.7703 73.5788 13.1769C73.5788 13.1646 73.3887 13.8445 73.4647 14.3514Z" fill="#F4F5F5"/>
<path d="M72.679 14.4747L73.4649 14.3511C73.4649 14.3511 74.0734 14.5983 74.2508 15.0187L74.1241 15.7481L73.0846 16.0448L72.2227 15.6986C72.2227 15.6986 72.2607 14.9321 72.679 14.4747Z" fill="#BA202A"/>
<path d="M73.084 16.0449C73.084 16.0449 75.0488 21.1013 74.6558 27.5299L75.6572 28.5313L76.5572 27.0848C76.5572 27.0848 75.4417 19.4694 74.1361 15.7358L73.084 16.0449Z" fill="#C9202C"/>
<path d="M70.2954 10.3085C70.2954 10.3085 69.4334 9.08455 68.7489 9.99939C68.2799 10.6175 69.5602 11.6684 70.5236 11.4706L70.2954 10.3085Z" fill="#FAC2B0"/>
<path d="M59.8253 17.5285C59.8253 17.5285 60.345 15.5752 60.0661 15.093C59.7872 14.6109 58.2407 13.4364 57.7971 13.8073C57.3534 14.1906 58.7858 15.1425 58.8238 15.3774C58.8619 15.6246 58.9126 18.0107 58.9126 18.0107C58.9126 18.0107 59.3309 18.023 59.8253 17.5285Z" fill="#FAC2B0"/>
</g>
<defs>
<clipPath id="clip0_166_1131">
<rect width="185.78" height="123.253" fill="white" transform="translate(0.109375 0.253174)"/>
</clipPath>
</defs>
</svg>
