<svg width="40" height="40" viewBox="0 0 40 40" fill="none" xmlns="http://www.w3.org/2000/svg">
<g clip-path="url(#clip0_193_7551)">
<path d="M20.005 0H19.995C8.96753 0 2.62423e-05 8.97 2.62423e-05 20C-0.00682151 24.2125 1.32665 28.318 3.80753 31.7225L1.31503 39.1525L9.00253 36.695C12.2635 38.8584 16.0917 40.0084 20.005 40C31.0325 40 40 31.0275 40 20C40 8.9725 31.0325 0 20.005 0Z" fill="#4CAF50"/>
<path d="M31.6424 28.2429C31.1599 29.6054 29.2449 30.7354 27.7174 31.0654C26.6724 31.288 25.3074 31.4655 20.7124 29.5605C14.8349 27.1255 11.0499 21.1529 10.7549 20.7654C10.4724 20.3779 8.37988 17.603 8.37988 14.7329C8.37988 11.8629 9.83738 10.4654 10.4249 9.86545C10.9074 9.37295 11.7049 9.14795 12.4699 9.14795C12.7174 9.14795 12.9399 9.16045 13.1399 9.17045C13.7274 9.19545 14.0224 9.23045 14.4099 10.1579C14.8924 11.3204 16.0674 14.1904 16.2074 14.4854C16.3499 14.7804 16.4924 15.1804 16.2924 15.568C16.1049 15.9679 15.9399 16.1454 15.6449 16.4854C15.3499 16.8254 15.0699 17.0854 14.7749 17.4504C14.5049 17.7679 14.1999 18.108 14.5399 18.6954C14.8799 19.2704 16.0549 21.1879 17.7849 22.7279C20.0174 24.7154 21.8274 25.3505 22.4749 25.6204C22.9574 25.8204 23.5324 25.773 23.8849 25.398C24.3324 24.9155 24.8849 24.1154 25.4474 23.328C25.8474 22.7629 26.3524 22.6929 26.8824 22.8929C27.4224 23.0804 30.2799 24.4929 30.8674 24.7854C31.4549 25.0804 31.8424 25.2204 31.9849 25.468C32.1249 25.7155 32.1249 26.8779 31.6424 28.2429Z" fill="#FAFAFA"/>
</g>
<defs>
<clipPath id="clip0_193_7551">
<rect width="40" height="40" fill="white"/>
</clipPath>
</defs>
</svg>
